<?xml version="1.0" standalone="no"?>
<!DOCTYPE svg PUBLIC "-//W3C//DTD SVG 20010904//EN"
 "http://www.w3.org/TR/2001/REC-SVG-20010904/DTD/svg10.dtd">
<svg version="1.0" xmlns="http://www.w3.org/2000/svg"
 width="78.000000pt" height="78.000000pt" viewBox="0 0 78.000000 78.000000"
 preserveAspectRatio="xMidYMid meet">
<metadata>
Created by potrace 1.11, written by Peter Selinger 2001-2013
</metadata>
<g transform="translate(0.000000,78.000000) scale(0.100000,-0.100000)"
fill="#000000" stroke="none">
<path d="M395 751 c-53 -24 -79 -55 -101 -118 -32 -92 8 -128 94 -84 47 24 66
45 91 101 27 58 26 66 -5 95 -32 30 -29 29 -79 6z"/>
<path d="M567 617 c-82 -77 -107 -114 -107 -159 0 -32 5 -41 33 -58 52 -32 97
-25 155 25 63 53 91 180 51 224 -34 36 -69 27 -132 -32z"/>
<path d="M135 628 c-79 -43 -124 -142 -90 -195 9 -13 25 -23 39 -23 32 0 86
39 110 79 21 36 27 114 11 129 -18 17 -49 22 -70 10z"/>
<path d="M273 356 c-23 -13 -57 -26 -75 -29 -44 -6 -100 -30 -116 -50 -19 -22
-23 -79 -8 -99 16 -22 59 -38 103 -38 27 0 43 -8 71 -36 73 -73 97 -87 141
-79 88 15 112 66 69 148 -12 23 -23 60 -24 82 -2 22 -3 45 -3 50 -2 23 -49 64
-81 69 -27 5 -45 1 -77 -18z"/>
<path d="M665 371 c-16 -4 -40 -13 -53 -20 -34 -18 -82 -99 -82 -138 0 -29 5
-36 34 -48 53 -23 95 0 140 74 41 66 47 115 17 131 -11 5 -21 10 -23 9 -2 -1
-16 -4 -33 -8z"/>
</g>
</svg>
