<?xml version="1.0" standalone="no"?>
<!DOCTYPE svg PUBLIC "-//W3C//DTD SVG 1.1//EN" "http://www.w3.org/Graphics/SVG/1.1/DTD/svg11.dtd" >
<svg>
<metadata>
Created by FontForge 20120731 at Sat Oct  8 16:10:57 2016
 By www-data
Fontgrube Media Design
</metadata>
<defs>
<font id="GabrieleBadAH" horiz-adv-x="625" >
  <font-face 
    font-family="Gabriele Bad AH"
    font-weight="400"
    font-stretch="normal"
    units-per-em="1000"
    panose-1="0 0 4 0 0 0 0 0 0 0"
    ascent="800"
    descent="-200"
    x-height="498"
    cap-height="680"
    bbox="-46 -200 1648 916"
    underline-thickness="20"
    underline-position="-123"
    unicode-range="U+0020-2122"
  />
<missing-glyph horiz-adv-x="500" 
d="M63 0v800h375v-800h-375zM125 63h250v675h-250v-675z" />
    <glyph glyph-name=".notdef" horiz-adv-x="500" 
d="M63 0v800h375v-800h-375zM125 63h250v675h-250v-675z" />
    <glyph glyph-name=".null" horiz-adv-x="0" 
 />
    <glyph glyph-name="nonmarkingreturn" 
 />
    <glyph glyph-name="space" unicode=" " 
 />
    <glyph glyph-name="exclam" unicode="!" 
d="M378 617l-1 -26q-28 -34 -37 -138q-9 -108 -43 -156l-6 -39q-18 -26 -20 -26q-11 0 -19 44q-5 33 -5 55q0 2 2 73q12 -5 19 -5q8 0 8 10q0 14 -27 16v2q1 6 -1 17t-2 16q0 11 3 21q-8 37 -25 90q14 -1 14 5q0 3 -12 12q-15 11 -15 41q0 51 94 50h39zM359 76q0 -7 -9 -33
t-13 -28q-40 -19 -81 -19q-26 0 -41.5 19.5t-15.5 46.5q0 24 9 47q12 6 25 13q7 4 16 25q27 11 35 11q20 0 47.5 -31t27.5 -51zM304 534q0 2 -8 15h-5v-26h5q8 6 8 11z" />
    <glyph glyph-name="quotedbl" unicode="&#x22;" 
d="M424 664q0 -44 -22 -118q-26 -90 -57 -90q-24 0 -43 44q-6 14 -9.5 44t-7.5 43v3q1 35 -15 35q-11 0 -11 -49q0 -7 -5 -17t-5 -13q0 -35 -8 -51q-21 -37 -34 -37q-14 0 -37 31q-31 44 -31 148v55q15 41 42 41q-2 0 58 -8q29 -44 32 -44q11 0 15 23.5t33 30.5q23 4 50 4
q25 0 41 -26q14 -22 14 -49z" />
    <glyph glyph-name="numbersign" unicode="#" 
d="M583 140q0 -33 -36 -49l-74 -24q-46 -16 -60 -42q-23 -42 -23 -93q0 -12 -5 -34t-6 -31q-2 -20 -6 -25q-5 -8 -23 -8l-15 -1q-34 0 -49 17q-3 15 -3 24q0 1 9 28q5 15 14 60t9 58q0 40 -19 53q-15 10 -58 10h-12q-16 -16 -24 -78q-10 -80 -13 -88q-7 -22 -38 -57
q-10 -11 -25 -11q-17 0 -33.5 11.5t-16.5 27.5l11 53q14 72 14 122q0 39 -19 53q-6 5 -34 10q-19 4 -19 20q0 12 10 31q7 3 38 9q26 5 35 14q13 33 13 62q0 42 -22 42q-5 0 -14 -3t-14 -3q-23 0 -37 21q-12 17 -12 42q0 22 15 36q38 5 49 7q34 6 43 14q32 28 53 98
q17 56 21.5 112.5t30.5 64.5q9 2 20 2q19 0 35.5 -24t16.5 -45q0 -10 -18 -45q-12 -24 -27 -117q-3 -4 -3 -8q0 -17 26 -31q22 -12 41 -12q41 0 44 53q8 10 16 73q8 73 18 103q17 52 50 52q21 0 34 -25q10 -20 10 -44q0 -4 -15 -110q-5 -38 -5 -33q0 -36 24 -48
q22 -6 44.5 -12.5t22.5 -32.5q0 -30 -23 -37q-10 -3 -47 -3q-22 0 -37 -42q-12 -33 -12 -61q0 -27 1 -40q11 -11 47 -16q43 -5 55 -10q27 -11 27 -40zM355 280q0 59 -51 59q-28 0 -38 -3q-19 -5 -28 -23q-18 -37 -18 -93q0 -19 28 -29q23 -5 47 -10q2 2 16 2q23 0 35 39
q9 29 9 58z" />
    <glyph glyph-name="dollar" unicode="$" 
d="M574 175q0 -70 -54 -127.5t-124 -57.5h-19q-15 0 -45.5 10.5t-46.5 10.5q-78 0 -103 -16q-92 14 -102 14q-13 0 -13 49q0 14 2 42t2 41q0 24 6 33t29 9q36 0 98 -35q2 -15 20 -15q4 0 11.5 1t11.5 1q3 0 20 -15q26 -22 99 -22q71 0 93 20q19 17 33 89q-23 28 -63 88
q-68 5 -104 16q-91 28 -147 82q-65 64 -65 151q0 79 51 122q47 39 128 39q24 0 68.5 -12t68.5 -12q8 0 20 9.5t20 9.5q11 0 29.5 -8.5t18.5 -17.5v-60q0 -81 -52 -81q-28 0 -41 10q0 1 -11 16q-29 42 -98 42q-73 0 -73 -83q0 -56 47 -83q80 -45 114 -52q10 -1 30 -5
q50 -10 89 -67q11 -8 31 -26q21 -25 21 -110z" />
    <glyph glyph-name="percent" unicode="%" 
d="M594 197q0 -97 -76 -174q-34 -34 -59 -34h-52q-28 -1 -41 1q-19 2 -36 53.5t-24 51.5q-12 0 -25 -20q-8 -15 -17 -30q-28 -35 -46 -80q-12 -31 -43 -68q-36 -45 -61 -45q-36 0 -36 27q0 19 40 109q49 107 53 120q10 29 21 45q19 28 53 106q36 84 36 109q0 8 -6 8
q-7 0 -32 -30l-95 -51q-34 -1 -106 83q-9 81 -9 112q0 35 30 86q29 48 59 70q23 17 112 17q40 0 77 -19q19 -34 25 -34q9 0 29 23q13 15 27 31q24 18 72 56q14 -5 29 -20t15 -29q0 -11 -35 -70q-37 -64 -42 -80q-38 -113 -38 -158q0 -13 12 -13q7 0 23.5 12.5t30.5 12.5
q8 0 44 -16q52 -24 73 -65q18 -35 18 -97zM255 512q0 14 -19 35.5t-33 21.5q-18 0 -50 -40q-28 -35 -37 -58q2 -53 55 -53q34 0 59 29.5t25 64.5zM527 206q0 29 -12 49q-13 -10 -23 -10q-9 0 -23.5 14t-21.5 14q-3 -1 -7 -2q-37 -12 -57 -55q-17 -36 -17 -79q0 -22 18 -39.5
t40 -17.5q42 0 74 43q29 40 29 83z" />
    <glyph glyph-name="ampersand" unicode="&#x26;" 
d="M599 109q0 -13 -8 -35q-8 -25 -8 -36q-16 -20 -48 -31q-41 -14 -52 -22q-25 12 -77 30q-16 2 -47 10q-36 44 -46 44q-14 0 -54.5 -39.5t-60.5 -39.5q-10 0 -15 10q-22 -1 -27 -1q-58 0 -95 49q-34 44 -34 105q0 112 18 171q18 13 56 27q42 15 58 25l1 3l2 -1l1 3
q0 18 -15 22q-18 4 -20 7q-11 19 -25 77t-14 83q0 14 17 85q8 35 28 49q17 12 55 12q45 0 123 -15q68 -61 68 -130q0 -55 -34 -90q-31 -26 -63 -52q-34 -30 -34 -71q0 -1 3 -3q18 -3 52 -18l14 -9q7 2 22 5v-26q10 6 18 6q6 0 11 -3q4 4 23 61q30 11 41 32q6 3 10 12t7 17
q7 3 65 16q10 -14 42 -96q-34 -28 -45 -28q-15 0 -36 18l2 -10q-3 -1 -6 -10t-4 -11q-7 -8 -32 -13q-19 -4 -31 -37q-4 -11 -7 -11q5 1 -12 1q-7 0 -11 -8v-56q0 -23 32 -59.5t55 -36.5q9 0 22.5 -8t20.5 -8q18 0 22.5 26t12.5 26q3 0 9 -1.5t9 -1.5t8 1.5t8 1.5t8.5 -3
t7.5 -4l6 2q3 -6 3 -13zM299 523l-1 10l-4 -10h5zM300 567q0 26 -29 47q-5 1 -20.5 8.5t-24.5 7.5q-58 0 -58 -113q0 -8 1 -21q7 -6 22 -17q19 -16 37 -48l42 69q30 50 30 67zM298 190q0 22 -9 54q-14 45 -16 52q-24 9 -69 33l-48 -32q-29 -21 -42 -37q-10 -36 -10 -45
q0 -24 11 -62q12 -43 26 -55l68 -5q27 21 54 43q35 30 35 54z" />
    <glyph glyph-name="quotesingle" unicode="'" 
d="M363 663q0 -30 -10 -112q-10 -91 -18 -105q-18 -31 -39 -31q-25 0 -44 119q-15 93 -15 147q0 61 64 61q39 0 52 -22q10 -15 10 -57z" />
    <glyph glyph-name="parenleft" unicode="(" 
d="M410 705q-47 -75 -79 -199q-31 -117 -31 -212q0 -77 11 -118q29 -90 83 -269q11 -37 11 -57q0 -37 -37 -37q-39 0 -72 58q-59 104 -76 203q-12 67 -12 217q0 75 15 176q17 119 42 165q20 40 39 81q25 41 74 41q34 0 32 -49z" />
    <glyph glyph-name="parenright" unicode=")" 
d="M384 271q0 -36 -5 -49q-2 -64 -6 -108q-9 -76 -50 -173q-53 -122 -108 -122q-33 0 -33 36q0 20 23 71q31 65 34 74q13 39 31 119q21 89 21 116q0 127 -21 205q-2 7 -51 151q-37 111 -37 141q0 25 27 25q70 0 128 -140q21 -53 35 -169q12 -98 12 -177z" />
    <glyph glyph-name="asterisk" unicode="*" 
d="M498 618q0 -24 -11 -33q-14 -11 -49 -27.5t-50 -29.5v-5q99 -62 99 -87q0 -43 -34 -43q-9 0 -101 58h-5q-23 0 -26 -32.5t-5 -64.5q-7 -34 -34 -34q-29 0 -29 39q0 12 5.5 36t5.5 36q0 25 -18 25t-56 -18.5t-54 -18.5q-43 0 -43 47q0 41 114 73v5q0 8 -52.5 44.5
t-52.5 50.5q0 40 43 40q19 0 59 -32t47 -32q13 0 15 27q0 -3 0 38q0 75 44 75q23 0 26 -30q-1 8 -1 -48q0 -66 6 -71h6q92 47 114 47q37 0 37 -35z" />
    <glyph glyph-name="plus" unicode="+" 
d="M529 318q0 -39 -75 -39q-89 0 -97 8l-7 -22q7 -103 7 -116q0 -51 -26 -51l-45 11q-29 7 -29 89q0 10 6.5 28.5t6.5 28.5q0 23 -38 23q-9 0 -27.5 -1t-28.5 -1q-48 0 -66 24v2q0 37 11 54q21 13 64 13q5 0 15.5 -3.5t15.5 -3.5q20 0 54 16q-2 26 -2 69q0 60 30 83l41 -1
q19 -1 19 -82q0 -8 -1 -14q-7 -6 -7 -14q0 -34 0 -31q2 -22 12 -22h115q52 0 52 -48z" />
    <glyph glyph-name="comma" unicode="," 
d="M428 96q0 -32 -8 -80q-10 -56 -24 -73q-41 -52 -124 -88h-68q-15 0 -20 11q28 31 56 61q37 45 37 69q0 15 -18.5 37t-33.5 24q-26 58 -26 81q0 15 16 48q14 29 32 37q13 6 49 6q70 0 101 -31.5t31 -101.5z" />
    <glyph glyph-name="hyphen" unicode="-" 
d="M490 297q0 -6 -3 -12v-57q-43 -20 -54 -20q-14 0 -80 2q-7 4 -20 10q-8 -14 -14 -14q-2 0 -6 5t-8 5q-11 0 -32.5 -6.5t-32.5 -6.5l-120 4q-17 0 -17 94q20 16 25 18q9 5 30 5q8 0 24.5 1.5t24.5 1.5q12 0 35.5 -4t34.5 -4q5 0 12.5 2.5t11.5 2.5q5 0 13.5 -2.5
t13.5 -2.5q15 0 43.5 6.5t41.5 6.5q23 0 46 -7q31 -10 31 -28z" />
    <glyph glyph-name="hyphen" unicode="&#x2010;" 
d="M490 297q0 -6 -3 -12v-57q-43 -20 -54 -20q-14 0 -80 2q-7 4 -20 10q-8 -14 -14 -14q-2 0 -6 5t-8 5q-11 0 -32.5 -6.5t-32.5 -6.5l-120 4q-17 0 -17 94q20 16 25 18q9 5 30 5q8 0 24.5 1.5t24.5 1.5q12 0 35.5 -4t34.5 -4q5 0 12.5 2.5t11.5 2.5q5 0 13.5 -2.5
t13.5 -2.5q15 0 43.5 6.5t41.5 6.5q23 0 46 -7q31 -10 31 -28z" />
    <glyph glyph-name="period" unicode="." 
d="M429 111q0 -116 -82 -116q-30 0 -53 20q-11 12 -36 36q-18 12 -47 42q-10 15 -10 59t28.5 70.5t73.5 26.5q126 0 126 -138z" />
    <glyph glyph-name="slash" unicode="/" 
d="M602 746q0 -33 -53 -88q-59 -62 -67 -88q-11 -40 -21 -80q-13 -47 -31 -76q-31 -40 -88 -124q-11 -19 -44 -107q-29 -79 -44 -95q-22 -22 -35 -51q-15 -33 -22 -42q-11 -9 -26 -31q-2 -16 -6 -46q-3 -13 -27 -49.5t-35 -44.5q-15 -10 -36 -10q-41 0 -41 34q0 43 46 116
l192 305v31l228 451q9 19 25 24q10 3 36 3q33 0 48 -11q1 -10 1 -21z" />
    <glyph glyph-name="zero" unicode="0" 
d="M564 326q0 -85 -49 -214q-11 -29 -37.5 -54.5t-55.5 -34.5q-22 -6 -68 -20q-38 -13 -56 -13q-33 0 -115 28q-53 18 -73 73q-10 28 -20 41q-16 22 -17 26q-1 1 -1 31q0 26 -2 30t-9 7t-7 6t3 8t3 8q0 38 -10 42l-2 73q18 17 24 101q5 80 40 103l10 1q-6 9 -6 16
q0 26 31 51q46 37 68 50q39 22 80 22q145 0 215 -124q43 -74 43 -90q0 -5 -2.5 -15.5t-2.5 -15.5q0 -23 8 -68t8 -68zM486 421q0 3 -14 17.5t-16 23.5q-8 27 -19 81q-35 45 -88 57l-21 7q-13 5 -21 5q-58 0 -93 -27q-5 -4 -10 -11q-63 -87 -63 -185q0 -6 -7.5 -17t-6.5 -18
q-2 -5 -2 -7q0 -6 5 -17t5 -17q0 -60 22 -102l36 -82q22 -37 78 -37q6 0 9.5 -8.5t9.5 -8.5q7 0 19.5 5.5t18.5 5.5q5 0 6 -5t4 -5t7.5 2t6.5 2q1 -1 2 -3q6 2 46 31q7 11 13 22t6 27q0 5 16 19t17 20q24 86 24 134q0 7 -2.5 21t-2.5 21q0 5 7.5 23t7.5 26z" />
    <glyph glyph-name="one" unicode="1" 
d="M550 20q0 -10 -1 -17q-15 -1 -29 -1q-41 0 -71 9q-10 -6 -30 -6q-11 0 -16 8.5t-7 8.5q-1 0 -11.5 -9.5t-29.5 -9.5q-15 0 -44 5.5t-43 5.5q-7 0 -22.5 -5t-18.5 -9q-14 0 -42 -1t-42 -1q-24 0 -51 7q-7 1 -15 2q-11 1 -11 4v51q30 13 92 31q30 5 46 8q36 8 39 13l31 62
v7q0 7 -3 20t-3 20q0 6 1 10l8 8q1 2 1 11q0 7 -3.5 21.5t-3.5 22.5q0 3 4.5 8.5t4.5 11.5q0 19 -5 30q-14 4 -14 7q0 7 16 20l-8 109q-1 8 -5.5 24t-4.5 25q0 3 1.5 8.5t1.5 7.5v1q-9 -1 -65.5 -29.5t-78.5 -28.5q-12 0 -31 27q0 7 -2.5 21t-2.5 22q0 15 7 21t28.5 10
t29.5 9q39 26 91 49q64 29 95 29q16 0 28 -15l18 -28q-4 -2 -5 -21q0 -13 1 -36q1 -26 1 -27q0 -6 -2 -11q-10 -9 -10 -29q0 -60 17 -82v-2q0 -6 -10 -20.5t-10 -15.5q0 -5 17 -11q-11 -12 -11 -31q0 -68 7 -73v-52q-2 -3 -2 -6q0 -7 5.5 -18.5t5.5 -18.5l-2 -6q2 0 2 -2
t-8.5 -10.5t-8.5 -12.5q0 -9 11 -17q17 -12 18 -14q28 -34 77 -34q6 0 51 3q27 -10 27 -68z" />
    <glyph glyph-name="two" unicode="2" 
d="M533 171q-6 -162 -16 -168q-5 -3 -40 -3q-6 0 -10.5 9.5t-11.5 9.5q-54 -29 -82 -29q-76 0 -117 9q-9 7 -29 16q-31 11 -68 11q-21 0 -36 -26h-67q-15 0 -15 42q0 46 50 109q3 4 84 92q2 6 28 44q19 2 54 23q32 18 49 34q2 1 4 8t4 7q34 0 89 60q11 33 11 70q0 5 -4.5 10
t-4.5 9q0 3 7.5 8t7.5 10l5 8q0 7 -10.5 22t-10.5 18q0 14 -13 18l-24 4q-6 1 -35 8q-22 6 -36 6q-68 0 -90 -30q0 -12 -8 -30q-9 -22 -11 -30q-5 -29 -18.5 -50.5t-27.5 -42.5l-3 -1q-2 0 -25 7q-15 5 -26 5q-19 0 -31 7q-15 54 -15 94q24 62 50 94q35 44 89 56q22 6 45 13
q28 8 44 8h57q25 -21 55 -25l10 -15q3 2 9 2q22 0 50 -22.5t36 -43.5l20 -48q12 -29 12 -50q0 -11 -13 -56t-19 -53.5t-41 -27.5v-3q0 -4 2.5 -12t2.5 -12q0 -23 -26 -44q-79 -26 -145 -78q-29 -22 -58 -45q-39 -34 -39 -54q0 -3 8 -6q21 -5 43 -10q29 -6 36 -15
q-1 -20 59 -20q22 0 47 4l64 44v48q0 2 2 7t3 6l11 8q-1 13 18 13q22 0 52 -13z" />
    <glyph glyph-name="three" unicode="3" 
d="M519 253q0 -69 -31 -120l-17 -29q0 -3 1.5 -9.5t1.5 -9.5q0 -12 -9.5 -18t-19.5 -12q-42 -25 -72 -36q-17 -6 -78 -21l-45 -11q-25 0 -55 7q-57 13 -92 29q-80 38 -80 189q0 36 58 36q3 0 7.5 1.5t7.5 1.5q51 0 76 -35l1 -25q-19 -8 -19 -41q0 -21 1.5 -29.5t9.5 -9.5
t14 -10q35 -21 67 -21q49 0 101 11q7 5 14 18.5t12 17.5q2 2 20 9q13 5 14 12l-3 2q2 9 2 19t7 28t7 20q0 38 -17 55q-23 17 -47 33q-7 10 -14 21q-10 14 -32 14q-6 0 -17.5 2.5t-16.5 2.5q-22 0 -41 -13q-22 8 -68 10v34q0 18 2 29q30 14 69 38q40 40 46 47q26 31 26 57
q0 45 -59 45q-70 0 -91 -38q-5 -47 -41 -47q-43 0 -40 0q-22 31 -22 73q0 75 53 93q21 7 117 7q12 0 36 1h36q45 0 65 -3q6 -1 27 -8q15 -5 26 -5q8 0 15 5t10 5q4 0 13 -2.5t14 -1.5q3 -14 3 -16q0 -5 -5.5 -11.5t-5.5 -11.5q0 -19 -34.5 -76.5t-34.5 -72.5q0 -8 -27 -28.5
t-28 -28.5q4 -4 89 -21q32 -32 64 -65q29 -35 29 -87z" />
    <glyph glyph-name="four" unicode="4" 
d="M551 240l-4 -64l-5 -5q-15 -5 -47 -16h-10q-7 0 -20.5 5.5t-21.5 5.5q-19 0 -41 -13q-25 -15 -25 -33q0 -5 1 -13t1 -12q6 -2 37 -12q8 -10 14 -10q5 0 14 2t14 2q17 0 20 -13q11 -12 11 -29q0 -30 -26 -41q-149 -4 -170 -4t-63 7q-51 9 -51 18q0 4 -2.5 11t-2.5 10
q0 26 52 37l72 12l5 4l-6 10l-1 1q4 2 9 9t5 21t2 18v3q-23 7 -44 7q-67 0 -100 -3q-68 -5 -73 -5q-8 0 -22 4.5t-20 4.5q-19 21 -19 58l33 26q1 6 1 10q0 3 -1.5 9t-1.5 9q0 14 88 128q38 48 52 78q73 148 124 191q18 3 38 3q25 0 29 -13v-41q0 -30 -2 -86q0 -7 -3 -21.5
t-3 -22.5q0 -6 6 -13l-8 -86l-5 -10l15 -26q-11 -15 -11 -58q0 -29 27 -46q6 9 34 9q7 0 20.5 -1t19.5 -1q8 0 21.5 4t20.5 4zM318 411q0 54 -14 65q-2 -13 -26 -53.5t-35 -47.5q-5 -18 -16 -36q-5 -3 -11 -3q-2 0 -24 -37q-6 -9 -13 -19q-10 -13 -10 -19q0 -26 12 -26
q8 0 23 1.5t23 1.5q7 0 21 -3t21 -3q3 0 11.5 5t12.5 5q2 0 18 -3q1 16 4 86q3 53 3 86z" />
    <glyph glyph-name="five" unicode="5" 
d="M565 247q0 -26 -18.5 -69.5t-18.5 -45.5q0 -14 0 -12l1 -5q0 -12 -23 -45t-35 -39h-2q-10 1 -16.5 -10t-9.5 -11q-10 8 -17 8t-23 -23q-101 -5 -154 -5q-64 0 -106 32q-30 24 -71 86v21q0 38 10 88q30 33 42 42q26 21 54 21l2 -1q5 -7 27 -9q17 -1 17 -23q0 -9 -10.5 -19
t-10.5 -14l7 -3q-4 -17 -6 -22q-4 -8 -13 -18v-73l15 -16l2 1l10 -5l4 6q2 -2 18.5 -2t20.5 -10q6 -1 10 -1q58 0 106 17q9 12 27.5 21t19.5 10q15 21 47 62v4l-14 7q-7 8 -7 14q0 3 4 5.5t4 3.5q0 4 -8 8v57l-14 -1q0 29 -2 47q-3 28 -31 36q-58 16 -87 16q-19 0 -32 -5
q-17 -7 -47 -9q-34 -4 -47 -7q-32 -9 -29 -9q-19 0 -24 27q-12 65 -12 75q0 7 3 22t3 22q0 4 -1.5 11.5t-1.5 11.5q0 23 10.5 52t10.5 45q0 40 -10 44l5 5q98 5 91 5h246q21 -21 21 -65q0 -3 1.5 -9.5t1.5 -9.5q0 -11 -8 -13.5t-16 -5.5l10 2q-18 -6 -50 -22q-8 11 -25 22
q-6 6 -65 6q-14 0 -40.5 7t-41.5 7q-34 0 -34 -45q-14 -26 -14 -46q0 -24 30 -24q8 0 23.5 2.5t24.5 2.5q30 0 83 -11q60 -12 78 -26q105 -82 105 -193z" />
    <glyph glyph-name="six" unicode="6" 
d="M548 192l-1 -19q0 -26 -48 -84q-38 -45 -72 -74q-29 -25 -88 -25q-3 3 -14 3q-7 0 -22.5 -1.5t-23.5 -1.5q-29 0 -66 20.5t-56 35.5q-38 31 -59 98q-18 56 -18 116q0 126 10 185q16 95 74 160q64 75 154 75h20q29 0 42 -1q34 -3 81 -44q49 -44 49 -76q0 -6 1 -17v-17
q0 -46 -27 -56q-12 12 -16 13q3 -1 -20 -1q-14 0 -34 45q-16 39 -19 59q-10 2 -31 12.5t-33 10.5q-7 0 -33 -9h-4q-11 -3 -32 -1q-23 -7 -67 -72q-11 -65 -11 -96q0 -18 8 -25q27 19 35 22q12 5 41 5q10 0 29.5 1t28.5 1q75 0 145 -55q76 -58 76 -130q0 -13 -8.5 -25
l-8.5 -12l1 -1q4 0 14 3q3 -8 3 -22zM459 189q0 66 -55 116q-5 7 -16 22q-18 21 -81 21q-71 0 -130 -49q1 -18 1 -26q0 -13 -5 -36q6 -4 6 -15q0 -6 -4 -16.5t-4 -12.5t8 -6.5t9 -8.5q18 -39 51 -59q6 -3 71 -32l5 2q8 -3 24 -7l2 -1q4 0 8 6.5t8 6.5l2 -1l6 -1q10 0 48 34
q30 28 45 45q1 9 1 18z" />
    <glyph glyph-name="seven" unicode="7" 
d="M567 643q0 -5 -12.5 -23t-9.5 -26q-2 -23 -17.5 -55t-32.5 -45q-10 -5 -26 -21q-2 -41 -28 -91q-12 -22 -51 -81q-53 -81 -53 -195q0 -18 -6.5 -52.5t-6.5 -51.5q0 -23 -56 -23q-20 0 -35 26q-13 22 -13 43q0 11 17 94t21 95q2 5 14.5 22.5t12.5 19.5q0 59 54 139
q30 11 31 18q5 16 11 23l2 -2q14 1 30 37q16 33 16 50q0 8 -3 15q-11 -1 -23 -1q-25 0 -72 11t-71 12h-34q-35 1 -44 -7q-2 -2 -7 -52q-5 -44 -5 -60q-23 -8 -45 -8q-34 0 -49 19q-10 52 -10 133q0 31 4.5 40.5t31 28t27.5 18.5q27 0 48 -15q14 0 58 5q36 4 58 4
q23 0 67.5 -12.5t68.5 -12.5h18q12 -1 18 -1q31 0 49 21q4 1 8 1q45 0 45 -40z" />
    <glyph glyph-name="eight" unicode="8" 
d="M551 207q0 -15 -9 -43q-11 -34 -13 -44q-1 -13 -6 -38q-3 -10 -15 -26q-29 -42 -76 -57q-33 -10 -96 -10q-89 0 -126 9q-71 17 -95 74q-3 9 -10 26q-32 67 -32 93q0 27 9 65q10 42 23 60q6 8 31 24q22 14 26 26q-73 76 -73 102q0 35 26 102q32 81 95 93q84 16 117 16
q22 0 58 -3q59 -5 104 -60.5t45 -115.5q0 -16 -21 -60.5t-34 -49.5l-55 -21q21 -19 54 -33t42 -24q15 -18 15 -59q0 -11 -1 -25q17 -9 17 -21zM439 498q0 37 -33 71t-70 34q-67 0 -93 -13q-17 -9 -34 -28q-20 -21 -20 -37q0 -32 16 -90l4 1q6 0 13 -10.5t15 -10.5
q16 -9 32 -9q14 0 40 6.5t39 6.5h37q54 48 54 79zM470 162v27q0 64 -5 69.5t-27 23t-26 18.5h-3q-5 0 -16 8.5t-16.5 8.5t-16.5 1.5t-16 1.5q-10 0 -27.5 -12.5t-23.5 -12.5q-51 0 -85 17l-15 -40q-9 -9 -19 -29q-12 -25 -17 -31q-11 -16 -11 -38q0 -38 31 -69t69 -31l5 6
q41 -1 43 -12l-2 -4q17 -3 37 -3q21 0 36 3q32 24 68 55l8 18l22 2q-9 6 -9 17q11 -1 16 6z" />
    <glyph glyph-name="nine" unicode="9" 
d="M539 343q0 -46 -19 -114q-5 -4 -7 -28q-1 -28 -2 -33q-3 -9 -11 -18t-10 -14q-8 -19 -14 -44q-85 -102 -205 -102q-34 0 -49 10q-8 6 -27.5 12t-27.5 12q-12 8 -37 54t-25 59t10 17q16 7 18 9q8 1 15 1q23 0 87 -34q1 -11 9.5 -14t10.5 -4q9 -11 19 -21t28 -10
q20 0 51 12q36 14 35 29q34 46 37 49q26 36 28 49l9 54q-10 10 -10 23t5 23l-7 1q-22 0 -63.5 -41t-44.5 -41h-10q-17 11 -35 11q-11 0 -32 -5.5t-32 -5.5q-16 0 -46 18.5t-40.5 31.5t-23.5 17t-16 9q-1 11 -6 30q-26 47 -26 129q0 116 86 173q57 37 118 37q24 0 72 -16
q36 -13 73 -26q34 -34 59 -54q13 -9 39 -28q6 -6 6 -20q0 -9 -7 -26t-7 -26q0 -4 10 -30q15 -36 15 -115zM458 487q-33 12 -39 56q-40 41 -96 57q-5 -8 -21 -8q-12 0 -17 8l-22 -9q-5 0 -15 3t-15 3q-10 0 -15.5 -10t-13.5 -11.5t-19 -10.5q-8 -12 -14 -43.5t-6 -48.5
q0 -18 10.5 -49.5t10.5 -48.5q0 -3 3.5 -7t3.5 -7q22 -15 45.5 -30.5t53.5 -15.5q23 0 58.5 27.5t39 28t7.5 0.5t10 -2.5t9 -2.5l3 7q0 8 -10 19v5q37 7 39 21z" />
    <glyph glyph-name="colon" unicode=":" 
d="M368 421q0 -20 -24 -57q-25 -40 -43 -40q-38 0 -82 23q-18 20 -17 68v28q0 21 30 40q27 18 50 18q35 0 60.5 -22.5t25.5 -57.5zM376 115v-16q-1 -10 -1 -15q0 -34 -51 -79q-12 -10 -44 -10q-89 0 -89 83q0 44 9 64q12 27 50 41q29 10 47 10q35 0 47 -19q11 -14 21.5 -29
t10.5 -30z" />
    <glyph glyph-name="semicolon" unicode=";" 
d="M364 415q0 -33 -25 -67q-27 -37 -59 -37t-64.5 29.5t-32.5 60.5q0 35 30 72t64 37q36 0 61.5 -29t25.5 -66zM391 96q0 -9 -1.5 -27.5t-1.5 -27.5q0 -79 -44 -137q-48 -63 -125 -63q-28 0 -40 15q1 5 35.5 48.5t34.5 55.5v16q1 11 1 16q0 15 -23.5 46t-23.5 69q0 43 37 66
q30 18 77 18q35 0 56 -31q18 -27 18 -64z" />
    <glyph glyph-name="less" unicode="&#x3c;" 
d="M446 538q-23 -44 -90 -103q-79 -71 -100 -98q19 -30 94 -109q64 -67 84 -113q-17 -24 -60 -31q-64 54 -185 182q-40 42 -40 73q0 55 240 231q43 -9 57 -32z" />
    <glyph glyph-name="equal" unicode="=" 
d="M517 402q0 -21 -3 -45q-34 -21 -111 -21q-12 0 -36.5 3t-37.5 3q-4 0 -12 -2t-13 -2q-4 0 -13.5 2.5t-14.5 2.5q-15 0 -45 -6t-45 -6q-23 0 -47 6q-34 8 -34 24q0 5 3 10v48q46 17 58 17q77 0 84 -2q29 -8 65 -8q8 12 14 12q2 0 6.5 -4t8.5 -4q7 0 21.5 3.5t21.5 3.5
q84 0 121 -5q9 -2 9 -30zM515 248q0 -5 -3 -10v-48q-50 -18 -53 -18q-4 0 -11.5 2t-11.5 2q-14 0 -29 -3q-10 4 -57 4q-3 0 -8 -2.5t-7 -2.5q-3 0 -7.5 4t-7.5 4q-12 0 -34.5 -5t-34.5 -5q-31 0 -116 9q-29 4 -29 73q35 22 91 22q4 0 12 -3t12 -3t12 2t13 2t14 -2t14 -2
q7 0 19 1.5t18 1.5h27q17 -1 26 -1q12 0 35 4t35 4q23 0 47 -6q34 -8 34 -24z" />
    <glyph glyph-name="greater" unicode="&#x3e;" 
d="M487 323q0 -54 -241 -230q-43 10 -56 33q23 43 90 102q78 70 100 98q-20 29 -95 108q-64 66 -83 112q16 24 60 31q64 -54 185 -181q40 -42 40 -73z" />
    <glyph glyph-name="question" unicode="?" 
d="M509 509q0 -65 -42 -115q-23 -30 -46 -59q-32 -40 -52 -50q-28 -15 -39 -75q-10 -55 -20 -55q-30 0 -30 52q0 14 9 63t14 54q18 10 50 33q22 18 40.5 61.5t18.5 73.5q0 49 -40.5 82t-90.5 33t-68 -12q-23 -15 -23 -62q0 -8 2 -12q46 -2 46 -61q0 -54 -68 -54
q-65 0 -65 130q0 79 44 117q37 33 119 44q44 6 67 6q16 0 49 -19q125 -70 125 -175zM364 67q0 -31 -14 -47l-38 -30h-16q-52 0 -52 68q0 23 8 29q15 10 18 16q19 11 34 11q23 0 41 -11q19 -14 19 -36z" />
    <glyph glyph-name="at" unicode="@" 
d="M613 372q0 -69 -36 -124q-9 -13 -31 -23q-29 -12 -36 -18q1 -1 44 -1t43 -30q0 -61 -78 -114q-71 -49 -136 -49q-130 0 -191 22q-90 33 -132 133q-23 53 -23 128q0 109 75 213q80 110 213 110q104 0 166 -42q59 -41 102 -137q20 -44 20 -68zM528 343q0 73 -26 108
q-24 -31 -52.5 -109.5t-28.5 -116.5q0 -21 19 -21h23q35 1 52 55q13 38 13 84zM507 148q-4 1 -2 7l-2 2q-16 -1 -45.5 -14t-46.5 -13q-29 0 -47 35q-23 -12 -45 -23q-32 -15 -45 -15q-110 0 -110 182q0 74 44 129q48 61 119 61q25 0 55.5 -18.5t41.5 -40.5q16 16 51 45
q-15 29 -72 46q-45 13 -87 13q-85 0 -159 -83q-50 -57 -50 -143q0 -175 131 -229q29 -12 103 -12q104 0 166 71zM376 352q0 37 -10 53q-14 21 -50 21q-41 0 -71 -51q-25 -44 -25 -88q0 -28 9 -52q12 -34 34 -34q49 0 71 31q8 12 32 75q10 26 10 45z" />
    <glyph glyph-name="A" unicode="A" 
d="M616 25q0 -24 -50.5 -25t-135.5 -1q-70 0 -70 16q0 5 2 10l76 55q2 30 2 37q0 35 -21 54q-2 2 -22 25q-18 20 -20 20q-4 0 -10.5 -2.5t-10.5 -2.5q-14 0 -40 10t-40 10q-37 0 -48 -14q-5 -6 -7.5 -21t-4.5 -20q-24 -55 -24 -71q0 -12 12 -25q38 -14 52 -27q21 -19 21 -53
h-216q-36 0 -36 38q0 21 13.5 31t27.5 19q23 18 31 46q3 12 9 37q16 28 38 88l1 3q0 4 -3 11t-3 11q0 9 6 21q8 16 9 21q15 43 42 130q5 32 26 93q9 26 28 76q5 11 13 31q13 41 38 55q65 -19 65 -53q0 -2 -1 -5t-1 -5q0 -12 12 -33t12 -34q1 -6 0 -15q-1 -11 -1 -15
q0 -16 18 -68q12 -35 24 -71q24 -89 47 -179q33 -113 82 -158q20 -13 58 -39v-11zM372 326q0 19 -7 30l-3 69q-1 16 -20 47.5t-33 31.5q-5 0 -6 -7t-6 -7q-7 -6 -26 -66t-19 -74v-29v-11q8 -5 19 -6q7 -1 20 0q16 2 20 2q6 0 17 -3.5t16 -3.5q11 0 19.5 8t8.5 19z" />
    <glyph glyph-name="B" unicode="B" 
d="M591 231q0 -25 -36 -88q5 -18 5 -40q0 -49 -64 -82q-53 -27 -107 -27l-343 4v11q0 32 1 46q2 34 34.5 65.5t32.5 48.5q0 14 -1 43.5t-1 43.5q0 22 7 66t7 66q0 11 -2 39q6 6 6 57q0 60 -9 100l-69 36q-5 2 -5 15q0 1 5.5 16t5.5 23q0 6 -5.5 17t-5.5 17q25 17 72 17
q12 0 34.5 -3.5t34.5 -3.5q8 0 23 1.5t23 1.5t25.5 -9.5t34.5 -9.5q9 0 28 3t28 3q10 0 27 -6t25 -6q3 0 9 1.5t9 1.5q7 0 17.5 -5.5t13.5 -6.5q49 -17 65 -38q13 -16 28 -71q2 -7 9 -17.5t7 -25.5q0 -21 -1 -42q-16 -32 -35 -50q-25 -24 -25 -40q0 -9 28.5 -31t34.5 -47
q11 -49 13 -53q16 -38 16 -41zM451 523v5q-12 16 -31 52q-95 23 -147 23q-39 0 -52 -24q-9 -16 -9 -58q0 -58 42 -78q28 -14 93 -14q31 0 42 6q28 15 62 88zM498 241q0 19 -11 33q-60 74 -199 74q-45 0 -83 -20l-14 -36q0 -22 8 -39q-18 -28 -18 -35q0 -39 16 -51l5 -43
q2 -14 74 -31q64 -16 89 -16q13 0 24 5q49 21 79 64t30 95z" />
    <glyph glyph-name="C" unicode="C" 
d="M581 254q0 -6 -4.5 -17.5t-4.5 -17.5q0 -24 -11 -54q-25 -69 -36 -83q-25 -33 -83 -67q-43 -25 -114 -25q-10 9 -52.5 15t-66.5 26q-85 71 -94 88q-21 40 -32 99q-3 13 -15 103q-7 48 -7 47q0 51 19 126q1 4 35 123q34 35 69 69.5t82 54.5q21 1 40 1q26 0 37 -1
q17 -2 53.5 -19t45.5 -17q7 7 14 7t12 -7l41 10l15 -9q17 5 15 5q9 0 9 -7q0 -5 -2 -12.5t-2 -11.5q0 -9 3.5 -25t3.5 -25q0 -54 -2 -92q-4 -47 -4 -37q0 -4 8 -18.5t9 -20.5l-2 -2q-10 0 -30.5 -5t-31.5 -5q-17 0 -30 11q-15 6 -36 20q3 14 3 27q0 45 -32.5 74.5
t-77.5 29.5q-96 0 -147 -120q-17 -40 -17 -72q0 -29 11 -58q3 -7 11 -17q4 -5 4 -24q0 -3 -13 -17q5 -9 9.5 -42.5t9.5 -39.5q6 -1 7.5 -10t2.5 -17q-2 -6 4 -8.5t7 -5.5q0 -16 10 -47q36 -52 155 -52q26 0 37 11q24 24 49 66q28 47 29 74q0 4 -1 12v12q0 42 40 42
q18 0 33 -13.5t15 -31.5z" />
    <glyph glyph-name="D" unicode="D" 
d="M608 259q0 -5 -16.5 -31t-16.5 -58q0 -14 -15 -32q-19 -24 -22 -30q-12 -26 -13 -27q-8 -15 -18 -24q-46 -39 -110 -53q-44 -9 -123 -9q-14 0 -43 2.5t-43 2.5q-11 0 -32.5 -5t-32.5 -5h-46l-15 5q-42 16 -42 68q0 10 32 17q24 6 40 6q7 0 21 -4t21 -4q4 0 5 15
q-4 13 -5 21l10 12q0 8 -6 13l-5 2q2 11 6 14l3 -3q1 2 2 5q0 8 -5.5 22.5t-5.5 23.5q0 11 1.5 33.5t1.5 33.5q0 32 -8 51q-7 155 -5 228q-4 7 -4 40q0 16 -19 22q-36 11 -37 12q-20 11 -20 39q0 5 1 16t1 16q126 8 169 8q111 0 205 -25q19 -5 48 -25t34.5 -34t22.5 -32
q12 -17 35 -52q17 -26 24 -78q1 -8 7 -83q12 -16 12 -71q0 -7 3 -21.5t3 -21.5zM512 300q0 24 -5 35q-10 14 -19 27v4q0 6 3 16.5t3 15.5q0 7 -2.5 20.5t-2.5 20.5q0 4 -13 22q-45 59 -73 81q-43 34 -100 35h-11q-40 0 -49 -21q0 -2 -7 -59.5t-7 -63.5q0 -28 5.5 -85
t5.5 -86q0 -21 -13 -50q8 -74 19 -96q21 -39 84 -39q81 0 134 73q48 66 48 150z" />
    <glyph glyph-name="E" unicode="E" 
d="M611 38q0 -17 -13 -30t-29 -13h-60q-13 0 -37 3.5t-35 4.5q-5 4 -12 4q-6 0 -16 -3.5t-15 -3.5l-9 10t-19 10q-12 0 -20.5 -10.5t-12 -11.5t-48.5 -1q-20 0 -58 -1t-57 -1q-21 0 -52 12q-9 0 -27 -3.5t-27 -3.5q-29 0 -29 28q0 23 35.5 53.5t37.5 42.5q0 18 5 52
q4 9 10 27t6 131q0 47 -2 52q-10 12 -10 23q0 5 2.5 14.5t2.5 14.5q0 10 -4 24q-6 19 -6 24q-3 28 -9 85q-3 18 -16 18q-4 0 -11 -1.5t-10 -1.5q-8 0 -15 7t-7 14l3 6q-16 22 -16 44q0 13 7 16q1 0 18 1l394 25q16 1 32 1q24 0 35 -1q25 -2 45.5 -22t20.5 -45q0 -5 -4 -15
t-4 -16q0 -79 -6 -114q-3 -19 -19 -19q-7 0 -20 1.5t-19 1.5q-19 0 -46.5 21.5t-27.5 38.5q0 2 2.5 4t2.5 4q0 4 -3 10l5 22l-10 13q-9 0 -18 1q-15 2 -13 6h-166q-42 0 -42 -82q0 -68 20 -84q16 -12 86 -12q29 0 34 6q16 20 41.5 26t49.5 12q12 -15 12 -36q0 -19 -12 -27
q3 -41 5 -122q-2 -9 -5 -19.5t-14 -10.5q-57 0 -71 22q0 9 -5 26q-4 8 -24 16t-32 8q-6 0 -19 -2t-19 -2q-42 0 -42 -53q0 -80 15 -123q8 -23 22 -31q11 -6 36 -6q9 0 25.5 2.5t25.5 2.5q7 0 22.5 -1.5t27.5 -1.5l2 -1q6 5 17 10q13 10 19 10t16.5 -4.5t16.5 -4.5
q11 0 25 12.5t16 23.5l16 103q6 1 16 1t28 -4.5t28 -4.5q4 0 11 2t11 2q5 0 5 -11t-1.5 -34t-1.5 -34t2 -31.5t2 -31t4.5 -32t4.5 -32.5z" />
    <glyph glyph-name="F" unicode="F" 
d="M585 622q0 -18 -11 -31v-130l1 -2q-2 -18 -20 -31.5t-37 -13.5q-11 0 -20 46t-12 48l-2 46q-2 34 -8 42q-16 22 -28 22q-1 0 -10 -7t-17 -7q-3 0 -8 1h-8q-4 0 -33 -12q-9 0 -25.5 6.5t-25.5 6.5l-26 1q-18 0 -28 -5q-16 -21 -16 -48q0 -62 12 -77q41 -18 79 -18
q6 0 25.5 10t25.5 16l3 2q6 -1 14 -8t13 -7l3 1q5 -1 26 -2v-6q0 -6 1 -18t1 -18q0 -4 -10.5 -22.5t-11.5 -25.5q5 -1 19 1v-3q0 -10 -13 -22v-10q-4 -12 -8 -25q-7 -16 -18 -16q-12 0 -51 15.5t-51 15.5q-40 0 -52 -37q-16 -50 -16 -71q0 -89 29 -114q26 -9 53.5 -18.5
t27.5 -63.5q0 -38 -32 -38h-76q-50 1 -75 1q-6 0 -17.5 -1t-17.5 -1q-8 0 -23.5 2t-22.5 2l4 59q1 12 25 28t27 24q10 24 10 175q0 46 -12 50q7 128 7 130q0 22 -13 60t-28 51q-22 14 -57 47v18q-1 36 15 39q58 12 118 12q52 0 135 -4q110 -6 135 -7q66 -2 81 -5
q50 -12 50 -53z" />
    <glyph glyph-name="G" unicode="G" 
d="M621 338q0 -3 -5 -14.5t-7 -13.5q-8 -7 -26 -7.5t-24 -5.5q-11 -9 -11 -36q0 -7 5 -17t5 -13q0 -6 -3 -16t-3 -15v-10q2 -3 2 -8t-5 -16.5t-5 -15.5q-10 -6 -10 -10q0 -3 10 -5v-16q0 -13 -9 -39q-10 -31 -12 -39q-1 -11 -3 -24t-13 -13q5 0 -22 -8q-12 6 -26.5 18
t-27.5 23q0 15 -10 15l-22 -28.5t-40 -28.5q-8 0 -23 2.5t-23 2.5q-153 0 -231 160q-31 63 -31 79t-9 45.5t-9 45.5q0 14 1.5 43.5t1.5 44.5q0 87 26 148.5t89 121.5q43 42 94 45l70 6q60 -38 107 -38q24 0 39 12q4 1 11.5 14.5t20.5 13.5q5 0 15 -2t15 -2q7 0 12 3
q5 -8 6 -19q1 -8 0 -21q-1 -16 -1 -21q0 -6 2 -19.5t2 -20.5q0 -8 -7.5 -16t-7.5 -13q0 -19 6 -56t6 -55q-82 -10 -86 -10q-12 0 -16 3q-4 9 -13 56q-6 26 -62 45q-46 15 -81 15q-63 0 -102 -42q-27 -30 -27 -47q0 -7 11 -26v-5l-15 -21q-5 -7 -13 -51t-8 -56
q0 -10 11.5 -10t11.5 -69q0 -24 -2 -35q4 -1 32 -58q27 -53 58 -53q5 0 16 8q3 -1 4.5 -10t13 -9t28.5 -6t23 -6q55 0 63 8q2 2 4.5 9t21.5 38q11 20 11 42q0 5 -3 13.5t-3 9.5q0 11 7.5 31.5t7.5 31.5q0 17 -63.5 18.5t-64.5 20.5l-1 63q0 4 10.5 11.5t14.5 7.5q5 0 13 -3
t13 -3q6 0 37 13q10 -1 26 -10q19 -1 26 -1q9 0 26 1.5t26 1.5q4 0 54.5 -9t53.5 -11q16 -6 16 -10v-47z" />
    <glyph glyph-name="H" unicode="H" 
d="M619 631q0 -16 -11.5 -27.5t-11.5 -10.5q0 -3 6 -6.5t6 -5.5q0 -4 -7.5 -6t-12.5 -12q-19 3 -34 3q-17 0 -19 -23q1 19 1 -36q0 -22 -6 -29q7 -158 7 -160q0 -6 -1 -18t-1 -18q0 -20 9 -58.5t9 -58.5q0 -3 -1.5 -8t-1.5 -8q0 -4 2 -8l10 -5q0 -4 -3 -12t-3 -13v-2
q27 0 54 -45v-43q-46 -26 -99 -26q-32 0 -88 8q-64 8 -84 18q-2 0 -13 -8q-36 -26 -178 -26q-129 0 -129 52q0 28 21 52q12 14 39 33q21 14 21 20v115q0 181 -25 325q-6 4 -24.5 8t-22.5 10t-5 18.5t-4 17.5v28q32 17 67 17q166 0 171 -6t5 -17v-36q-1 -26 -1 -36
q-23 -10 -44 -10q-11 0 -18 2q-28 -19 -28 -77q0 -66 106 -66q146 0 174 31q0 12 1 39v40q0 12 -5 23h-3q-7 0 -20 7t-20 7q-14 0 -34 5q-24 7 -24 18q0 10 10.5 31.5t9.5 28.5q82 16 117 16q42 0 81 -10q55 -14 55 -42zM459 233q0 67 -12 89q-70 25 -135 25q-19 0 -50 -5
q-35 -5 -48 -6q-38 -34 -38 -142q0 -34 10 -63q14 -40 41 -40q5 0 16 -1h15t15 2.5t15 2.5q22 0 31.5 -32.5t17.5 -32.5t14.5 22t7.5 22q100 0 100 159z" />
    <glyph glyph-name="I" unicode="I" 
d="M548 72q-3 -21 -7 -42q-7 -30 -22 -30q-3 0 -8.5 2.5t-8.5 2.5q-5 0 -15.5 -2.5t-15.5 -2.5h-326q-57 0 -57 39q0 40 43 49q2 1 80 5q43 3 43 25q0 8 -2.5 23t-2.5 23q0 12 10 37.5t10 39.5q0 4 -1.5 11.5t-1.5 11.5v265q0 16 -39 41q-40 4 -80 7q-48 11 -48 51v39
q17 13 48 13q46 0 137.5 -2t136.5 -2q9 0 26.5 2t26.5 2q24 0 59 -27q-14 -57 -32.5 -73t-76.5 -25h-3q-5 0 -13.5 2t-13.5 2h-1q-22 -15 -22 -64q0 -54 7 -70q0 -7 -1 -23.5t-1 -25.5q0 -18 3 -30q7 -4 7 -8q0 -5 -7 -8l-1 -5q0 -5 3 -15t3 -15q0 -19 -3 -57t-3 -57
q0 -21 21 -42q9 -16 24 -36q19 -14 125 -31z" />
    <glyph glyph-name="J" unicode="J" 
d="M599 645q0 -32 -15 -43q-7 -5 -32 -9q-21 -4 -29 -16q-2 -11 -7 -33q-1 -4 -9 -30q-7 -22 -7 -28t5 -18.5t5 -16.5q0 -10 -6 -27.5t-6 -26.5q0 -7 11 -34v-3q0 -4 -2 -9l-3 3q-2 -4 -2 -12q-3 -146 -22 -221q-37 -141 -135 -141h-140q-39 0 -72 20.5t-44 56.5v23
q0 9 -7 25.5t-7 25.5q0 13 -5 20v27q1 17 1 26t-8.5 23t-8.5 22q0 28 28 44q23 13 53 13q23 -10 60 -31q0 -6 2.5 -18t2.5 -19q0 -6 -15 -17q-1 -5 -1 -9q0 -63 13 -93q19 -47 73 -47q60 0 91 42l5 25l-10 26l16 17q0 10 -8 18q33 54 33 188q0 112 -7 173q-14 10 -23 10
q-45 0 -94 46q-18 16 -18 52q0 20 18 20l134 -3q9 -1 20 6t18 7q20 0 57 -10.5t56 -10.5q2 0 11 4t15 4q15 0 15 -41z" />
    <glyph glyph-name="K" unicode="K" 
d="M607 35q0 -7 -1 -10q-50 -25 -139 -25q-46 0 -99 10q-5 8 -11 26q15 13 40 23q22 9 28 17q11 13 11 45q0 21 -25.5 54.5t-25.5 55.5q0 8 -7 17q-24 5 -38 24q-8 11 -19 42q-24 2 -21 2q-4 0 -22 -21q-22 -26 -22.5 -26.5l-31.5 -31.5q0 -1 -34 -19q-18 -11 -18 -37
q0 -54 18 -81t69 -43q16 -4 46 -16q-35 -41 -142 -41q-49 0 -91 5q-22 2 -43 9l-1 57l13 -1q10 0 37 11.5t27 19.5q0 5 -7 8v38l10 19q0 12 -5 37t-5 37q0 17 6.5 48.5t6.5 47.5q0 5 -3 15t-3 16q0 4 2 13t2 14q0 17 -5 31q-5 5 -5 10q0 20 3 59t3 58q0 12 -35 28t-35 38
q0 2 1.5 4.5t1.5 4.5q0 5 -7 15q1 4 14 26q1 5 11 11.5t16 6.5q2 0 6 -3.5t7 -3.5q6 0 18 2.5t19 2.5q3 0 9.5 -2.5t9.5 -2.5q4 0 9.5 5t9.5 5q17 0 50 1t50 1q14 0 31 -22q4 -27 4 -29q0 -7 -8.5 -19t-16 -16.5t-33.5 -7.5q-20 -2 -30 -17q-1 -7 -7.5 -22.5t-6.5 -29.5
q0 -13 2.5 -38.5t2.5 -37.5q0 -14 -8.5 -40.5t-8.5 -40.5q0 -29 21 -29q35 0 82 80q54 91 79 105q11 6 21 31.5t10 39.5q0 4 -28 12q-31 9 -35 12v5q5 6 16 18v2q0 4 -5 5.5t-6 13.5v8q66 16 135 16q64 0 100 -6t36 -40q0 -5 -9 -33l-89 -14l-124 -175q-1 0 -10 -1.5
t-9 -13.5q0 -18 64 -107q8 -8 16.5 -17t9.5 -21l42 -83q11 -9 14 -20q3 -15 6 -20q12 -18 40 -40q34 -27 43 -37q6 -6 6 -27z" />
    <glyph glyph-name="L" unicode="L" 
d="M591 6q0 -4 -14.5 -10.5t-19.5 -6.5q-6 0 -15.5 5.5t-13.5 5.5q-6 0 -18 -2.5t-18 -2.5h-426q-10 32 -10 42q0 16 9 26l78 29q-1 3 -1 9q0 20 4.5 59.5t4.5 59.5q-6 14 -6 23q0 13 6 23q0 7 7 15.5t7 16.5q0 17 -12 33t-12 18q0 10 9.5 25t9.5 20q0 15 -8 41.5t-8 35.5
v78q0 35 -46 47q-20 2 -39.5 4.5t-19.5 30.5q0 30 4 36q3 3 30 21h24q23 0 67.5 -6.5t66.5 -6.5q18 0 54.5 6t55.5 6q20 0 29 -5q3 -14 3 -34q0 -12 -14 -29t-14 -28q0 -6 -9 -14q-10 0 -29 -5t-29 -5t-15 3l-20 -21q-7 -7 -7 -247q0 -34 24 -90l-6 -86q8 -17 17 -34
q11 -20 29 -20q11 0 33.5 7t33.5 7q23 0 42 -14q29 0 65 15q43 17 43 42q0 19 -5.5 57t-5.5 57q0 2 6 14t6 18q0 3 20 18t25 15q18 0 23 -7l1 -5q0 -3 -1.5 -7.5t-1.5 -7.5q0 -6 3 -18.5t3 -19.5v-115q0 -17 -10 -30z" />
    <glyph glyph-name="M" unicode="M" 
d="M631 56q0 -40 -46 -51q-17 -4 -78 -4q-76 0 -76 37q0 6 1 16.5t1 15.5q8 0 22.5 3.5t22.5 3.5q3 0 9.5 -2.5t10.5 -2.5q14 0 21 29q6 20 6 40q0 17 -2 51.5t-2 52.5v9l6 -5q8 1 13 16q-1 3 -14 10q-5 4 -5 36q0 4 1.5 11.5t1.5 12.5q0 15 -7 35q-10 24 -22 24
q-9 0 -17 -15q-6 -11 -11 -22q-2 -3 -21 -20q-4 -4 -39 -47q1 -12 1 -28q0 -53 -14 -78v-1q0 -2 -12.5 -8.5t-12.5 -13.5q0 -5 3 -15.5t3 -16.5q0 -20 -4 -27q-6 -10 -31 -10h-12q-18 0 -23 33q-1 6 -7 25q-5 16 -5 26q0 4 1.5 10t2.5 9q-33 67 -100 199h-16q-25 0 -25 -16
v-264q0 -14 20 -17q32 -3 38 -6q21 -11 21 -43q0 -26 -5 -35q-7 -15 -31 -15q-65 0 -126 17l-20 4q-16 3 -16 8v14q-1 10 -1 15q0 33 14 38q24 9 28 14v427q0 45 -5 57q-7 2 -21 19q-11 23 -11 54q0 11 1 19q18 5 79 5q7 0 19 4t19 4t23 -11t16 -17l-5.5 -9t-5.5 -17
q0 -20 13.5 -57.5t12.5 -57.5q21 -15 27 -44q3 -12 4 -54q16 -16 36 -47l14 -68q13 -36 53 -36q27 0 36 23q5 23 11 45q1 4 11 19q7 12 7 21q0 47 10 44q11 7 12 12q1 1 2 17t11.5 47t11.5 49q7 8 7 38q0 16 8 41q10 30 12 41q11 15 37 15q81 0 99 -28q-8 -17 -28 -80
q-20 -66 -20 -80v-14q1 -10 1 -15q0 -6 -5 -7q-8 -2 -8 -3l3 -3v-7q4 -20 4 -55q12 -10 12 -27q0 -7 -4 -20t-4 -20q0 -3 5 -9.5t5 -13.5q0 -4 -2 -9v-2q0 -24 5 -71.5t5 -71.5q0 -8 -1 -22.5t-1 -21.5q0 -20 21 -26t21 -29z" />
    <glyph glyph-name="N" unicode="N" 
d="M609 611q-2 -4 -21 -18t-23 -28q-3 -9 -3.5 -27.5t-6.5 -31.5q-10 -20 -10 -95q0 -4 -8 -10t-9 -7q3 -10 13 -6l2 -2q0 -9 -3 -25t-3 -24q0 -7 6 -5q0 -18 -5 -30l-2 3q-1 -4 -1 -10q0 -11 3 -33t3 -33q0 -7 -3 -21.5t-3 -21.5q0 5 3 -31t3 -117q0 -41 -25 -41
q-30 0 -42 25q-21 45 -22 46t-10.5 4t-9.5 5q0 4 2.5 11t2.5 11q0 15 -10 30q-12 19 -14 26q-7 21 -42 88q-5 10 -24 24q-14 10 -20 42.5t-27 56t-43 47.5q-7 15 -26 43q-2 1 -8.5 7t-8.5 6q-19 0 -19 -53l-1 -319q0 -4 9 -11.5t13 -7.5t12 1t12 1t22.5 -9t21 -12.5
t2.5 -12.5q0 -25 -20 -41q-182 -15 -205 -15q-36 0 -36 31q0 30 9 39q4 5 23 8.5t32 13.5q26 21 32 102v117q0 22 2.5 66t2.5 66q0 13 -7 38t-7 39q0 3 10.5 5t10.5 6t-21 30l-7 49l-81 22q-6 7 -6 23q0 32 7 39q4 -1 14 -8t18 -7q7 0 7 9t4.5 10.5t19.5 1.5q48 0 64 -1
q8 -1 24 -6.5t25 -5.5q4 0 11.5 2t11.5 2q5 0 5 -10q0 -4 2 -38q2 -25 0 -37q33 -37 40 -62q2 -10 18 -21q13 -10 13 -29q0 -3 3 -7q14 -23 39 -78q15 -14 33 -46q13 -16 28 -49q17 -36 28 -50l26 -37q7 1 12 11l1 32q0 22 -1.5 64.5t-1.5 62.5q0 18 2 22q11 110 11 112
q0 14 -11 38q-30 22 -60 45q-43 34 -43 53q0 20 6 22q25 10 145 10h66q24 -10 24 -15v-63z" />
    <glyph glyph-name="O" unicode="O" 
d="M578 329q0 -141 -62 -231q-72 -103 -207 -103q-106 0 -162 79q-18 25 -42 64q-5 19 -17 56q-29 31 -29 145q0 162 90 290q35 51 90 70q42 15 115 15q52 0 158 -109q6 -23 29 -67t28 -71q9 -49 9 -138zM498 377q0 32 -18 94q-18 66 -35 85q-24 26 -49 44q-14 11 -21 11
q-87 0 -119 -4q-106 -14 -106 -258q0 -49 21 -112q20 -59 49 -104.5t83 -45.5q45 0 125 32q1 3 17 49q11 31 27 41l16 113q10 17 10 55z" />
    <glyph glyph-name="P" unicode="P" 
d="M596 497q0 -48 -20 -66q-11 -11 -13 -21q-1 -16 -4 -22q-17 -39 -54 -62q-37 -18 -75 -37q-5 0 -14.5 -2t-14.5 -2q-9 0 -28 8t-32 8q-93 0 -93 -78q0 2 5 -17q-6 -6 -6 -15l5 -15q-9 -29 -9 -39q0 -24 23 -30q109 -30 109 -52q0 -65 -64 -65h-82q-44 0 -173 15
q-11 7 -11 29q0 40 27 47l38 6q5 4 21 27t19 68q1 11 1 75q0 38 -8 60q-9 26 -9 32q0 10 5 30t5 30v109q-9 29 -20 62q-2 7 -25 7q-2 0 -7 -1t-8 -1q-16 0 -26 17t-10 34q0 32 16 54q163 4 159 4q26 0 77 3t77 3q35 0 49 -2q74 -7 122 -66t48 -135zM503 525q0 30 -17 40
t-36 20q-23 16 -33 16q-13 0 -25 9t-19 9q-4 0 -11 -1h-11q-5 0 -15 3t-15 3q-6 0 -11 -2l-5 -5q-15 3 -10 3q-4 0 -33.5 -10t-34.5 -12l-5 -85q0 5 3 -16q0 -1 2 -57h3q6 0 8 -5q-1 -8 12 -26l29 -20q4 0 11.5 2t11.5 2q5 0 13 -5t44 -5q144 0 144 142z" />
    <glyph glyph-name="Q" unicode="Q" 
d="M585 -37q0 -75 -61 -75q-8 0 -33 16q-18 5 -52 20q-13 9 -20 35q-15 8 -42 26q-6 5 -9 20q-3 12 -5 12q-5 0 -30 -30q-4 0 -8 5.5t-5 6.5q-7 4 -22 5q-11 1 -28 0q-22 -1 -24 -1q-4 1 -10.5 4.5t-21.5 13.5q-14 5 -39 18q-124 153 -124 275q0 124 46 284q13 47 119 115
q15 10 26 10q21 0 56 -5q44 -6 56 -7q42 -4 79.5 -30.5t55.5 -64.5q6 -16 21 -46q19 -27 24 -47q4 -26 9 -51q11 -56 11 -103q0 -64 -21 -104q-4 -8 -4 -32q0 -13 -13 -32t-13 -32q0 -36 -9 -40q-20 -8 -24 -14v-21q0 -12 9 -43q9 -34 17 -37l71 -27q14 -5 16 -7.5t2 -16.5z
M477 299q0 3 -5 7.5t-5 12.5q-5 5 -5 11t8 11q0 77 -25 121q-21 37 -21 65q0 -3 4 62q-13 15 -32 32q-44 13 -86 12h-11q-122 -52 -135 -138q-1 -10 -8.5 -18.5t-13.5 -47.5q-4 -32 -4 -51q0 -33 11 -83q6 -3 12 -23q8 -27 8 -28q6 -11 19 -31q3 13 10 37q10 0 29 5.5
t29 5.5q2 0 7 -1h7q3 0 8.5 4t9.5 4t8 -4l40 -8q3 -1 31 -31q1 -1 19 -25q15 -20 17 -20q7 0 33 40q29 45 34 50q7 28 7 29zM340 97v15q-28 39 -61 88q-70 -13 -70 -51l17 -16l-2 -4q1 -14 36 -26q31 -10 49 -10q31 0 31 4z" />
    <glyph glyph-name="R" unicode="R" 
d="M627 71q0 -16 -7 -37q-8 -28 -19 -28h-73q-9 -10 -22 -10q-10 0 -21 11t-17 11l-7 -1q-14 -14 -58 -14q-29 0 -29 13q0 8 7.5 25.5t8.5 25.5q4 2 22 2t18 12q0 14 -44 127l10 9l-19 7q-5 13 -50.5 64t-56.5 56h-23q-23 0 -31 -8.5t-7 -32.5q-4 -8 -4 -17q0 -4 1 -11.5
t1 -11.5q0 -8 -3 -22t-3 -22q0 -4 6.5 -19.5t6.5 -26.5q0 -7 -1 -20t-1 -19q0 -28 17 -40q34 -8 51 -14q30 -10 46 -23q2 -13 2 -22q0 -20 -28 -37q-36 -2 -42 -2q-32 0 -97.5 8t-99.5 7q-10 49 -10 46q0 9 7 19q56 28 56 69q0 15 -5.5 43.5t-5.5 42.5q-5 161 -5 335
q0 15 -22 44q-5 5 -29 19q-14 8 -14 30q0 19 9.5 34.5t26.5 15.5q12 0 26 -14q10 1 29.5 6.5t30.5 4.5l183 -2q3 -3 13 -3q6 0 18 1t18 1q14 0 25 -8t18 -10q43 -11 50 -15q19 -10 33 -42q28 -63 28 -65q0 -75 -19 -105q-12 -12 -33.5 -37t-48.5 -48q-18 -6 -46 -17
q1 -7 31.5 -44t30.5 -47.5t17.5 -34t17.5 -36.5q0 -2 -1 -8v-8q0 -22 29 -57t50 -35q5 0 15 2.5t16 2.5q5 0 16 -7.5t11 -12.5zM446 542q0 41 -52 62q-19 8 -93 8q-81 0 -109 -11q-6 -26 -6 -51q0 -32 6 -99q3 -8 6.5 -14.5t24.5 -6.5q13 0 39 5t39 5q5 0 14.5 -2t14.5 -2
q15 0 24 13q14 2 29 3.5t26.5 11t24 36t12.5 42.5z" />
    <glyph glyph-name="S" unicode="S" 
d="M556 172q0 -64 -60.5 -123.5t-125.5 -59.5h-19q-13 0 -36 8q-27 10 -35.5 11.5t-37.5 1.5q-9 0 -24.5 7.5t-24.5 7.5q-5 0 -13.5 -17t-10.5 -19h-67l2 184q1 31 15 57q17 33 45 33q31 0 38 -22.5t13 -45.5q6 -5 6 -11q0 -2 -3 -5.5t-3 -5.5q0 -6 6.5 -18t3.5 -20l1 -2
q31 -36 121 -36q49 0 61 5q47 20 47 52v52q-11 9 -21 27q-14 27 -16 30q-5 7 -19 13t-18 13q-22 1 -82 21q-208 66 -208 248q0 62 29 93q24 28 86 47q26 8 35 8q11 0 20 -7t11 -7q8 0 17 12q90 -28 108 -28q10 0 17 13q9 19 16 25q15 13 46 13q26 0 26 -12q0 -7 -5.5 -21
t-5.5 -21v-66q-1 -44 -1 -66q0 -5 2 -13.5t2 -13.5q0 -34 -6 -43q-9 -12 -41 -11h-23q-20 20 -20 30q0 5 8 11.5t8 10.5q0 7 -9 16l-13 15q-38 57 -109 57q-73 0 -73 -83q0 -58 47 -83q88 -47 114 -52q9 -1 28 -2q30 -3 42 -12l28 -32q11 -7 31 -20q21 -16 36 -67
q14 -44 14 -77z" />
    <glyph glyph-name="T" unicode="T" 
d="M514 464q0 -10 -23.5 -23.5t-35.5 -13.5q-15 0 -28 16q0 19 -2 56q-13 14 -13 21q0 2 3.5 3.5t3.5 5.5q0 18 -12 34t-30 16q-27 0 -52 -46l-1 -31q0 -38 14 -63q-7 -16 -7 -29q0 -4 1.5 -12t1.5 -12q0 -5 -4 -9v-32q0 -39 9 -64q-11 0 -11 -13q10 -5 10 -17
q0 -6 -1.5 -19t-1.5 -19q0 -13 2 -34q2 -27 2 -34q1 -14 2 -18q3 -7 11 -14q18 -13 49 -26q38 -16 49 -23q11 -17 11 -29q0 -11 -9 -28q0 -8 -13 -13.5t-23 -5.5h-63q-124 0 -191 15q-32 7 -32 28q0 5 4 22q13 14 43.5 30.5t42.5 26.5q21 18 24 56q11 175 11 270
q0 175 -36 175l-27 -16q-5 2 -8 8q-7 -1 -20 -6q-17 -11 -17 -83q0 -38 -12.5 -55.5t-19.5 -17.5q-32 0 -45 27q-8 17 -8 137q0 16 12.5 34.5t27.5 22.5q65 13 194 13h88q85 0 105 -34q9 -16 16 -105q1 -9 5 -36q4 -22 4 -36z" />
    <glyph glyph-name="U" unicode="U" 
d="M606 673q0 -21 -30 -39t-30 -62q0 -7 1 -20.5t1 -20.5q0 -60 -10 -317q-5 -129 -120 -202q-27 -17 -81 -17q-31 0 -64 7l-26 6q-1 0 -4.5 -1t-5.5 -1q-7 0 -32.5 15t-29.5 22q-15 31 -51 90q-7 7 -17 24q-1 5 -1 11q0 1 1 3l3 -1l1 6q0 14 -7.5 40t-7.5 40q0 27 6 36
q1 32 1 65q0 126 -16 215q-7 36 -25 52q-16 9 -31 17.5t-15 28.5q0 4 4.5 13.5t5.5 12.5h5q5 1 13.5 -3t12.5 -4q3 0 20 6t28 6q20 0 113 -5q42 -2 42 -23q0 -35 -29 -30q-12 -8 -24 -15q-16 -10 -16 -22q0 -7 4 -13q-7 -15 -7 -99q0 -4 -7 -10t-7 -10q0 -5 4 -10l-1 -28
q-1 -83 18 -186q1 -7 6 -20q0 -6 -12 -10q0 -5 3 -16l-3 -7q0 -5 8 -5.5t8 -2.5q0 -22 11 -37q36 -48 47 -48q41 0 38 0q7 13 14 13q5 0 10 -9t7 -9q9 0 23 10t20 10q3 0 6.5 -1.5t5.5 -1.5q13 0 21 18q10 1 10 -6q37 39 37 71q-5 7 -11 20q11 4 11 8q0 3 -2 9t-2 9
q0 1 9 31q5 19 5 52q0 60 -10 166q-6 11 -6 21l9 6l1 3q0 5 -4 10q0 6 3 27q-1 6 -10 25q-7 16 -7 24l-63 23q-5 2 -14 23t-9 28q0 8 1 12q45 7 46 7l188 -5q16 0 16 -25z" />
    <glyph glyph-name="V" unicode="V" 
d="M594 661q0 -54 -56 -65q-13 -17 -26 -55q-10 -29 -20 -59v-2q0 -4 -4.5 -11.5t-4.5 -12.5q0 -3 2 -7.5t2 -5.5l-6 -18q-8 -32 -16 -65q-12 -42 -27 -59q-1 -11 -1 -31q0 -33 -16 -62q-20 -34 -23 -53q-6 -31 -29 -121q-6 -23 -21 -31q-11 -5 -38 -5q-19 0 -23.5 16.5
t-8.5 32.5q-10 24 -24 73q-9 11 -15 48q-3 27 -7 54q-9 20 -25 62q-1 3 -1 39q0 17 -4 23q-10 20 -27 63q-15 51 -52 130q-48 103 -74 103q-3 0 -3 -1t-3 -1l-1 2q0 47 4 57l43 1q-18 -1 138 -4q21 0 62 -2l3 -3q0 -2 -1.5 -7t-1.5 -8q0 -4 3 -11t4 -10l-1 -2
q-79 -50 -79 -73q0 -15 30 -69.5t30 -76.5q0 -3 -4 -6t-4 -6q0 -2 17 -62q18 -64 20 -75q5 -26 21 -26q23 0 31 31q1 5 9 24q6 14 6 24q0 4 -1.5 12.5t-1.5 12.5q0 12 19 20q0 18 5 52q2 6 10 22q6 11 6 29t12.5 38t12.5 93q0 6 -30 20.5t-31 22.5q1 2 17 33q129 6 130 6
q12 0 34 -6t34 -6q6 0 6 -26z" />
    <glyph glyph-name="W" unicode="W" 
d="M627 667q1 -58 -26 -65q-15 -4 -15 -10q0 -5 2.5 -13.5t2.5 -12.5q0 -30 -16 -79q-12 -39 -25 -78q-2 -11 -5 -35q-1 -3 -11 -48q-6 -29 -6 -49q0 -4 -34 -85q11 -14 11 -42q0 -5 -4.5 -8t-8.5 -6l4 -89q-12 -24 -16 -28q-9 -11 -29 -11q-5 0 -15 -4t-15 -4l-2 1
q-5 12 -6 136v9l-14 62q-21 16 -21 42q0 5 3 8l8 -2q0 2 1 5q0 4 -13 8t-13 7l-3 54q-3 -1 -6 -7.5t-5 -6.5q-5 0 -17 6q-5 -5 -15 -14l-35 -106q-1 -2 -6.5 -14.5t-5.5 -17.5q0 -4 3 -11t3 -11q0 -32 -12 -78q-11 -38 -22 -75l-6 -5h-46l-55 288q-3 18 -24 74
q-16 45 -16 75q0 2 2.5 4.5t2.5 4.5q0 5 -2.5 12.5t-2.5 11.5q0 13 -7.5 32.5t-7.5 39.5v10q-9 19 -31 56q-11 16 -35 20q-9 2 -9 5v35q0 9 33 20.5t45 11.5q14 0 40.5 -6t40.5 -6q6 0 17 5q21 -6 26 -6q11 0 22 7q2 -4 2 -9q0 -7 -3.5 -22t-3.5 -22q0 -9 3 -19
q-4 -2 -33 -12q-22 -8 -29 -18v-79q0 -29 8 -81q9 -57 18 -79q5 -6 13 -19q0 -1 6 -22q5 -15 12 -15q2 0 11 27.5t13 30.5q20 35 20 45q0 8 -4 46q25 53 25 66q0 30 0 29q0 6 -3 16t-3 16q0 4 12 18.5t13 18.5q3 15 9 44q8 1 25 4q12 -3 35 -67q6 -15 6 -46q0 -16 6.5 -46
t6.5 -46q0 -12 -4 -17q25 -1 25 -11q0 -4 -1.5 -11.5t-1.5 -11.5l1 -8q3 -5 20 -45q14 -36 21 -36q14 0 21 44q5 29 9 57q13 40 19 109l13 13l1 5q0 3 -4 9.5t-4 10.5l1 37q0 19 -4 29q-23 -2 -35 -2q-27 0 -37.5 12t-15.5 41l-3 1l7 14q39 7 84 7q72 0 120 -20v-3z" />
    <glyph glyph-name="X" unicode="X" 
d="M663 29q0 -8 -20 -31q-34 0 -103 3.5t-104 3.5q-9 0 -27.5 -3.5t-28.5 -3.5q-7 0 -16 9t-14 9q-25 0 -74 -13t-74 -13q-30 0 -81 10q-60 11 -74 25q3 7 11 18q-1 3 -4 9.5t-3 10.5q0 16 34 35q25 12 49 23q15 9 19 26q6 23 11 30q27 27 74 87q1 24 22 64t21 44
q-5 6 -5 15q0 8 9 27q-76 98 -109 161q-6 4 -26 5q-16 1 -32 19l-29 9q-4 0 -17 22.5t-13 27.5q0 6 6 14.5t7 11.5l242 1q5 -15 5 -27l48 11q14 10 21 22l213 -7q16 -1 16 -31t-30 -43q-26 -9 -53 -19q-6 -3 -22 -6q-10 -1 -24 -15t-25 -59q-15 -54 -19 -64q-9 -16 -17 -32
q-13 -24 -13 -29q0 -7 23 -40t23 -40q0 -3 -1 -7.5t-1 -6.5q0 -19 8 -28l83 -93q7 -8 22 -57q12 -41 30 -44.5t52 -8.5q10 -20 10 -32zM400 582q0 58 -26 82q-43 -10 -49 -9l-10 -1q-9 -12 -9 -38q0 -9 -10.5 -19t-10.5 -18q0 -26 21 -61q19 -31 41 -49q4 1 9 20q4 12 7 24
q14 36 37 69zM467 81q0 6 -17 32t-20 47q-56 90 -98 122q-17 -17 -33 -34q-18 -20 -24 -41q-10 -37 -27 -82q-7 -7 -13.5 -14.5t-6.5 -18.5q0 -18 36 -22q7 -1 49 -1q38 0 38 -19q0 -5 -2 -19q4 -2 13 -13t14 -11q1 0 3 1l20 49h1q3 0 8.5 1t7.5 1q32 -14 34 -14q17 0 17 36
z" />
    <glyph glyph-name="Y" unicode="Y" 
d="M587 674q0 -3 -1.5 -7.5t-1.5 -7.5q0 -31 -34 -53q-45 -30 -54 -42q-5 -14 -19 -40q-13 -9 -28 -23q-11 -31 -41 -93q-8 -52 -16 -83q-3 -15 -19 -45q-12 -22 -12 -56q0 -77 6 -106q3 -12 54 -37q57 -28 64 -34.5t7 -20.5q0 -12 -12 -19.5t-25 -7.5h-308q0 8 -1.5 24
t-1.5 24q0 25 35 33q28 6 55 12q39 20 47 55q3 13 3 76q0 32 -10 57t-22 50q-7 21 -26 61q-19 30 -51 90q0 1 -1 3q0 3 4 8.5t4 8.5q0 10 -12 8l-3 2q-7 17 -14 35q-11 24 -20 29q-15 8 -45.5 14.5t-40.5 16.5q-17 15 -17 50q0 5 -1.5 14t-1.5 13q0 19 36 19q13 0 37 -4
q30 -4 38 -5q1 -1 6 -7.5t8 -6.5q4 0 5 6.5t2 7.5q5 4 16 5q9 -5 15 -5q9 5 16 5q9 -12 15 -12q3 0 6 12q50 -9 53 -10q10 -8 10 -53v3h40q2 0 8.5 22.5t8.5 22.5q2 1 6 0q5 -1 6 -1q13 0 34.5 9.5t32.5 9.5q5 0 8 -2t7.5 -8.5t8.5 -6.5q9 0 15 14q71 -16 83 -16q6 0 16 3
t15 3q8 -7 8 -14zM404 562q0 31 -18.5 50.5t-49.5 19.5h-83q-13 -12 -14.5 -16t-1.5 -22q0 -35 6 -50q13 -32 40 -76q35 -57 51 -58q4 13 13 35l34 58q23 42 23 59z" />
    <glyph glyph-name="Z" unicode="Z" 
d="M528 215q0 -14 -13 -40t-13 -39q0 -6 4.5 -17t4.5 -18q0 -9 -7 -26t-7 -27q0 -8 4 -22t4 -20q-9 -9 -22 -9q-5 0 -15.5 1.5t-15.5 1.5q-25 0 -74.5 -2.5t-74.5 -2.5q-14 0 -43.5 2.5t-43.5 2.5t-39.5 -2t-38.5 -2q-29 0 -56 4q-15 10 -15 31q0 45 31 65l1 3l-2 4
q2 8 11 16v5q9 17 36.5 45.5t36.5 47.5q18 37 55 92q46 68 59 90q64 110 64 132q0 5 -10 13q9 15 9 27q0 19 -28 19q-5 0 -14.5 -3t-14.5 -3q-8 0 -21 8h-1l-6 -10l-9 10l-7 2q-3 0 -9 -4.5t-10 -4.5t-12 2t-12 2q-39 0 -47 -44q-3 -41 -5 -82q-5 -44 -35 -44q-23 0 -36 43
q-9 31 -9 61v114q6 7 26.5 16.5t30.5 9.5h265q-9 0 93 -1l3 -7q0 -43 -22 -79q-32 -52 -38 -68q-1 -13 -9 -37q-10 -10 -27 -31q-12 -29 -42 -83q-25 -33 -75 -100l-1 -2q0 -7 5 -9q-1 -8 -32 -50t-32 -57l3 -6v-17q-3 -6 -8 -18v-3q0 -18 26 -18h161q13 0 13 19q0 10 -3 23
l1 1l-3 12l5 3l-4 3v2q6 8 6 20q0 6 -4 18.5t-4 18.5q0 4 16 4q6 0 4 4v6q30 16 48 16q44 0 44 -12z" />
    <glyph glyph-name="bracketleft" unicode="[" 
d="M378 756h-4v5l4 -3v-2zM344 758h-6v3h3zM256 715l-3 -3h-5v2l3 3h5v-2zM509 719q-6 -2 -9 -5v-2q5 0 8 -4v-1h-15q-11 -20 -24 -20l-7 5h-4l-7 -4l-10 2l-8 -5h-2l-7 5l-10 -2l-8 5h-3l-7 -5l-5 5l-13 -6q-5 2 -10 3q-6 -3 -12 -3q0 5 -3 8h-2l-7 -5h-14q-2 -3 -6 -5
l-2 2q-1 -7 -3 -16q4 -5 5 -9q-8 -9 -8 -15q0 -2 2 -9l10 7l2 -7q-14 -10 -14 -38q-2 -2 -2 -8q0 -10 4 -31q-7 -16 -7 -52q0 -32 5 -80q-2 -6 -9 -11l7 -16l-2 -8q0 -13 3.5 -37t3.5 -36q0 -14 -4.5 -40t-4.5 -39q4 -13 10 -31l-7 -21l1 -3l6 -8q-6 -26 -6 -32q0 -1 8 -24
q-9 -6 -4 -43q-4 -4 -4 -9l1 -6l4 2q3 -2 4 -8l-9 -11q4 -16 5 -46q6 0 12 -4q18 1 26 6l16 -6q5 0 24 4q5 -5 22 -6l2 -2h3l7 6h5l7 -6l5 2q5 -3 13 -3l6 7h6l-2 -9h3q9 0 13 -5l-1 -10q10 -2 20 -9q-7 -2 -10 -5v-2q6 0 8 -3v-2h-15q-10 -20 -23 -20l-7 5h-5l-6 -3l-10 1
l-9 -5h-1l-7 5l-10 -1l-8 4h-4l-6 -4l-5 4l-13 -6q-5 2 -11 3q-5 -3 -11 -3q0 5 -4 8h-1l-7 -5h-15q-2 -3 -5 -5q-4 3 -8 8l-9 -4h-3q-3 3 -8 3q-5 -12 -11 -16q-16 6 -32 34v2h-6v2l4 3h2q-1 9 -1 16q0 22 5 37l-9 38q9 7 10 65l-5 16q5 9 5 20q0 8 -8 27q10 21 10 45
q0 16 -5 32l-2 -1l-3 5q16 70 9 137q6 5 6 22q0 15 -4 41q3 7 3 14q-1 4 -4 9q-4 -5 -12 -12q-3 12 -3 19q0 12 9 21.5t9 16.5l-4 7q-3 -2 -10 -7l-1 -5l-7 -1l-1 4q5 14 5 27q0 8 -2 17q2 6 2 13t-8 39q13 11 16 36l12 8q-3 12 -3 22q0 11 3 20q-3 6 -8 13v2h3l6 -4h1
q2 16 5 27h12l9 5l7 -5l11 2q3 -2 8 -3q2 2 5 4h2q5 0 12 -4q17 1 26 6l15 -6q5 0 25 4q4 -5 21 -6l2 -2h4l6 5h5l7 -5l5 2q6 -3 13 -3l7 6h5l-1 -8h3q8 0 13 -5l-2 -10q10 -3 20 -9zM347 94l-7 -4h-3v4q0 7 7 7zM375 4h-4v5l4 -3v-2zM341 6h-6v3h3z" />
    <glyph glyph-name="backslash" unicode="\" 
d="M529 -152q0 -34 -41 -34q-29 0 -42 15q-7 8 -10.5 26t-8.5 24q-16 11 -38 33q-12 33 -41 98q-4 7 -11 26q-16 43 -56 115q-43 79 -58 113t-49 79q-49 66 -55 76q-14 21 -24 57q-17 57 -18 61q-4 12 -108 162q-15 22 -15 54v14q1 0 4 1q8 0 23 -4t23 -4q9 0 12 8.5t10 8.5
q21 0 31 -20l227 -444l1 1q22 -15 39 -40q18 -29 16 -52l132 -242q57 -105 57 -132z" />
    <glyph glyph-name="bracketright" unicode="]" 
d="M290 676h-3l-3 3l6 1v-4zM254 676l-4 3v2h4v-5zM289 592q0 -7 -6 -7l-4 6l7 4h3v-3zM402 60q-12 -11 -15 -36l-12 -9q3 -11 3 -21q0 -11 -3 -20q4 -6 9 -13v-1h-3l-6 3h-1q-2 -16 -4 -27h-12l-8 -5l-9 4l-10 -2l-8 4l-5 -5h-2q-6 0 -12 5q-17 -3 -26 -8l-15 7
q-5 0 -25 -6q-5 5 -22 7l-2 1h-3l-6 -5h-6l-7 4l-5 -1q-5 3 -13 3l-6 -7h-5l1 8h-3q-9 0 -14 5l2 11q-10 1 -20 7q6 2 10 6v1q-6 0 -9 4v2h15q11 20 23 21l7 -6l5 1q5 3 17 2l8 5h1l7 -5l10 2l8 -5h4l6 5q3 -2 6 -5l13 7q5 -2 10 -3q5 4 11 4q1 -6 4 -9h2l6 5l15 1q1 2 5 5
l3 -2q0 7 2 15q-4 5 -5 9q7 10 7 16q0 2 -2 9l-9 -7l-2 6q15 12 15 46q0 10 -5 32q6 15 6 44q0 34 -7 88q2 6 9 11l-6 16l1 7q0 13 -4.5 37.5t-4.5 36.5q0 13 4 39t4 39q0 3 -4.5 16.5t-5.5 15.5l6 21l-1 4l-6 7q6 25 6 32q0 1 -9 24q5 4 5 19q0 10 -2 24q4 4 4 9l-1 6
l-4 -2q-4 2 -4 8l8 11q-5 17 -6 45q-5 1 -12 5q-26 -3 -25 -7l-16 7q-5 -1 -25 -6q-4 5 -22 6l-1 2h-4l-6 -5h-6l-6 4l-5 -1q-6 3 -10 3l-3 -1l-7 -6h-5l2 8q-13 0 -15 2t-1 14q-10 1 -20 7q7 2 10 6v1q-6 0 -8 4v1l14 1q11 20 24 21l6 -6h5l7 4l10 -2l8 5h2l7 -4l10 2l8 -5
h3l7 5l5 -5l13 7q5 -2 10 -3q6 3 12 3q0 -5 3 -8h2l7 5l14 1q2 2 6 4q3 -2 8 -7l8 5h4q2 -3 8 -3q4 11 10 16q8 -3 20.5 -16t12.5 -20h6v-1l-4 -4h-1q1 -9 1 -17q0 -22 -5 -36l10 -38q-9 -7 -10 -65l7 -16q-6 -9 -6 -19q0 -8 9 -28q-9 -20 -9 -42q0 -17 5 -35l3 1l3 -5
q-10 -46 -10 -91q0 -24 3 -46q-6 -5 -6 -21q0 -15 5 -42q-3 -7 -3 -14q2 -4 5 -9q4 6 12 12q3 -27 3 -20q0 -11 -8.5 -20.5t-8.5 -16.5q0 -6 3 -7l11 7l1 5l7 1l1 -4q-5 -13 -5 -26q0 -9 2 -17q-2 -6 -2 -12q0 -8 9 -41zM390 -26l-3 -4h-5v2l3 3h5v-1zM301 -76h-3l-4 3l7 1
v-4zM265 -76l-4 3v2h4v-5z" />
    <glyph glyph-name="asciicircum" unicode="^" 
d="M462 607q-3 -19 -22 -28q-31 13 -70 39q-33 22 -67 45q-33 -23 -67 -45q-40 -26 -70 -39q-19 9 -23 29q121 140 159 140q39 0 160 -141z" />
    <glyph glyph-name="underscore" unicode="_" 
d="M497 -132q0 -11 -5 -26q-9 -23 -10 -25q-118 -3 -119 -3q-59 0 -176 1t-176 1q-17 0 -19 24q0 -5 0 39v13l1 32q44 1 416 1q27 0 48.5 -2.5t27.5 -5.5q11 -6 11 -26v-11q1 -8 1 -12z" />
    <glyph glyph-name="grave" unicode="`" 
d="M409 618q-5 -18 -26 -26q-52 17 -105 34q-61 21 -101 45l-9 48q4 11 26 19q19 8 32 8q43 0 183 -128z" />
    <glyph glyph-name="a" unicode="a" 
d="M588 113q0 -11 -1 -32t-1 -31q0 -28 -55 -44q-40 -12 -79 -12q-28 0 -37 8q-4 3 -8.5 17.5t-8.5 14.5q-5 0 -17 -11q-16 -14 -17 -15q-13 -8 -50 -16.5t-55 -8.5q-81 0 -134 36q-61 42 -61 119q0 13 7 34q7 16 13 33q20 60 93 81q21 6 124 18q62 7 62 33q0 6 -4 16t-4 16
q0 7 3 14q-14 42 -45 42q-22 0 -69 -17t-57 -33q-22 -8 -46 -8q-30 0 -51 10v15q-1 30 8.5 45.5t34.5 28.5q75 41 94 41q3 0 8.5 -2t7.5 -2q9 0 26.5 5.5t26.5 5.5q60 0 98 -30q33 -27 60 -86q7 -16 16 -52l4 -59l-8 -9l4 -10l-12 -10q1 -9 15 -15q2 -146 53 -146q3 0 16 23
t19 23q27 0 27 -30zM381 215q0 15 -17 28t-33 13q-5 -6 -17 -7q-8 -1 -22 0q-17 2 -19 2q-5 0 -16 -11q-4 -5 -22 -10.5t-27 -15.5q-13 -16 -42 -46q-8 -8 -8 -24v-21q0 -28 40 -50q34 -20 64 -20q39 0 61 15q13 10 41 48q11 13 11 44q5 3 5 10l-1 8l-10 11q1 8 11 20z" />
    <glyph glyph-name="b" unicode="b" 
d="M555 251q0 -25 -11 -41q-13 -19 -15 -29l-6 -54q-4 -31 -20 -50q-42 -50 -85 -69t-111 -19q-17 0 -23 5q-49 2 -97 4q-71 5 -88 17q2 9 4 26q11 84 11 172v41q0 10 -5.5 30.5t-5.5 30.5t5.5 30.5t5.5 30.5q0 6 -5 12q-1 15 -1 29q0 13 3 39t3 39q0 84 -37 102
q-16 5 -32 11q-19 8 -19 25q0 4 -8 18t-8 27q0 7 4.5 19t4.5 18q0 10 38 10q53 0 128 -12q3 -28 3 -32q0 -7 -7.5 -17.5t-7.5 -16.5q0 -10 8 -7l2 -4q0 -8 -1 -24t-1 -24q0 -19 6 -59q8 -48 16 -48q4 0 10.5 2t10.5 2q5 0 9 -3l24 -3q33 37 68 37q44 0 63 -13q23 -21 47 -42
q14 -8 42 -27q78 -62 78 -183zM478 246q0 26 -1 44q-7 6 -27 32t-22 33q-15 18 -24 18q-28 10 -78 46h-5q-4 0 -74 -18q-2 -7 -17 -20.5t-19 -20.5q-15 -35 -15 -88v-60q0 -75 29 -102.5t105 -27.5q11 0 44 6.5t36 10.5l56 92q12 20 12 55z" />
    <glyph glyph-name="c" unicode="c" 
d="M516 366q0 -43 -35 -75q-4 4 -13 4q-5 0 -14.5 -1t-13.5 -1q-12 0 -29 13v14q0 5 3 15.5t3 15.5q0 29 -25 40l-6 -1q-6 0 -29.5 10.5t-26.5 15.5q-1 -1 -57 -11q-31 -7 -48 -31q-6 -16 -21 -48q-10 -19 -10 -69q0 -2 -6 -17.5t-6 -26.5q0 -13 2 -32q17 -24 33 -49
q16 -20 50 -35q25 -10 44 -10q7 0 10 -10l3 2q5 -1 9.5 -9.5t8.5 -9.5q6 7 18 15q6 7 13 7q4 0 9 -2.5t7 -2.5q21 0 37 40.5t17 40.5q53 0 60 -21q-4 -3 -4 -33q0 -13 -10 -22q-12 -12 -15 -19q-13 -32 -44.5 -53.5t-66.5 -21.5h-38q-111 0 -173.5 65.5t-62.5 177.5
q0 73 19 105q11 24 33 71q12 5 20 27q9 26 16.5 33.5t24.5 12.5q22 7 28 11q44 26 83 26q19 0 53 -16q14 -2 40 -11q3 -1 16 -12.5t17.5 -11.5t25 -21.5t23 -21.5t5.5 -8.5t5 -15.5l2 3q16 -10 16 -36z" />
    <glyph glyph-name="d" unicode="d" 
d="M622 17q0 -6 -1 -11q-84 -5 -91 -5q-20 0 -43 15q-39 25 -40 25q-29 0 -45 -11q-28 -19 -36 -22q-11 -4 -37 -11q-1 0 -4 3.5t-5 4.5q-7 -10 -12 -15q-13 0 -29 20q-11 -17 -34 -17q-26 0 -51 16q-37 24 -45 27l-90 109q-1 18 -6 52q-6 20 -6 29q0 36 9 58q2 4 29 50
q18 52 40 107q13 10 42 42q11 12 30 14q-2 0 35 -1q6 11 13 11t13 -9q56 -4 136 -31q1 -5 3 -16q6 3 19 9q4 2 13 19t9 21q0 3 -1.5 8.5t-1.5 7.5q-1 29 -3 58q-4 44 -21 44q-3 0 -8.5 -2t-8.5 -2q-5 0 -17.5 9.5t-20.5 9.5q-5 0 -14.5 -3t-14.5 -3q-3 0 -9 7.5t-12 7.5
q-4 0 -11 -2.5t-11 -2.5q-6 0 -23 7.5t-16 12.5l14 56q32 1 95 5q6 1 25 4q15 4 25 4q7 0 21.5 -3.5t21.5 -3.5q6 0 18 2t19 2q14 0 20 -13t11 -26q12 -54 12 -83q0 -10 -4 -26q-4 -19 -5 -26q0 -33 -9 -98q-10 -36 -10 -42q0 -17 14 -29v-10q1 -23 -12 -54l3 -156
q1 -9 28 -40q23 -27 36 -38q5 3 11 3q19 0 32 -26q11 -21 11 -42zM439 159q-5 11 -14 33q-6 2 -8 6q1 2 15 9l-9 11l2 5q9 5 9 12q0 8 -7 16.5t-7 9.5q0 4 4 8v1q-6 2 -6 6l12 15q-11 4 -11 19q0 36 -55 95l-7 1q-14 0 -45 -4l-29 14q-2 -4 -38 -10.5t-40 -11.5
q-22 -23 -36 -77q-2 -7 -25 -47q-5 -8 -5 -11l2 -88q15 -17 30.5 -33.5t39.5 -27.5q22 -25 57 -25q7 0 20.5 -3t20.5 -3q6 3 18 12q6 -1 10 -1q13 0 20 8q33 2 82 61z" />
    <glyph glyph-name="e" unicode="e" 
d="M521 274q0 -14 -9 -25t-23 -11h-114q-5 4 -10 4q-6 0 -14.5 -5t-13.5 -5t-13 10q-6 -4 -28 -4h-4q-6 -6 -14 -6q-1 0 -11 6q-5 3 -52 3q-8 0 -13.5 6.5t-10.5 6.5q-34 0 -34 -63q0 -60 115 -109q24 -10 81 -10q29 0 40 11q42 41 51 82q6 1 21.5 6t29.5 5q16 0 22 -16
q-5 -8 -17 -35q-9 -22 -21 -32q-16 -19 -52 -52q-73 -51 -171 -51q-95 42 -145 108q-14 30 -35 94q-6 27 -6 81q0 73 15 105q16 10 24 26l16 32q0 2 22 25q30 31 73 41q78 17 98 17q52 0 97 -29.5t66 -76.5q3 -20 14 -56q11 -19 22 -37q4 -10 4 -46zM401 300v114
q0 13 -75 13q-57 0 -111 -13q-7 -2 -42 -77q7 -9 28 -19t33 -10q4 0 8 4.5t7 4.5t25.5 -11.5t25.5 -11.5q2 0 5 1h5q5 0 13 -4t13 -4q4 0 8 2q15 0 33 6.5t24 4.5z" />
    <glyph glyph-name="f" unicode="f" 
d="M613 562q-5 -6 -4 -25l-13 -8q0 -2 2 -6t2 -6q0 -5 -13 -15t-18 -10q-24 0 -40 48q-20 58 -30 68q-5 4 -46 12q-37 7 -49 7q-35 0 -57.5 -25t-22.5 -60q0 -42 10 -67q5 12 51 12q16 0 25 -2q2 -4 9 -4q3 0 8.5 1t8.5 1q4 0 5 -4t2 -4q3 0 3 1t3 1q11 0 11 -31
q0 -8 -1 -11q-7 -3 -32 -23t-27 -20q-5 0 -10 4l-40 -4l-16 10q-10 -15 -10 -31v-224q0 -46 63 -54q8 -1 31 -9q19 -6 31 -5q21 -14 21 -36q0 -28 -25 -37q-7 -2 -48 -6q-112 -10 -227 -10q-8 0 -24 4t-23 4q-4 0 -8 -2q-27 7 -27 49q0 13 2 30q26 6 74 23q11 6 33 16
q11 2 23 5q8 3 8 21q0 10 -1 26q10 1 10 4q0 2 -10 9t-10 12q0 10 5.5 28.5t5.5 28.5q0 4 -2.5 7.5t-2.5 4.5q0 3 8 11.5t8 15.5q0 18 -8 18t-8 57q0 14 -3 29q-11 3 -25 3q-9 0 -27 -1.5t-27 -1.5q-65 0 -65 51q0 31 47 31q9 0 24.5 6.5t21.5 7.5h29q20 0 28 9q3 70 31 128
q34 70 93 86q12 3 44 3q8 0 14 -1q10 -8 16 -11h5q5 4 15 13h2q2 0 5.5 -3.5t6.5 -3.5l15 -4l46 -14q10 -6 34 -35q28 -9 38 -76q9 -5 22 -16z" />
    <glyph glyph-name="g" unicode="g" 
d="M573 -46q0 -55 -68 -92v-15l-3 2l-13 -4q-1 0 -3 1l1 17l-14 -8q0 7 0 -16q0 -6 -35 -15q-31 -7 -44 -8q0 7 -5 11h-7q-32 -17 -83 -17q-90 0 -129 13q-63 21 -90 86q-18 44 -18 86l5 6q4 0 10 4t9.5 6.5t10.5 11.5q-13 3 -13 16q0 27 27 42q11 7 51 19q27 8 27 18
q0 5 -3 15t-3 15q0 17 -23 25q-5 2 -38 9q-6 22 -12 43q-7 28 -7 44q0 28 8 73q10 60 12 73q11 17 36 47q16 7 42 29q3 6 11 16q15 13 71 13q17 0 55 -8q15 -4 15 -6t-1.5 -6t-1.5 -6q0 -1 6 -3t7 -4h3q3 0 8.5 2.5t8.5 2.5q2 0 12.5 -10.5t17.5 -10.5q13 0 24 16
q17 25 25 31q20 17 55 17q20 0 39 -30l-1 2q5 -9 5 -18q0 -24 -46.5 -38.5t-46.5 -20.5l15 -13q6 -2 6 -25q0 -7 4 -23.5t4 -23.5q-20 -48 -18 -81q-5 -9 -15.5 -10t-13.5 -5q-6 -9 -6 -38q0 -6 -48 -28q-36 -16 -95 -16q-15 0 -26 2v-1q0 -4 -1.5 -11.5t-1.5 -10.5
t9.5 -8.5t6.5 -12.5l1 -1q17 0 49.5 11t48.5 11q15 0 31 -7t31 -14q21 -22 29 -27q13 -7 39 -9v-8q-1 -6 14 -22q19 -21 28 -38q15 -30 15 -67zM422 315q0 28 -43.5 69.5t-71.5 41.5q-57 0 -79.5 -21.5t-32.5 -77.5q-3 -18 -3 -19q0 -15 19 -41t34 -26q32 -14 55 -14
q22 0 54 14q20 17 39 35q29 26 29 39zM490 -49q0 14 -8 34q-11 28 -13 33q-6 6 -16 6q-4 17 -11 18l-13 -10q-24 10 -49 19q-30 12 -51 12q-5 0 -29 -1q-2 -16 -17 -16q-8 0 -19 11h-8q-8 0 -24 -11q-3 -2 -22 -12q-9 -5 -19 -19q-24 -36 -24 -67q0 -2 18 -35q27 -47 94 -47
h33q33 0 64 8l31 8q6 0 22 -15q1 1 40 36q21 19 21 48z" />
    <glyph glyph-name="h" unicode="h" 
d="M601 15q0 -5 -12 -9q-38 -11 -136 -11q-47 0 -76 20v21q0 28 16 39q10 6 33 9t29 9q1 23 1 46q0 6 -2.5 17.5t-2.5 17.5q15 3 15 8q0 6 -15 13q10 11 10 19v2q-23 14 -29 45q-2 11 -2 55q0 27 -3 36q-6 4 -16 14q-27 31 -34 36q-18 13 -49 13q-18 0 -30 -21l-40 3
q-8 -10 -21 -21q-14 -4 -16 -30q0 5 0 -40q0 -13 -4 -37t-4 -35.5t-3 -27.5h-1q-9 1 -9 -5q0 -7 2.5 -9.5t5.5 -16.5v-3q0 -5 3 -10q0 -9 -2.5 -25.5t-2.5 -25.5q0 -22 16 -29q34 -15 47 -15q23 0 31 -13q5 -9 5 -34v-10q-40 -15 -52 -15h-218q-7 50 -7 51q0 9 36 27
q24 11 47 22q22 38 22 112q0 36 -6 77l9 52q0 4 -6.5 11t-6.5 11q1 1 24 68q-16 6 -16 32v9q6 6 6 11q-13 21 -15 47q0 -2 0 49q0 20 -3 31q-54 10 -85 28v11q0 28 5 48q2 0 14.5 5t20.5 5q6 0 18.5 -1.5t18.5 -1.5q11 0 31.5 5.5t31.5 5.5q18 0 30.5 -11.5t12.5 -28.5
q0 -31 0 -29q-10 -24 -10 -46q0 -4 3.5 -12t3.5 -12v-26q0 -7 -3.5 -19.5t-3.5 -19.5q0 -14 9.5 -27.5t23.5 -16.5q4 -1 27 -1q4 0 11 13t8 13q6 7 28 10q29 4 33 6q4 -5 23 -23q4 0 35 5q4 -4 6.5 -16t5.5 -11q1 5 4 5q1 0 6 -2q32 -9 42 -21q7 -7 10 -26q3 -24 11 -41
q33 -68 33 -178q0 -52 -16 -92q11 -17 36 -23q21 -4 43 -8q15 -4 15 -10v-47z" />
    <glyph glyph-name="i" unicode="i" 
d="M374 665q1 -71 -19 -83q-11 -7 -36 -7q-37 0 -52 5q-10 3 -22 34q-11 28 -11 42q0 27 18 60q21 38 46 38q34 0 57 -23q5 -12 19 -34v-32zM536 48q0 -10 -9 -28q-10 -21 -19 -21h-33q-53 -1 -75 6q-5 5 -10 5q-13 -10 -21 -10q-13 11 -20 15h-3q-26 -15 -29 -15h-191
q-17 0 -17 26q0 8 6 22.5t6 16.5q0 13 88 15q20 15 18 15q2 0 5.5 -1t5.5 -1q19 15 21.5 36.5t8 26t15 11t9.5 9.5v117q0 28 -17 50q0 6 3.5 19t3.5 20q0 1 -21.5 24t-24.5 30q-4 -1 -14.5 -7.5t-16.5 -6.5q-3 0 -15 3t-16 3q-9 0 -18 -5q-20 2 -39 4q-14 3 -32 24v2
q0 16 6 34q7 24 20 24q4 0 18.5 -5.5t23.5 -5.5q4 0 13.5 2.5t14.5 1.5q5 5 21 5q3 0 8.5 -2t8.5 -3l5 4l49 -7q12 6 12 8q0 5 -3 10q15 6 24 6t23 -7h12q28 1 36 -37q3 -16 3 -60v-266q0 -43 40 -55q8 -2 75 -8q40 -4 40 -25q0 -3 1 -9v-10z" />
    <glyph glyph-name="j" unicode="j" 
d="M456 623l-23 -49h-7q-8 1 -22.5 -2.5t-22.5 -3.5q-19 0 -37 6q-7 19 -14 37q-7 23 -7 39q0 32 21.5 51t54.5 19q18 0 36.5 -14t18.5 -32q0 -5 -2 -13.5t-2 -12.5q0 -5 2.5 -13.5t3.5 -11.5zM464 112q0 -34 -9 -105q-11 -80 -22 -92q-41 -46 -103 -64q-46 -13 -121 -13
q-40 0 -57 7q-26 11 -31 44l-7 -2q-29 0 -54 39q-24 36 -24 66q0 52 65 52q20 0 29 -29q4 -6 10 -17q0 -11 9 -31q20 -18 50 -36q36 -21 56 -21q6 0 19 10q35 6 47.5 13t35.5 34q15 18 15 176v37q-7 10 -7 19q0 5 8 23t8 31q0 15 -18 70q-1 18 -7 48q-6 4 -18 11
q-10 4 -14 22q-14 1 -27 1q-6 0 -65 -14q-1 13 -25 13q-18 0 -48 22q-6 4 -15 15q11 23 15 45q2 1 15.5 11.5t15.5 10.5q10 0 29 -2t28 -2q30 0 32 9q7 1 19 3q4 -3 31 -9q4 10 21 10q16 0 20 -10l1 1q2 0 12.5 -6.5t16.5 -6.5l27 18q13 0 25 -18.5t12 -33.5q0 -10 -10 -24
l2 -117q8 -12 8 -49q-10 -19 -10 -33q0 -19 10 -53q-10 -12 -10 -33q0 -7 5 -20t5 -20z" />
    <glyph glyph-name="k" unicode="k" 
d="M603 55q0 -4 -5 -11q-5 -17 -10 -32t-31 -15q-5 0 -15 1.5t-15 1.5q-2 0 -12.5 -6t-17.5 -6q-10 0 -19 8l-126 -3q-11 40 -11 42q0 8 21 31.5t21 36.5q0 9 -11.5 34t-18.5 34q-11 9 -26 31v3q0 3 -7 8.5t-7 10.5q-4 1 -11 5t-9 4q-15 0 -46.5 -39.5t-38.5 -59.5
q13 -26 29 -37q11 -8 44 -20q10 -4 10 -23q0 -34 -36 -34h-1l-8 -13q-8 0 -23 2.5t-23 2.5q-6 0 -15.5 -4t-12.5 -4q-16 0 -44 17q-5 -2 -8 -18l-2 4q-5 0 -9 7t-8 8l-2 -2q-3 -11 -7 -11q-8 0 -23 -2t-22 -2q-27 0 -27 22q0 10 8 21.5t9 13.5q30 29 88 67q10 46 10 56l2 7
l1 12q0 13 -6.5 36.5t-6.5 33.5q-5 70 -5 144q0 18 3.5 54.5t3.5 54.5q0 15 -8 78q-27 11 -55 22q-42 18 -42 29q0 16 12 42q5 10 35 10q11 0 33 -1t33 -1q9 0 24.5 3t23.5 3q39 0 39 -82q0 -14 -5 -24q-9 -16 -11 -20l9 -1q0 -8 -1 -25t-1 -26q0 -5 2.5 -13.5t3.5 -12.5
v-80q0 -5 -6 -14.5t-6 -10.5q0 -5 3 -10t3 -7q0 -7 -5 -16q0 -11 -1 -34.5t-1 -34.5q0 -30 8 -30q4 0 12.5 10t14.5 10l3 -1l78 78q14 14 14 30q0 28 -22 41q-12 7 -45 15q14 39 28 39q11 0 33.5 -1.5t33.5 -1.5q17 0 23 3q6 -5 21 -12q0 12 9 12q11 0 33 -5.5t34 -5.5
l7.5 9.5t14.5 9.5l35 -9q16 -4 16 -29q0 -22 -47 -25q-50 -4 -53 -13q-130 -125 -130 -138q0 -5 11 -13q17 -12 21 -25q6 -17 10 -21q12 -12 36 -37q34 -40 36 -42q21 -20 47 -30q4 -2 20 -13.5t19 -11.5q2 0 6.5 1t6.5 1q18 0 40.5 -12t22.5 -29z" />
    <glyph glyph-name="l" unicode="l" 
d="M564 75q-3 -18 -7 -36q-4 -14 -20 -32q-46 -7 -87 -7h-236q-55 0 -96 5q-8 1 -25 7q-21 7 -19 12q-1 9 -1 15q0 23 33 39l56 26l18 -7l24 10q17 -2 52 -7q16 14 15 36l8 22q-1 5 -1 10q0 4 1 10t1 10q0 7 -1 29v30q0 17 1.5 51.5t1.5 51.5q0 10 -1 18l-10 12q-2 6 -5 19
q11 6 11 28q0 21 -7 21l-4 -2v1q0 10 6.5 26.5t6.5 25.5q0 7 -8.5 26t-8.5 36q0 5 5 7q0 9 -1 18.5t-8 9.5t-10 -5l-21 20q-42 -4 -65 -4q-91 0 -99 62q6 7 10 33q2 15 27 15q20 0 39 -2q68 -1 204 -12q13 -33 13 -92l-1 -37q0 -8 -3 -22.5t-3 -21.5q0 -11 14 -59
q-1 -3 -8.5 -15t-7.5 -16q0 -14 11 -31q0 -18 3 -65q3 -41 3 -65l-1 -46q0 -11 -3.5 -32t-3.5 -32q7 -16 15 -32q11 -24 17 -24q4 0 10.5 4t10.5 4q20 0 43 -12q19 -11 39 -22q49 -4 58 -2z" />
    <glyph glyph-name="m" unicode="m" 
d="M612 39q0 -4 -11 -30q-14 -11 -95 -11q-28 0 -37.5 12t-9.5 42l1 14q58 36 58 77q0 10 -6 28.5t-6 28.5q0 7 4 20.5t4 20.5q0 8 -5 15t-5 12q0 11 2 32t2 31q0 28 -12 44q-19 24 -22 33q-7 16 -43 16q-10 0 -50 -31q-2 -47 -10 -140q-3 -31 -3 -83q0 -68 28 -89
q11 -3 24 -8q6 -6 6 -29l-1 -26q-3 -2 -11 -11.5t-17 -9.5q-134 0 -171 8q-53 -12 -87 -12q-17 0 -52 10q-41 11 -44 21q-6 7 -6 21q0 17 6 36q39 33 39 73l-1 214q0 14 -26.5 39.5t-26.5 45.5q0 34 15 38q33 10 85 10q6 0 15 -15.5t20 -15.5q14 0 40.5 21.5t39.5 21.5
q9 0 25 -3.5t24 -3.5q21 -11 44 -23t27 -36q3 5 34.5 31t37.5 28q16 6 31 6q68 0 102 -86q8 -9 23 -29q2 -3 2 -61v-87q0 -71 -2 -116q-1 -6 -3 -19t-2 -19v-18q11 -5 22 -9q4 -4 4 -29zM310 177q0 18 -1 52.5t-1 53.5q-8 4 -8 10q0 9 2 26t2 25q0 24 -14 46q-17 26 -39 26
q-17 0 -51 -17.5t-45 -31.5q-9 -126 -9 -153q0 -8 1 -25v-25q0 -36 32 -64.5t32 -55.5q0 -4 -1 -12t-1 -12q0 -7 13 -7q6 0 16 59q17 2 33.5 4.5t28.5 18.5q3 3 7 39q3 33 3 43z" />
    <glyph glyph-name="n" unicode="n" 
d="M598 50q0 -17 -12 -40q-46 -10 -90 -10q-92 0 -116 8l-1 49q23 6 65 27q18 14 18 95q0 97 -16 173q-6 7 -32 27t-30 20h-42q-12 0 -24 -6l-50 -14q-26 -10 -26 -39q0 -4 1.5 -12t1.5 -13t-7 -15.5t-7 -21.5q0 -4 1 -12t1 -12q0 -132 -1 -80q2 -81 16 -88l68 -35v-5
q0 -19 -15 -30t-35 -11h-189q-25 0 -25 36q42 46 74 65q7 2 18 9q-3 6 -7 17q12 31 12 58t-4 58q6 2 6 10q0 67 -20 97q-11 16 -43.5 33.5t-45.5 41.5q6 26 7 30q6 12 22 19q20 8 66 8q40 0 55 -12q32 -27 38 -30q99 48 139 48q48 0 98 -27q17 -9 36 -26q2 -12 5 -36
q3 -16 17 -57q13 -35 14 -57q2 -47 5 -140q2 -37 2 -38q3 -23 16 -33q12 -5 36 -17v-12z" />
    <glyph glyph-name="o" unicode="o" 
d="M547 238q0 -89 -52 -157q-48 -26 -105 -84q-20 -8 -37 -8q-23 0 -66 8q-46 8 -66 9q-10 5 -47.5 34.5t-44.5 36.5q-17 21 -35 109q-15 78 -15 118q0 10 3 18q25 63 88 125q71 69 131 69q139 0 197 -97q17 -29 36 -103q13 -48 13 -78zM454 237q-20 63 -27 82
q-13 33 -71 82q-24 7 -43 7q-30 0 -67.5 -27t-39.5 -27l-1 1q8 9 8 22q0 26 -11 26q-26 0 -26 -26q0 -12 20 -40v-1q0 -9 -12.5 -34t-12.5 -42q0 -57 44.5 -109t100.5 -52q47 0 105 50q9 8 31 78q2 8 2 10z" />
    <glyph glyph-name="p" unicode="p" 
d="M562 271q0 -70 -12 -107q-15 -47 -61 -90l-24 -24q-17 -14 -27 -16q-25 -19 -74 -19q-7 0 -22.5 1t-24 1t-33.5 18.5t-33 18.5q-19 0 -25 -14q-2 -40 -2 -47q0 -10 10.5 -19.5t10.5 -17.5q0 -2 -1 -7v-7q0 -10 16 -13t17 -4l47 -16q7 -30 7 -36q0 -14 -7 -21
q-25 -11 -177 -11h-43q-29 1 -43 1q-23 0 -23 26q0 31 47 52q17 13 54 35q7 19 7 23t-1 12t-1 13q0 7 1.5 21.5t1.5 21.5v66q0 10 -4 23q9 12 9 27q0 64 -9 133q-11 92 -32 126q-49 10 -61 17q-27 15 -27 54q0 14 36 25q30 9 49 9q65 0 94 -10q3 -1 15.5 -20.5t20.5 -19.5
q22 0 39 31q41 18 92 18q45 0 110 -26q3 -13 20 -25q22 -16 26 -21q37 -48 37 -182zM484 262q0 14 -6.5 39t-6.5 37q-1 1 -1 36q-17 25 -35 49t-53 24q-12 0 -24 -3q-6 -9 -13 -9q-4 0 -10.5 2.5t-10.5 4t-9 9.5q-51 -30 -52 -30q-3 0 -5 4.5t-4 5.5q-21 -7 -21 -88v-13
q12 -13 12 -53q0 -11 -7 -32.5t-7 -33.5q0 -78 13 -89.5t40 -11.5q4 0 15 1q9 1 14 0q3 5 9 5q5 0 15.5 -7.5t14.5 -7.5t10.5 4t10.5 5l5 -3l20 7l25 22q7 26 10 32q8 17 25 17q26 50 26 77z" />
    <glyph glyph-name="q" unicode="q" 
d="M588 -181q-74 -10 -152 -10q-79 0 -153 11l10 49q23 20 60 23t47 12q19 16 19 76q0 7 2 20t2 20q0 12 -18 12q-8 0 -23 -4.5t-23 -4.5q-6 0 -15 5.5t-11 5.5q-8 0 -22.5 -3.5t-22.5 -3.5q-12 0 -26 3q-75 18 -113 44q-54 37 -54 101q0 11 -6 18q-9 10 -10 14q-7 19 -7 58
q0 13 6.5 37.5t6.5 36.5q0 8 -3 23t-3 23q0 35 28 63l56 46q10 11 19 20t29 16q41 14 66 14q8 0 14 -8t14 -8q5 0 14 4t14 4q12 0 44 -16t44 -16t35.5 4.5t36.5 4.5q26 0 45 -11q-4 -8 -11 -24.5t-7 -59.5q0 -9 7 -25.5t7 -26.5q0 -9 -8.5 -30t-10.5 -30q7 -27 7 -82
q0 -21 -12 -75q3 -13 3 -25t-5 -35t-5 -35v-11q1 -7 1 -10q0 -5 -3 -12.5t-4 -10.5q9 -7 9 -19q0 -25 -17 -28l-2 -2q1 -4 7.5 -11t6.5 -10q0 -36 16 -50q7 -5 36 -14q24 -8 35 -25v-32zM449 235q0 10 -25 46q1 9 1 17q0 9 -3.5 27t-3.5 27q0 2 -9 16t-10 17q-17 40 -48 53
q-22 9 -72 9h-18q-11 0 -46.5 -39.5t-35.5 -51.5q0 -2 4.5 -8.5t5.5 -9.5l-2 -1l-6 1l-1 -1q0 -2 1.5 -6.5t1.5 -6.5t-6.5 -6.5t-6.5 -13.5q0 -11 11 -30.5t11 -31.5q0 -9 -2.5 -27.5t-2.5 -27.5q0 -15 28 -39.5t45 -28.5q5 5 15 11q7 -15 19 -15q8 0 11 9.5t11 9.5
q6 0 19.5 -10t34.5 -10q6 10 48 56q31 33 31 65z" />
    <glyph glyph-name="r" unicode="r" 
d="M568 388q0 -30 -12 -51q-15 -25 -43 -25q-9 0 -21 4q-14 15 -19 48q-2 10 -14.5 23.5t-12.5 22.5q-6 6 -16.5 6t-20.5 1q-28 -14 -35 -14t-12 5q-11 -12 -34 -35q-7 -7 -14.5 -27t-15.5 -27q2 -7 2 -16t-3.5 -26.5t-3.5 -26.5q0 -7 5.5 -16l5.5 -9q0 -5 -5.5 -11.5
t-5.5 -10.5l5 -11q-4 -13 -4 -29q0 -24 15.5 -36t31.5 -23q3 -2 9 -5v2l1 2q2 0 8.5 -3.5t21 -4.5t23.5 -9q12 -12 36 -37q3 -12 3 -21q0 -16 -12 -31q-15 4 -38 4q-27 0 -80.5 -2.5t-80.5 -2.5h-103q-37 0 -64 10v44q9 6 27 19q55 0 80 35q32 5 42 31q5 15 7 55q1 37 9 53
v1q0 4 3 10t3 10q0 5 -7 4q6 8 6 13q-2 22 -16 56q-6 7 -16 9.5t-19 4.5q11 5 28 14q-63 40 -95 40q-12 0 -25 -4l-35 38q1 22 3 32q3 17 13 28q82 9 83 9q11 0 41 -29.5t35 -29.5q-2 0 23.5 15t49.5 15q5 0 15 3t15 3q13 0 13 -6q0 -4 -6 -9.5t-7 -9.5h1q14 0 28 32
q8 -8 25 -18v4q0 3 -1.5 7.5t-1.5 6.5q0 6 39 6q11 10 35 10q16 0 27 -4q8 -15 18 -17q20 -22 41 -43q22 -24 22 -56z" />
    <glyph glyph-name="s" unicode="s" 
d="M528 140q0 -61 -18 -89q-22 -35 -81 -41q-81 -9 -118 -9q-7 0 -22.5 1.5t-23.5 1.5q-28 0 -58 20t-33 20q-11 0 -17 -33q-8 -2 -15 -2h-14q-10 1 -15 1q-16 26 -16 92q0 42 4 56q8 34 38 34q29 0 39 -10t17 -38q6 -23 39 -39q50 -25 54 -28q13 -10 26 -10q15 0 52 10
q41 12 41 22q0 65 -7 72q-19 6 -47 15q-62 23 -185 73q-26 12 -45 34q-22 24 -22 49q0 61 29 107q34 53 92 53q30 0 88.5 -14t89.5 -14q20 0 25.5 21t36.5 21q11 0 40 -2q4 -6 5 -19q1 -9 0 -24q-2 -18 -2 -21q0 -13 2.5 -39t2.5 -40q0 -12 -11 -25.5t-24 -13.5
q-43 0 -63 41q-2 10 -10 29q-19 28 -124 28q-60 0 -60 -51q0 -23 31 -39q23 -11 47 -22q9 -4 25 -13h26q12 1 16 -4l-5 -9q4 -5 32.5 -8t33.5 -5q47 -17 75.5 -54.5t28.5 -84.5z" />
    <glyph glyph-name="t" unicode="t" 
d="M549 145l-25 -36q0 -32 -34 -74q-35 -45 -65 -45q-9 0 -25 -1h-25q-5 0 -8 1q-5 5 -16 13q-10 -14 -14 -14q-3 0 -8 3.5t-8 3.5l-6 -6q-31 3 -36 8q-11 13 -22 27q-14 8 -36 30q-18 25 -18 79q0 3 4 255q-16 26 -59 34q-6 2 -72 7l6 10q-2 4 -13 7t-11 16q0 8 6 14
q9 27 41 27q13 0 39 2.5t39 2.5q15 0 21 -8q14 9 17 45q5 55 7 62q8 34 36 41q32 9 39 9q22 0 22 -62q0 -32 -4 -42q8 -31 32 -41q15 -6 52 -6q4 0 12 1t12 1q3 0 5.5 -3t4.5 -3q4 0 14 7l23 -6q6 -18 6 -31q0 -5 -3 -15t-3 -15q0 -18 -16 -18h-94q-53 0 -52 -38
q1 -27 1 -20q0 -18 -3.5 -55t-3.5 -55q0 -21 1 -61.5t1 -61.5t35 -43q32 -20 55 -20q46 0 60 30q7 27 15 56t42 28q26 -11 32 -40z" />
    <glyph glyph-name="u" unicode="u" 
d="M611 26q0 -7 -21 -11q-6 -1 -18.5 -6t-21.5 -5q-37 0 -99 37q-41 -13 -83 -27q-50 -14 -85 -14q-181 0 -182 148l-2 217q0 33 -17 44q-21 10 -43 20q-11 28 -11 41q0 26 8 29v-2q8 13 33 13q6 0 18.5 -2.5t19.5 -2.5q110 0 110 -31q0 -20 -5.5 -59t-5.5 -59
q0 -15 3 -45.5t3 -45.5q0 -5 -4 -12.5t-4 -10.5q0 -7 4.5 -21.5t4.5 -21.5q0 -6 -3 -17.5t-3 -17.5q0 -12 -6 -16.5t-6 -6.5l2 -3q11 1 9 1q3 0 6 -5q18 -31 72 -39q21 -3 47 -3q32 0 42 11q7 19 30 27t24 8q11 15 11 150q0 81 -11.5 105.5t-45.5 37.5q-6 -6 -25 -6
q-63 0 -63 46q0 36 27 36q5 0 16 -1.5t17 -1.5q9 0 28 2t28 2q79 0 121 -24v-54q0 -40 5 -65q5 -18 5 -23q0 -4 -9 -10t-9 -9q0 -1 16 -7q1 -4 1 -14q0 -89 -15 -105l-3 -8q12 -3 12 -9q0 -64 39 -82q14 -4 38 -17q0 -9 1 -28v-27z" />
    <glyph glyph-name="v" unicode="v" 
d="M598 475q0 -25 -33 -53l-52 -40q-22 -17 -67 -150q-3 -17 -14 -49q-6 11 -16 11t-10 -10q0 -7 7 -12t7 -16q0 -9 -35 -71q-22 -38 -43 -76q-14 -25 -23 -25q-23 0 -47 46q-14 28 -37 94q-20 60 -28 72q-4 6 -13 10t-11 9q-4 9 -6 28t-4 26q0 2 -23.5 43.5t-25.5 43.5
l-19 46q7 11 7 17q0 5 -24 10q-16 2 -31 5q-26 27 -26 44t26 39h145q21 0 50 -13q34 -15 34 -33q0 -10 -21.5 -46t-21.5 -73q0 -12 37.5 -104t42.5 -94l30 36q15 20 18 58t12 54q32 53 32 61.5t6 24.5t6 24q0 16 -8 18q-2 1 -20 1q-29 19 -29 37q0 19 29 39q11 0 33.5 -6.5
t34.5 -6.5q16 0 41.5 9.5t33.5 9.5t23.5 -4.5t22.5 -5.5q10 -7 10 -28z" />
    <glyph glyph-name="w" unicode="w" 
d="M606 473q0 -39 -9 -56q-6 -12 -18.5 -16.5t-15.5 -9.5q-8 -19 -14 -57q-2 -19 -22 -75q-21 -59 -32 -109q-8 -40 -15 -80q-13 -63 -19 -70q-9 -10 -23 -10q-13 0 -34 10q-9 122 -56 202q-6 10 -10 10q-11 0 -25 -26q-26 -46 -26 -137v-12q6 -9 6 -24q0 -21 -34 -21
q-26 0 -54 13q-1 16 -10 45q-37 59 -46 141q-16 20 -33.5 77t-23.5 63q-24 25 -35 63q-4 4 -20 4q-7 0 -16 11q-12 1 -12 18q0 15 12 50q6 16 40 16q9 0 27.5 -2t27.5 -2q10 0 29.5 4t28.5 4q6 0 29.5 -8.5t23.5 -14.5q0 -14 -17 -36q-20 -27 -23 -34q-1 -3 -5 -10
q-8 2 -24 5q-1 -3 -2 -8q0 -4 1 -13v-14q0 1 19 -36.5t19 -61.5q0 -11 8 -31.5t8 -31.5q10 0 16 -17q4 1 8 16l6 20q19 38 38 94l1 101q0 25 51 25q17 0 25 -11t17 -63q6 -35 13 -70q5 -7 24 -55q17 -42 25 -46q13 28 29 84q1 6 10 57q5 35 5 57q0 10 -1 22q-36 36 -36 57
q0 24 60 24q-2 0 32 -8q4 -1 36 -1q9 0 22.5 -4.5t13.5 -11.5z" />
    <glyph glyph-name="x" unicode="x" 
d="M588 37q0 -19 -13.5 -30.5t-32.5 -11.5q-30 0 -77 1q-63 1 -77 1q-22 31 -22 42q0 6 20 7q15 1 15 16q0 36 -53 86q-2 2 -9 20.5t-10 18.5q-1 0 -19 -28q-4 -5 -41 -42q-34 -33 -34 -38q0 -10 29 -10q8 0 8 -6l-6 -63q-39 -10 -94 -10t-112 20q-3 9 -3 18q0 27 41 36
q53 12 64 24q19 20 66 91q49 76 46 88q-3 19 -55 76q-43 47 -70 70q-4 3 -31 3q-17 0 -19 7q-1 1 -1 24q0 34 7 49q16 6 103 6q15 0 17 -17q3 -24 15 -33q2 -2 46 -50q34 -36 48 -36q43 0 26 -2q6 1 7 13l65 77q-1 9 0.5 29.5t6.5 21.5q12 4 85 4q19 0 25.5 -6.5t6.5 -28.5
q0 -40 -1 -48q0 -3 -6 -3q-5 0 -13.5 1.5t-13.5 1.5q-4 0 -6 -3q0 -26 -21 -37.5t-41 -21.5q-3 -17 -6 -17q-8 -2 -12 -7l-30 -28q-23 -22 -23 -29q0 -9 5 -25.5t5 -24.5q0 -3 9.5 -7.5t10.5 -6.5l94 -137q6 -8 40 -8q12 0 26.5 -12.5t14.5 -24.5z" />
    <glyph glyph-name="y" unicode="y" 
d="M589 498q-1 -54 -15 -72q-9 -12 -36 -14.5t-41 -12.5q-13 -43 -27 -86q-20 -66 -20 -78q0 -34 -22 -54l-1 1q-3 -19 -14.5 -55t-14.5 -55q-39 -34 -39 -61q0 -4 1.5 -12.5t1.5 -13.5l-1 -6l-20 -20h-1q-1 -1 -4 -25q-1 -20 -12 -19l-21 -49q-39 -30 -48 -35
q-29 -18 -56 -18q-39 0 -78 35.5t-39 73.5q0 43 49 43q20 0 39.5 -24t38.5 -24q8 0 31 19.5t24 27.5q17 34 17 56q0 24 -20 60q-24 42 -28 59q-3 11 -15 35q-12 21 -13 35q-8 9 -7 25q0 20 -2 25q-18 53 -93 118q-67 58 -67 87q0 27 10.5 33.5t47.5 11.5q45 6 53 8
q25 -12 51 -14h53q2 0 6 -2.5t6 -2.5q3 0 8 2t8 2q11 0 11 -24q0 -42 -8 -45q-4 -5 -26 -20q-11 -7 -13 -35l21 -62q1 -3 10 -21q7 -13 7 -22t-1 -26t-1 -25l16 -16q13 -12 18 -12q7 0 10 8q29 15 36 57q9 51 20 65v2q0 6 -2.5 17t-2.5 17t6.5 17t6.5 17q0 5 -8.5 12
t-8.5 13q-37 2 -39 3.5t-2 33.5q0 12 -3 20q5 35 14 28q23 8 27 8q3 0 7 -2.5t6 -2.5l18 11h104q11 -10 25 -10q3 0 9.5 1.5t8.5 1.5l7 -12q7 7 22 17z" />
    <glyph glyph-name="z" unicode="z" 
d="M543 101q0 -44 -6 -86q-78 -21 -233 -21q-39 0 -117 5t-116 5q-10 0 -10 15q0 22 16 37q0 43 5 54q2 5 17 8t28 20q11 9 31 27q5 10 13 30q7 9 25 20q11 5 16 32l5 -2l13 7l1 -4q36 17 60.5 59.5t24.5 84.5q0 41 -60 52l-10 -6q-3 0 -10.5 1.5t-11.5 1.5q-14 0 -30 -4
q-23 -6 -23 -16q0 -2 2 -6.5t2 -6.5q0 -10 -47 -10q-31 0 -36 12q-9 21 -19 27q12 3 17 27q7 36 11 43q11 23 37 23q10 0 27.5 -9t27.5 -9q12 0 35.5 7t35.5 7h235l12 -12v1v1q5 -3 9.5 -19t4.5 -25q0 -21 -14 -31q-17 -4 -45 -18q-33 -17 -35 -28.5t-8 -34.5q-4 -6 -8 -19
l1 -2h-1q-1 -2 -6.5 -3t-11.5 -12q-18 -22 -46 -71q-5 8 -19 15q-3 -9 -3 -24q0 -11 6 -24l-7 -2l1 -2q-1 -13 -24.5 -30t-38.5 -19l-18 -42q-13 -30 -13 -40q0 -14 10 -15h-1l15 1q13 0 39 -3.5t39 -3.5q-1 0 17 5q9 3 26 3q12 0 34.5 8t34 8t18.5 52q8 58 12 65
q5 -4 18 -4q15 0 38 3q8 -53 8 -103z" />
    <glyph glyph-name="braceleft" unicode="{" 
d="M414 623q0 -17 -35.5 -32.5t-35.5 -31.5q0 -12 7.5 -47t7.5 -55q0 -67 -16 -106q-8 -13 -18 -37q-2 -3 -21 -20q-11 -11 -11 -26q0 -4 17 -24q21 -25 32 -48q18 -35 18 -74q0 -43 -10 -76q-1 -7 -17 -44q-11 -27 -11 -46q0 -15 15 -18q-2 0 27 0q40 0 40 -50
q0 -24 -16 -38t-40 -14q-9 0 -14 2q-2 15 -39 29.5t-37 47.5q-5 8 -5 23q0 30 21 82.5t21 69.5q0 23 -14 52q-13 24 -24.5 46.5t-21.5 30.5t-33 18q-11 4 -11 25q0 35 11 48q7 8 25.5 11.5t26.5 11.5q3 9 19 27q10 12 10 43v62q0 16 -11 45t-11 44q0 27 30.5 69t54.5 42
q6 0 24 -2q15 -1 24 0q8 -9 19 -26q2 -12 2 -14z" />
    <glyph glyph-name="bar" unicode="|" 
d="M349 629q0 -739 -23 -777q-2 -2 -13 -6t-15 -4q-17 0 -30 22q-12 19 -12 37q0 9 3 26t4 25q5 7 5 16q0 16 -4.5 47t-4.5 47q0 11 2 29q3 23 3 29q4 45 4 114q0 82 -2 249q1 40 -1 119q0 5 -2.5 14.5t-2.5 14.5q0 24 15.5 40t38.5 16q8 0 20 -4q15 -48 15 -54z" />
    <glyph glyph-name="braceright" unicode="}" 
d="M414 274q0 -32 -15 -37q-36 -13 -53 -48q-12 -21 -24 -41q-14 -25 -14 -46q0 -16 20 -65.5t20 -78.5q0 -16 -10 -46q-10 -34 -20 -41q-11 -3 -30 -10q-6 -3 -20 -13q-10 -8 -23 -8q-48 0 -48 48q0 33 22 41q19 3 39.5 7t20.5 30t-9 48q-15 37 -17 43q-9 33 -9 77
q0 35 17 67q10 20 31 43q17 19 17 24q0 15 -12 26q-19 17 -21 20q-5 9 -15 28q-11 30 -11 88q0 17 10 49.5t10 49.5q0 31 -22 49q-7 6 -40 22q-22 11 -22 23q0 2 2 14q14 22 17 24t27 2q4 0 11.5 1t11.5 1q41 0 66 -48q20 -39 20 -85q0 -15 -13 -43.5t-13 -43.5q0 -10 3 -41
t12 -43q14 -17 18 -28q8 -9 27.5 -12t26.5 -9q12 -10 12 -38z" />
    <glyph glyph-name="asciitilde" unicode="~" 
d="M490 433q0 -48 -11.5 -73t-45.5 -55q-14 -12 -36 -12q-38 0 -53.5 23.5t-30.5 49.5q-28 31 -39 31q-35 0 -46 -14q-8 -10 -15 -20l-6 -30t-15 -24t-52 -9q-5 0 -6 16q-1 10 0 30q1 23 1 22q0 4 -4.5 9.5t-4.5 8.5l1 3l14 2l-1 -1l6 32q5 27 42 46q32 17 59 17
q24 0 68.5 -43.5t65.5 -43.5q26 0 47 35.5t25 35.5q22 0 29.5 -5t7.5 -31z" />
    <glyph glyph-name="Adieresis" unicode="&#xc4;" 
d="M616 25q0 -24 -50.5 -25t-135.5 -1q-70 0 -70 16q0 5 2 10l76 55q2 30 2 37q0 35 -21 54q-2 2 -22 25q-18 20 -20 20q-4 0 -10.5 -2.5t-10.5 -2.5q-14 0 -40 10t-40 10q-37 0 -48 -14q-5 -6 -7.5 -21t-4.5 -20q-24 -55 -24 -71q0 -12 12 -25q38 -14 52 -27q21 -19 21 -53
h-216q-36 0 -36 38q0 21 13.5 31t27.5 19q23 18 31 46q3 12 9 37q16 28 38 88l1 3q0 4 -3 11t-3 11q0 9 6 21q8 16 9 21q15 43 42 130q5 32 26 93q9 26 28 76q5 11 13 31q13 41 38 55q65 -19 65 -53q0 -2 -1 -5t-1 -5q0 -12 12 -33t12 -34q1 -6 0 -15q-1 -11 -1 -15
q0 -16 18 -68q12 -35 24 -71q24 -89 47 -179q33 -113 82 -158q20 -13 58 -39v-11zM372 326q0 19 -7 30l-3 69q-1 16 -20 47.5t-33 31.5q-5 0 -6 -7t-6 -7q-7 -6 -26 -66t-19 -74v-29v-11q8 -5 19 -6q7 -1 20 0q16 2 20 2q6 0 17 -3.5t16 -3.5q11 0 19.5 8t8.5 19zM473 803
q1 -59 -38 -59q-32 0 -40 2q-23 6 -23 28q0 6 6.5 13t7.5 9h-2q-15 4 -15 29q0 16 14 32.5t30 16.5q27 0 45 -17q4 -8 14 -25zM296 814q0 -41 -10 -55q-2 -3 -8.5 -3.5t-9 -1.5t-5 -6t-9.5 -5q-24 0 -47 8q-5 1 -13 23.5t-8 29.5q0 20 15.5 46t33.5 26q15 0 33.5 -8
t18.5 -21q0 -3 -1.5 -8t-1.5 -8l1 -3q11 -10 11 -14z" />
    <glyph glyph-name="Aring" unicode="&#xc5;" 
d="M616 25q0 -24 -51.5 -25t-134.5 -1q-70 0 -70 16q0 5 2 10l76 55q2 30 2 37q0 35 -21 54q-2 2 -22 25q-18 20 -20 20q-4 0 -10.5 -2.5t-10.5 -2.5q-14 0 -40 10t-40 10q-36 0 -48 -14q-4 -6 -7 -21t-5 -20q-24 -54 -24 -71q0 -12 12 -25q38 -14 52 -27q21 -19 21 -53
h-216q-36 0 -36 38q0 21 13.5 31t27.5 19q23 18 31 46q3 12 9 37q16 28 38 88l1 3q0 4 -3 11t-3 11q0 9 6 21q8 16 9 21q15 43 42 130q5 32 26 93q7 12 30 82q19 56 37 72q-7 0 -22 2q-6 1 -15 14.5t-9 19.5q0 4 4 11t5 10q-16 9 -19.5 15t-3.5 25q0 26 25 44q22 16 49 16
q38 0 63 -14q8 -10 27 -28q7 -38 7 -53q0 -25 -7 -39q-4 -9 -22 -19t-27 -10l-4 -1q26 -14 26 -38q0 -2 -1 -5t-1 -5q0 -12 12 -33t12 -34q1 -6 0 -15q-1 -11 -1 -15q0 -16 18 -68q12 -35 24 -71q24 -89 47 -179q33 -113 82 -158q20 -13 58 -39v-11zM351 781q0 10 -17 32
q-4 0 -11 1h-11q-11 0 -12 -2q-3 -6 -4 -6q-5 -3 -9 -5.5t-4 -12.5v-16q0 -5 9 -10v-10q0 -14 29 -14q14 0 22 14.5t8 28.5zM372 326q0 19 -7 30l-3 69q-1 16 -20 47.5t-33 31.5q-5 0 -6 -7t-6 -7q-7 -6 -26 -66t-19 -74v-29v-11q8 -5 19 -6q7 -1 20 0q16 2 20 2
q6 0 17 -3.5t16 -3.5q11 0 19.5 8t8.5 19z" />
    <glyph glyph-name="Ccedilla" unicode="&#xc7;" 
d="M581 254q0 -6 -4.5 -17.5t-4.5 -17.5q0 -24 -11 -54q-25 -69 -36 -83q-21 -27 -60.5 -53t-72.5 -34q4 -22 4 -31q0 -4 -26 -11t-26 -21q0 -10 24.5 -21t24.5 -26q0 -41 -22 -58q-8 -7 -58 -27q-19 3 -43 15q27 26 27 44q0 11 -12.5 24.5t-22.5 14.5q-18 37 -18 52
q0 32 35 53q-43 5 -70 28q-86 72 -94 88q-21 40 -32 99q-3 15 -15 103q-7 49 -7 47q0 51 19 126q1 4 35 123q34 35 69 69.5t82 54.5q21 1 40 1q25 0 37 -1q17 -2 53.5 -19t45.5 -17q7 7 14 7t12 -7l41 10l15 -9q17 5 15 5q9 0 9 -7q0 -5 -2 -12.5t-2 -11.5q0 -9 3.5 -25
t3.5 -25q0 -54 -2 -92q-4 -47 -4 -37q0 -4 8 -18.5t9 -20.5l-2 -2q-10 0 -30.5 -5t-31.5 -5q-17 0 -30 11q-15 6 -36 20q3 14 3 27q0 45 -32.5 74.5t-77.5 29.5q-96 0 -147 -120q-17 -40 -17 -72q0 -29 11 -58q3 -7 11 -17q4 -5 4 -24q0 -3 -13 -17q5 -9 9.5 -42.5
t9.5 -39.5q6 -1 7.5 -10t2.5 -17q-2 -6 4 -8.5t7 -5.5q0 -16 10 -47q36 -52 155 -52q26 0 37 11q24 24 49 66q28 47 29 74q0 4 -1 12v12q0 42 40 42q18 0 33 -13.5t15 -31.5z" />
    <glyph glyph-name="Eacute" unicode="&#xc9;" 
d="M611 38q0 -17 -13 -30t-29 -13h-60q-13 0 -37 3.5t-35 4.5q-5 4 -12 4q-6 0 -16 -3.5t-15 -3.5l-9 10t-19 10q-12 0 -20.5 -10.5t-12 -11.5t-48.5 -1q-20 0 -58 -1t-57 -1q-21 0 -52 12q-9 0 -27 -3.5t-27 -3.5q-29 0 -29 28q0 23 35.5 53.5t37.5 42.5q0 18 5 52
q4 9 10 27t6 131q0 47 -2 52q-10 12 -10 23q0 5 2.5 14.5t2.5 14.5q0 10 -4 24q-6 19 -6 24q-3 28 -9 85q-3 18 -16 18q-4 0 -11 -1.5t-10 -1.5q-8 0 -15 7t-7 14l3 6q-16 22 -16 44q0 13 7 16q1 0 18 1l394 25q16 1 32 1q24 0 35 -1q25 -2 45.5 -22t20.5 -45q0 -5 -4 -15
t-4 -16q0 -79 -6 -114q-3 -19 -19 -19q-7 0 -20 1.5t-19 1.5q-19 0 -46.5 21.5t-27.5 38.5q0 2 2.5 4t2.5 4q0 4 -3 10l5 22l-10 13q-9 0 -18 1q-15 2 -13 6h-166q-42 0 -42 -82q0 -68 20 -84q16 -12 86 -12q29 0 34 6q16 20 41.5 26t49.5 12q12 -15 12 -36q0 -19 -12 -27
q3 -41 5 -122q-2 -9 -5 -19.5t-14 -10.5q-57 0 -71 22q0 9 -5 26q-4 8 -24 16t-32 8q-6 0 -19 -2t-19 -2q-42 0 -42 -53q0 -80 15 -123q8 -23 22 -31q11 -6 36 -6q9 0 25.5 2.5t25.5 2.5q7 0 22.5 -1.5t27.5 -1.5l2 -1q6 5 17 10q13 10 19 10t16.5 -4.5t16.5 -4.5
q11 0 25 12.5t16 23.5l16 103q6 1 16 1t28 -4.5t28 -4.5q4 0 11 2t11 2q5 0 5 -11t-1.5 -34t-1.5 -34t2 -31.5t2 -31t4.5 -32t4.5 -32.5zM484 869l-10 -48q-40 -24 -100 -45l-106 -34q-21 8 -26 26q140 128 183 128q14 0 34 -8t25 -19z" />
    <glyph glyph-name="Ntilde" unicode="&#xd1;" 
d="M609 611q-2 -4 -21 -18t-23 -28q-3 -9 -3.5 -27.5t-6.5 -31.5q-10 -20 -10 -95q0 -4 -8 -10t-9 -7q3 -10 13 -6l2 -2q0 -9 -3 -25t-3 -24q0 -7 6 -5q0 -18 -5 -30l-2 3q-1 -4 -1 -10q0 -11 3 -33t3 -33q0 -7 -3 -21.5t-3 -21.5q0 5 3 -31t3 -117q0 -41 -25 -41
q-30 0 -42 25q-21 45 -22 46t-10.5 4t-9.5 5q0 4 2.5 11t2.5 11q0 15 -10 30q-12 19 -14 26q-7 21 -42 88q-5 10 -24 24q-14 10 -20 42.5t-27 56t-43 47.5q-7 15 -26 43q-2 1 -8.5 7t-8.5 6q-19 0 -19 -53l-1 -319q0 -4 9 -11.5t13 -7.5t12 1t12 1t22.5 -9t21 -12.5
t2.5 -12.5q0 -25 -20 -41q-182 -15 -205 -15q-36 0 -36 31q0 30 9 39q4 5 23 8.5t32 13.5q26 21 32 102v117q0 22 2.5 66t2.5 66q0 13 -7 38t-7 39q0 3 10.5 5t10.5 6t-21 30l-7 49l-81 22q-6 7 -6 23q0 32 7 39q4 -1 14 -8t18 -7q7 0 7 9t4.5 10.5t19.5 1.5q48 0 64 -1
q8 -1 24 -6.5t25 -5.5q4 0 11.5 2t11.5 2q5 0 5 -10q0 -4 2 -38q2 -25 0 -37q33 -37 40 -62q2 -10 18 -21q13 -10 13 -29q0 -3 3 -7q14 -23 39 -78q15 -14 33 -46q13 -16 28 -49q17 -36 28 -50l26 -37q7 1 12 11l1 32q0 22 -1.5 64.5t-1.5 62.5q0 18 2 22q11 110 11 112
q0 14 -11 38q-30 22 -60 45q-43 34 -43 53q0 20 6 22q25 10 145 10h66q24 -10 24 -15v-63zM470 819q0 -35 -10 -53t-40 -40q-12 -9 -32 -9q-34 0 -47.5 17.5t-27.5 35.5q-25 23 -34 23q-31 0 -39.5 -9t-14.5 -16q-3 -11 -5.5 -22t-13 -17t-46.5 -6q-5 0 -6 11v22q2 17 2 16
q0 3 -4 7t-4 6v2l13 1l-1 -1l5 24q5 20 38 34q28 11 52 11q21 0 60.5 -31t57.5 -31q23 0 42 25.5t22 25.5q20 0 26.5 -4t6.5 -22z" />
    <glyph glyph-name="Odieresis" unicode="&#xd6;" 
d="M578 329q0 -141 -62 -231q-72 -103 -207 -103q-106 0 -162 79q-18 25 -42 64q-5 19 -17 56q-29 31 -29 145q0 162 90 290q35 51 90 70q42 15 115 15q52 0 158 -109q6 -23 29 -67t28 -71q9 -49 9 -138zM498 377q0 32 -18 94q-18 66 -35 85q-24 26 -49 44q-14 11 -21 11
q-87 0 -119 -4q-106 -14 -106 -258q0 -49 21 -112q20 -59 49 -104.5t83 -45.5q45 0 125 32q1 3 17 49q11 31 27 41l16 113q10 17 10 55zM473 803q1 -59 -38 -59q-32 0 -40 2q-23 6 -23 28q0 6 6.5 13t7.5 9h-2q-15 4 -15 29q0 16 14 32.5t30 16.5q27 0 45 -17q4 -8 14 -25z
M296 814q0 -41 -10 -55q-2 -3 -8.5 -3.5t-9 -1.5t-5 -6t-9.5 -5q-24 0 -47 8q-5 1 -13 23.5t-8 29.5q0 20 15.5 46t33.5 26q15 0 33.5 -8t18.5 -21q0 -3 -1.5 -8t-1.5 -8l1 -3q11 -10 11 -14z" />
    <glyph glyph-name="Udieresis" unicode="&#xdc;" 
d="M606 673q0 -21 -30 -39t-30 -62q0 -7 1 -20.5t1 -20.5q0 -60 -10 -317q-5 -129 -120 -202q-27 -17 -81 -17q-31 0 -64 7l-26 6q-1 0 -4.5 -1t-5.5 -1q-7 0 -32.5 15t-29.5 22q-15 31 -51 90q-7 7 -17 24q-1 5 -1 11q0 1 1 3l3 -1l1 6q0 14 -7.5 40t-7.5 40q0 27 6 36
q1 32 1 65q0 126 -16 215q-7 36 -25 52q-16 9 -31 17.5t-15 28.5q0 4 4.5 13.5t5.5 12.5h5q5 1 13.5 -3t12.5 -4q3 0 20 6t28 6q20 0 113 -5q42 -2 42 -23q0 -35 -29 -30q-12 -8 -24 -15q-16 -10 -16 -22q0 -7 4 -13q-7 -15 -7 -99q0 -4 -7 -10t-7 -10q0 -5 4 -10l-1 -28
q-1 -83 18 -186q1 -7 6 -20q0 -6 -12 -10q0 -5 3 -16l-3 -7q0 -5 8 -5.5t8 -2.5q0 -22 11 -37q36 -48 47 -48q41 0 38 0q7 13 14 13q5 0 10 -9t7 -9q9 0 23 10t20 10q3 0 6.5 -1.5t5.5 -1.5q13 0 21 18q10 1 10 -6q37 39 37 71q-5 7 -11 20q11 4 11 8q0 3 -2 9t-2 9
q0 1 9 31q5 19 5 52q0 60 -10 166q-6 11 -6 21l9 6l1 3q0 5 -4 10q0 6 3 27q-1 6 -10 25q-7 16 -7 24l-63 23q-5 2 -14 23t-9 28q0 8 1 12q45 7 46 7l188 -5q16 0 16 -25zM473 803q1 -59 -38 -59q-32 0 -40 2q-23 6 -23 28q0 6 6.5 13t7.5 9h-2q-15 4 -15 29q0 16 14 32.5
t30 16.5q27 0 45 -17q4 -8 14 -25zM296 814q0 -41 -10 -55q-2 -3 -8.5 -3.5t-9 -1.5t-5 -6t-9.5 -5q-24 0 -47 8q-5 1 -13 23.5t-8 29.5q0 20 15.5 46t33.5 26q15 0 33.5 -8t18.5 -21q0 -3 -1.5 -8t-1.5 -8l1 -3q11 -10 11 -14z" />
    <glyph glyph-name="aacute" unicode="&#xe1;" 
d="M588 113q0 -11 -1 -32t-1 -31q0 -28 -55 -44q-40 -12 -79 -12q-28 0 -37 8q-4 3 -8.5 17.5t-8.5 14.5q-5 0 -17 -11q-16 -14 -17 -15q-13 -8 -50 -16.5t-55 -8.5q-81 0 -134 36q-61 42 -61 119q0 13 7 34q7 16 13 33q20 60 93 81q21 6 124 18q62 7 62 33q0 6 -4 16t-4 16
q0 7 3 14q-14 42 -45 42q-22 0 -69 -17t-57 -33q-22 -8 -46 -8q-30 0 -51 10v15q-1 30 8.5 45.5t34.5 28.5q75 41 94 41q3 0 8.5 -2t7.5 -2q9 0 26.5 5.5t26.5 5.5q60 0 98 -30q33 -27 60 -86q7 -16 16 -52l4 -59l-8 -9l4 -10l-12 -10q1 -9 15 -15q2 -146 53 -146q3 0 16 23
t19 23q27 0 27 -30zM381 215q0 15 -17 28t-33 13q-5 -6 -17 -7q-8 -1 -22 0q-17 2 -19 2q-5 0 -16 -11q-4 -5 -22 -10.5t-27 -15.5q-13 -16 -42 -46q-8 -8 -8 -24v-21q0 -28 40 -50q34 -20 64 -20q39 0 61 15q13 10 41 48q11 13 11 44q5 3 5 10l-1 8l-10 11q1 8 11 20z
M484 719l-10 -48q-40 -24 -100 -45l-106 -34q-21 8 -26 26q140 128 183 128q14 0 34 -8t25 -19z" />
    <glyph glyph-name="agrave" unicode="&#xe0;" 
d="M588 113q0 -11 -1 -32t-1 -31q0 -28 -55 -44q-40 -12 -79 -12q-28 0 -37 8q-4 3 -8.5 17.5t-8.5 14.5q-5 0 -17 -11q-16 -14 -17 -15q-13 -8 -50 -16.5t-55 -8.5q-81 0 -134 36q-61 42 -61 119q0 13 7 34q7 16 13 33q20 60 93 81q21 6 124 18q62 7 62 33q0 6 -4 16t-4 16
q0 7 3 14q-14 42 -45 42q-22 0 -69 -17t-57 -33q-22 -8 -46 -8q-30 0 -51 10v15q-1 30 8.5 45.5t34.5 28.5q75 41 94 41q3 0 8.5 -2t7.5 -2q9 0 26.5 5.5t26.5 5.5q60 0 98 -30q33 -27 60 -86q7 -16 16 -52l4 -59l-8 -9l4 -10l-12 -10q1 -9 15 -15q2 -146 53 -146q3 0 16 23
t19 23q27 0 27 -30zM381 215q0 15 -17 28t-33 13q-5 -6 -17 -7q-8 -1 -22 0q-17 2 -19 2q-5 0 -16 -11q-4 -5 -22 -10.5t-27 -15.5q-13 -16 -42 -46q-8 -8 -8 -24v-21q0 -28 40 -50q34 -20 64 -20q39 0 61 15q13 10 41 48q11 13 11 44q5 3 5 10l-1 8l-10 11q1 8 11 20z
M409 618q-5 -18 -26 -26q-52 17 -105 34q-61 21 -101 45l-9 48q4 11 26 19q19 8 32 8q43 0 183 -128z" />
    <glyph glyph-name="acircumflex" unicode="&#xe2;" 
d="M588 113q0 -11 -1 -32t-1 -31q0 -28 -55 -44q-40 -12 -79 -12q-28 0 -37 8q-4 3 -8.5 17.5t-8.5 14.5q-5 0 -17 -11q-16 -14 -17 -15q-13 -8 -50 -16.5t-55 -8.5q-81 0 -134 36q-61 42 -61 119q0 13 7 34q7 16 13 33q20 60 93 81q21 6 124 18q62 7 62 33q0 6 -4 16t-4 16
q0 7 3 14q-14 42 -45 42q-22 0 -69 -17t-57 -33q-22 -8 -46 -8q-30 0 -51 10v15q-1 30 8.5 45.5t34.5 28.5q75 41 94 41q3 0 8.5 -2t7.5 -2q9 0 26.5 5.5t26.5 5.5q60 0 98 -30q33 -27 60 -86q7 -16 16 -52l4 -59l-8 -9l4 -10l-12 -10q1 -9 15 -15q2 -146 53 -146q3 0 16 23
t19 23q27 0 27 -30zM381 215q0 15 -17 28t-33 13q-5 -6 -17 -7q-8 -1 -22 0q-17 2 -19 2q-5 0 -16 -11q-4 -5 -22 -10.5t-27 -15.5q-13 -16 -42 -46q-8 -8 -8 -24v-21q0 -28 40 -50q34 -20 64 -20q39 0 61 15q13 10 41 48q11 13 11 44q5 3 5 10l-1 8l-10 11q1 8 11 20z
M462 607q-3 -19 -22 -28q-31 13 -70 39q-33 22 -67 45q-33 -23 -67 -45q-40 -26 -70 -39q-19 9 -23 29q121 140 159 140q39 0 160 -141z" />
    <glyph glyph-name="adieresis" unicode="&#xe4;" 
d="M588 113q0 -11 -1 -32t-1 -31q0 -28 -55 -44q-40 -12 -79 -12q-28 0 -37 8q-4 3 -8.5 17.5t-8.5 14.5q-5 0 -17 -11q-16 -14 -17 -15q-13 -8 -50 -16.5t-55 -8.5q-81 0 -134 36q-61 42 -61 119q0 13 7 34q7 16 13 33q20 60 93 81q21 6 124 18q62 7 62 33q0 6 -4 16t-4 16
q0 7 3 14q-14 42 -45 42q-22 0 -69 -17t-57 -33q-22 -8 -46 -8q-30 0 -51 10v15q-1 30 8.5 45.5t34.5 28.5q75 41 94 41q3 0 8.5 -2t7.5 -2q9 0 26.5 5.5t26.5 5.5q60 0 98 -30q33 -27 60 -86q7 -16 16 -52l4 -59l-8 -9l4 -10l-12 -10q1 -9 15 -15q2 -146 53 -146q3 0 16 23
t19 23q27 0 27 -30zM381 215q0 15 -17 28t-33 13q-5 -6 -17 -7q-8 -1 -22 0q-17 2 -19 2q-5 0 -16 -11q-4 -5 -22 -10.5t-27 -15.5q-13 -16 -42 -46q-8 -8 -8 -24v-21q0 -28 40 -50q34 -20 64 -20q39 0 61 15q13 10 41 48q11 13 11 44q5 3 5 10l-1 8l-10 11q1 8 11 20z
M443 643q1 -59 -38 -59q-32 0 -40 2q-23 6 -23 28q0 6 6.5 13t7.5 9h-2q-15 4 -15 29q0 16 14 32.5t30 16.5q27 0 45 -17q4 -8 14 -25zM266 654q0 -41 -10 -55q-2 -3 -8.5 -3.5t-9 -1.5t-5 -6t-9.5 -5q-24 0 -47 8q-5 1 -13 23.5t-8 29.5q0 20 15.5 46t33.5 26q15 0 33.5 -8
t18.5 -21q0 -3 -1.5 -8t-1.5 -8l1 -3q11 -10 11 -14z" />
    <glyph glyph-name="atilde" unicode="&#xe3;" 
d="M588 113q0 -11 -1 -32t-1 -31q0 -28 -55 -44q-40 -12 -79 -12q-28 0 -37 8q-4 3 -8.5 17.5t-8.5 14.5q-5 0 -17 -11q-16 -14 -17 -15q-13 -8 -50 -16.5t-55 -8.5q-81 0 -134 36q-61 42 -61 119q0 13 7 34q7 16 13 33q20 60 93 81q21 6 124 18q62 7 62 33q0 6 -4 16t-4 16
q0 7 3 14q-14 42 -45 42q-22 0 -69 -17t-57 -33q-22 -8 -46 -8q-30 0 -51 10v15q-1 30 8.5 45.5t34.5 28.5q75 41 94 41q3 0 8.5 -2t7.5 -2q9 0 26.5 5.5t26.5 5.5q60 0 98 -30q33 -27 60 -86q7 -16 16 -52l4 -59l-8 -9l4 -10l-12 -10q1 -9 15 -15q2 -146 53 -146q3 0 16 23
t19 23q27 0 27 -30zM381 215q0 15 -17 28t-33 13q-5 -6 -17 -7q-8 -1 -22 0q-17 2 -19 2q-5 0 -16 -11q-4 -5 -22 -10.5t-27 -15.5q-13 -16 -42 -46q-8 -8 -8 -24v-21q0 -28 40 -50q34 -20 64 -20q39 0 61 15q13 10 41 48q11 13 11 44q5 3 5 10l-1 8l-10 11q1 8 11 20z
M470 679q0 -35 -10 -53t-40 -40q-12 -9 -32 -9q-34 0 -47.5 17.5t-27.5 35.5q-25 23 -34 23q-31 0 -39.5 -9t-14.5 -16q-3 -11 -5.5 -22t-13 -17t-46.5 -6q-5 0 -6 11v22q2 17 2 16q0 3 -4 7t-4 6v2l13 1l-1 -1l5 24q5 20 38 34q28 11 52 11q21 0 60.5 -31t57.5 -31
q23 0 42 25.5t22 25.5q20 0 26.5 -4t6.5 -22z" />
    <glyph glyph-name="aring" unicode="&#xe5;" 
d="M588 113q0 -11 -1 -32t-1 -31q0 -28 -55 -44q-40 -12 -79 -12q-28 0 -37 8q-4 3 -8.5 17.5t-8.5 14.5q-5 0 -17 -11q-16 -14 -17 -15q-13 -8 -50 -16.5t-55 -8.5q-81 0 -134 36q-61 42 -61 119q0 13 7 34q7 16 13 33q20 60 93 81q21 6 124 18q62 7 62 33q0 6 -4 16t-4 16
q0 7 3 14q-14 42 -45 42q-22 0 -69 -17t-57 -33q-22 -8 -46 -8q-30 0 -51 10v15q-1 30 8.5 45.5t34.5 28.5q75 41 94 41q3 0 8.5 -2t7.5 -2q9 0 26.5 5.5t26.5 5.5q60 0 98 -30q33 -27 60 -86q7 -16 16 -52l4 -59l-8 -9l4 -10l-12 -10q1 -9 15 -15q2 -146 53 -146q3 0 16 23
t19 23q27 0 27 -30zM381 215q0 15 -17 28t-33 13q-5 -6 -17 -7q-8 -1 -22 0q-17 2 -19 2q-5 0 -16 -11q-4 -5 -22 -10.5t-27 -15.5q-13 -16 -42 -46q-8 -8 -8 -24v-21q0 -28 40 -50q34 -20 64 -20q39 0 61 15q13 10 41 48q11 13 11 44q5 3 5 10l-1 8l-10 11q1 8 11 20z
M390 615q0 -69 -68 -69q-22 0 -65 9q-5 1 -14.5 14.5t-9.5 18.5t4 12.5t5 9.5q-23 10 -23 40q0 26 25 44q22 16 49 16q37 0 63 -14q8 -10 27 -28q7 -39 7 -53zM339 633q0 10 -17 32q-3 0 -11 1h-11q-11 0 -12 -2q-3 -6 -4 -6q-5 -3 -8.5 -5.5t-3.5 -12.5v-16q0 -5 8 -10
q1 -1 1 -10q0 -14 29 -14q13 0 21 14.5t8 28.5z" />
    <glyph glyph-name="ccedilla" unicode="&#xe7;" 
d="M555 370q0 -15 -43 -54q-4 4 -13 4q-5 0 -15 -1.5t-14 -1.5q-13 0 -30 14v3q0 7 3 22t3 22q0 30 -26 41h-6q-6 -1 -30 10t-27 16q-52 -20 -57 -22q-27 -14 -46 -42q-6 -17 -21 -50q-16 -28 -16 -51q0 -6 -5.5 -21.5t-5.5 -24.5q0 -14 1 -33q17 -25 34 -51q16 -21 52 -36
q25 -11 45 -11q7 0 9 -10l4 1q5 0 9.5 -9t9.5 -10q5 7 18 16q6 6 14 6q3 0 8.5 -2.5t6.5 -2.5q22 0 47 42.5l25 42.5q11 0 24 -8q20 -13 21 -14q-4 -3 -4 -22q0 -15 -11 -27q-13 -17 -16 -24q-2 -11 -12 -30.5t-43 -35.5t-57 -16q5 -22 5 -36q0 -4 -26 -11t-26 -21
q0 -10 24.5 -21t24.5 -26q0 -41 -22 -58q-8 -7 -58 -27q-19 3 -43 15q27 27 27 44q0 10 -12.5 24t-22.5 15q-18 37 -18 52q0 36 41 57q-87 18 -133 89q-43 64 -43 157q0 76 20 109q11 25 34 73q12 6 20 29q10 27 17.5 34.5t25.5 13.5q22 7 28 11q46 27 85 27q20 0 55 -16
q15 -3 41 -12q3 -1 16.5 -13t18 -12t25.5 -22.5t23.5 -22.5t5.5 -8.5t6 -15.5l1 3q7 -4 15.5 -28t8.5 -33z" />
    <glyph glyph-name="eacute" unicode="&#xe9;" 
d="M521 274q0 -14 -9 -25t-23 -11h-114q-5 4 -10 4q-6 0 -14.5 -5t-13.5 -5t-13 10q-6 -4 -28 -4h-4q-6 -6 -14 -6q-1 0 -11 6q-5 3 -52 3q-8 0 -13.5 6.5t-10.5 6.5q-34 0 -34 -63q0 -60 115 -109q24 -10 81 -10q29 0 40 11q42 41 51 82q6 1 21.5 6t29.5 5q16 0 22 -16
q-5 -8 -17 -35q-9 -22 -21 -32q-16 -19 -52 -52q-73 -51 -171 -51q-95 42 -145 108q-14 30 -35 94q-6 27 -6 81q0 73 15 105q16 10 24 26l16 32q0 2 22 25q30 31 73 41q78 17 98 17q52 0 97 -29.5t66 -76.5q3 -20 14 -56q11 -19 22 -37q4 -10 4 -46zM401 300v114
q0 13 -75 13q-57 0 -111 -13q-7 -2 -42 -77q7 -9 28 -19t33 -10q4 0 8 4.5t7 4.5t25.5 -11.5t25.5 -11.5q2 0 5 1h5q5 0 13 -4t13 -4q4 0 8 2q15 0 33 6.5t24 4.5zM484 719l-10 -48q-40 -24 -100 -45l-106 -34q-21 8 -26 26q140 128 183 128q14 0 34 -8t25 -19z" />
    <glyph glyph-name="egrave" unicode="&#xe8;" 
d="M521 274q0 -14 -9 -25t-23 -11h-114q-5 4 -10 4q-6 0 -14.5 -5t-13.5 -5t-13 10q-6 -4 -28 -4h-4q-6 -6 -14 -6q-1 0 -11 6q-5 3 -52 3q-8 0 -13.5 6.5t-10.5 6.5q-34 0 -34 -63q0 -60 115 -109q24 -10 81 -10q29 0 40 11q42 41 51 82q6 1 21.5 6t29.5 5q16 0 22 -16
q-5 -8 -17 -35q-9 -22 -21 -32q-16 -19 -52 -52q-73 -51 -171 -51q-95 42 -145 108q-14 30 -35 94q-6 27 -6 81q0 73 15 105q16 10 24 26l16 32q0 2 22 25q30 31 73 41q78 17 98 17q52 0 97 -29.5t66 -76.5q3 -20 14 -56q11 -19 22 -37q4 -10 4 -46zM401 300v114
q0 13 -75 13q-57 0 -111 -13q-7 -2 -42 -77q7 -9 28 -19t33 -10q4 0 8 4.5t7 4.5t25.5 -11.5t25.5 -11.5q2 0 5 1h5q5 0 13 -4t13 -4q4 0 8 2q15 0 33 6.5t24 4.5zM409 618q-5 -18 -26 -26q-52 17 -105 34q-61 21 -101 45l-9 48q4 11 26 19q19 8 32 8q43 0 183 -128z" />
    <glyph glyph-name="ecircumflex" unicode="&#xea;" 
d="M521 274q0 -14 -9 -25t-23 -11h-114q-5 4 -10 4q-6 0 -14.5 -5t-13.5 -5t-13 10q-6 -4 -28 -4h-4q-6 -6 -14 -6q-1 0 -11 6q-5 3 -52 3q-8 0 -13.5 6.5t-10.5 6.5q-34 0 -34 -63q0 -60 115 -109q24 -10 81 -10q29 0 40 11q42 41 51 82q6 1 21.5 6t29.5 5q16 0 22 -16
q-5 -8 -17 -35q-9 -22 -21 -32q-16 -19 -52 -52q-73 -51 -171 -51q-95 42 -145 108q-14 30 -35 94q-6 27 -6 81q0 73 15 105q16 10 24 26l16 32q0 2 22 25q30 31 73 41q78 17 98 17q52 0 97 -29.5t66 -76.5q3 -20 14 -56q11 -19 22 -37q4 -10 4 -46zM401 300v114
q0 13 -75 13q-57 0 -111 -13q-7 -2 -42 -77q7 -9 28 -19t33 -10q4 0 8 4.5t7 4.5t25.5 -11.5t25.5 -11.5q2 0 5 1h5q5 0 13 -4t13 -4q4 0 8 2q15 0 33 6.5t24 4.5zM462 607q-3 -19 -22 -28q-31 13 -70 39q-33 22 -67 45q-33 -23 -67 -45q-40 -26 -70 -39q-19 9 -23 29
q121 140 159 140q39 0 160 -141z" />
    <glyph glyph-name="edieresis" unicode="&#xeb;" 
d="M521 274q0 -14 -9 -25t-23 -11h-114q-5 4 -10 4q-6 0 -14.5 -5t-13.5 -5t-13 10q-6 -4 -28 -4h-4q-6 -6 -14 -6q-1 0 -11 6q-5 3 -52 3q-8 0 -13.5 6.5t-10.5 6.5q-34 0 -34 -63q0 -60 115 -109q24 -10 81 -10q29 0 40 11q42 41 51 82q6 1 21.5 6t29.5 5q16 0 22 -16
q-5 -8 -17 -35q-9 -22 -21 -32q-16 -19 -52 -52q-73 -51 -171 -51q-95 42 -145 108q-14 30 -35 94q-6 27 -6 81q0 73 15 105q16 10 24 26l16 32q0 2 22 25q30 31 73 41q78 17 98 17q52 0 97 -29.5t66 -76.5q3 -20 14 -56q11 -19 22 -37q4 -10 4 -46zM401 300v114
q0 13 -75 13q-57 0 -111 -13q-7 -2 -42 -77q7 -9 28 -19t33 -10q4 0 8 4.5t7 4.5t25.5 -11.5t25.5 -11.5q2 0 5 1h5q5 0 13 -4t13 -4q4 0 8 2q15 0 33 6.5t24 4.5zM463 643q1 -59 -38 -59q-32 0 -40 2q-23 6 -23 28q0 6 6.5 13t7.5 9h-2q-15 4 -15 29q0 16 14 32.5t30 16.5
q27 0 45 -17q4 -8 14 -25zM286 654q0 -41 -10 -55q-2 -3 -8.5 -3.5t-9 -1.5t-5 -6t-9.5 -5q-24 0 -47 8q-5 1 -13 23.5t-8 29.5q0 20 15.5 46t33.5 26q15 0 33.5 -8t18.5 -21q0 -3 -1.5 -8t-1.5 -8l1 -3q11 -10 11 -14z" />
    <glyph glyph-name="iacute" unicode="&#xed;" 
d="M532 48q0 -10 -9 -28q-10 -21 -19 -21h-33q-43 0 -65 6q-5 5 -10 5q-13 -10 -21 -10q-13 11 -20 15h-3q-22 -15 -19 -15h-181q-17 0 -17 26q0 8 6 22.5t6 16.5q0 13 78 15q20 15 18 15q2 0 5.5 -1t5.5 -1q19 15 21.5 36.5t8 26t15 11t9.5 9.5v117q0 28 -17 50q0 6 3.5 19
t3.5 20q0 1 -21.5 24t-24.5 30q-4 -1 -14.5 -7.5t-16.5 -6.5q-3 0 -10 3t-11 3q-9 0 -18 -5l-40 4q-13 3 -31 24v2q0 16 6 34q7 24 20 24q4 0 18.5 -5.5t23.5 -5.5q4 0 13.5 2.5t14.5 1.5q5 5 11 5q3 0 8.5 -2t8.5 -3l5 4l49 -7q12 6 12 8q0 5 -3 10q15 6 24 6t23 -7h10
q33 1 33 -100l3 -262q0 -43 36 -56q8 -2 68 -8q36 -4 36 -25v-9q1 -7 1 -10zM484 719l-10 -48q-40 -24 -100 -45l-106 -34q-21 8 -26 26q140 128 183 128q14 0 34 -8t25 -19z" />
    <glyph glyph-name="igrave" unicode="&#xec;" 
d="M532 48q0 -10 -9 -28q-10 -21 -19 -21h-33q-43 0 -65 6q-5 5 -10 5q-13 -10 -21 -10q-13 11 -20 15h-3q-22 -15 -19 -15h-181q-17 0 -17 26q0 8 6 22.5t6 16.5q0 13 78 15q20 15 18 15q2 0 5.5 -1t5.5 -1q19 15 21.5 36.5t8 26t15 11t9.5 9.5v117q0 28 -17 50q0 6 3.5 19
t3.5 20q0 1 -21.5 24t-24.5 30q-4 -1 -14.5 -7.5t-16.5 -6.5q-3 0 -10 3t-11 3q-9 0 -18 -5l-40 4q-13 3 -31 24v2q0 16 6 34q7 24 20 24q4 0 18.5 -5.5t23.5 -5.5q4 0 13.5 2.5t14.5 1.5q5 5 11 5q3 0 8.5 -2t8.5 -3l5 4l49 -7q12 6 12 8q0 5 -3 10q15 6 24 6t23 -7h10
q33 1 33 -100l3 -262q0 -43 36 -56q8 -2 68 -8q36 -4 36 -25v-9q1 -7 1 -10zM409 618q-5 -18 -26 -26q-52 17 -105 34q-61 21 -101 45l-9 48q4 11 26 19q19 8 32 8q43 0 183 -128z" />
    <glyph glyph-name="icircumflex" unicode="&#xee;" 
d="M532 48q0 -10 -9 -28q-10 -21 -19 -21h-33q-43 0 -65 6q-5 5 -10 5q-13 -10 -21 -10q-13 11 -20 15h-3q-22 -15 -19 -15h-181q-17 0 -17 26q0 8 6 22.5t6 16.5q0 13 78 15q20 15 18 15q2 0 5.5 -1t5.5 -1q19 15 21.5 36.5t8 26t15 11t9.5 9.5v117q0 28 -17 50q0 6 3.5 19
t3.5 20q0 1 -21.5 24t-24.5 30q-4 -1 -14.5 -7.5t-16.5 -6.5q-3 0 -10 3t-11 3q-9 0 -18 -5l-40 4q-13 3 -31 24v2q0 16 6 34q7 24 20 24q4 0 18.5 -5.5t23.5 -5.5q4 0 13.5 2.5t14.5 1.5q5 5 11 5q3 0 8.5 -2t8.5 -3l5 4l49 -7q12 6 12 8q0 5 -3 10q15 6 24 6t23 -7h10
q33 1 33 -100l3 -262q0 -43 36 -56q8 -2 68 -8q36 -4 36 -25v-9q1 -7 1 -10zM462 607q-3 -19 -22 -28q-31 13 -70 39q-33 22 -67 45q-33 -23 -67 -45q-40 -26 -70 -39q-19 9 -23 29q121 140 159 140q39 0 160 -141z" />
    <glyph glyph-name="idieresis" unicode="&#xef;" 
d="M532 48q0 -10 -9 -28q-10 -21 -19 -21h-33q-43 0 -65 6q-5 5 -10 5q-13 -10 -21 -10q-13 11 -20 15h-3q-22 -15 -19 -15h-181q-17 0 -17 26q0 8 6 22.5t6 16.5q0 13 78 15q20 15 18 15q2 0 5.5 -1t5.5 -1q19 15 21.5 36.5t8 26t15 11t9.5 9.5v117q0 28 -17 50q0 6 3.5 19
t3.5 20q0 1 -21.5 24t-24.5 30q-4 -1 -14.5 -7.5t-16.5 -6.5q-3 0 -10 3t-11 3q-9 0 -18 -5l-40 4q-13 3 -31 24v2q0 16 6 34q7 24 20 24q4 0 18.5 -5.5t23.5 -5.5q4 0 13.5 2.5t14.5 1.5q5 5 11 5q3 0 8.5 -2t8.5 -3l5 4l49 -7q12 6 12 8q0 5 -3 10q15 6 24 6t23 -7h10
q33 1 33 -100l3 -262q0 -43 36 -56q8 -2 68 -8q36 -4 36 -25v-9q1 -7 1 -10zM463 643q1 -59 -38 -59q-32 0 -40 2q-23 6 -23 28q0 6 6.5 13t7.5 9h-2q-15 4 -15 29q0 16 14 32.5t30 16.5q27 0 45 -17q4 -8 14 -25zM286 654q0 -41 -10 -55q-2 -3 -8.5 -3.5t-9 -1.5t-5 -6
t-9.5 -5q-24 0 -47 8q-5 1 -13 23.5t-8 29.5q0 20 15.5 46t33.5 26q15 0 33.5 -8t18.5 -21q0 -3 -1.5 -8t-1.5 -8l1 -3q11 -10 11 -14z" />
    <glyph glyph-name="ntilde" unicode="&#xf1;" 
d="M598 50q0 -17 -12 -40q-46 -10 -90 -10q-92 0 -116 8l-1 49q23 6 65 27q18 14 18 95q0 97 -16 173q-6 7 -32 27t-30 20h-42q-12 0 -24 -6l-50 -14q-26 -10 -26 -39q0 -4 1.5 -12t1.5 -13t-7 -15.5t-7 -21.5q0 -4 1 -12t1 -12q0 -132 -1 -80q2 -81 16 -88l68 -35v-5
q0 -19 -15 -30t-35 -11h-189q-25 0 -25 36q42 46 74 65q7 2 18 9q-3 6 -7 17q12 31 12 58t-4 58q6 2 6 10q0 67 -20 97q-11 16 -43.5 33.5t-45.5 41.5q6 26 7 30q6 12 22 19q20 8 66 8q40 0 55 -12q32 -27 38 -30q99 48 139 48q48 0 98 -27q17 -9 36 -26q2 -12 5 -36
q3 -16 17 -57q13 -35 14 -57q2 -47 5 -140q2 -37 2 -38q3 -23 16 -33q12 -5 36 -17v-12zM470 679q0 -35 -10 -53t-40 -40q-12 -9 -32 -9q-34 0 -47.5 17.5t-27.5 35.5q-25 23 -34 23q-31 0 -39.5 -9t-14.5 -16q-3 -11 -5.5 -22t-13 -17t-46.5 -6q-5 0 -6 11v22q2 17 2 16
q0 3 -4 7t-4 6v2l13 1l-1 -1l5 24q5 20 38 34q28 11 52 11q21 0 60.5 -31t57.5 -31q23 0 42 25.5t22 25.5q20 0 26.5 -4t6.5 -22z" />
    <glyph glyph-name="oacute" unicode="&#xf3;" 
d="M547 238q0 -89 -52 -157q-48 -26 -105 -84q-20 -8 -37 -8q-23 0 -66 8q-46 8 -66 9q-10 5 -47.5 34.5t-44.5 36.5q-17 21 -35 109q-15 78 -15 118q0 10 3 18q25 63 88 125q71 69 131 69q139 0 197 -97q17 -29 36 -103q13 -48 13 -78zM454 237q-20 63 -27 82
q-13 33 -71 82q-24 7 -43 7q-30 0 -67.5 -27t-39.5 -27l-1 1q8 9 8 22q0 26 -11 26q-26 0 -26 -26q0 -12 20 -40v-1q0 -9 -12.5 -34t-12.5 -42q0 -57 44.5 -109t100.5 -52q47 0 105 50q9 8 31 78q2 8 2 10zM484 719l-10 -48q-40 -24 -100 -45l-106 -34q-21 8 -26 26
q140 128 183 128q14 0 34 -8t25 -19z" />
    <glyph glyph-name="ograve" unicode="&#xf2;" 
d="M547 238q0 -89 -52 -157q-48 -26 -105 -84q-20 -8 -37 -8q-23 0 -66 8q-46 8 -66 9q-10 5 -47.5 34.5t-44.5 36.5q-17 21 -35 109q-15 78 -15 118q0 10 3 18q25 63 88 125q71 69 131 69q139 0 197 -97q17 -29 36 -103q13 -48 13 -78zM454 237q-20 63 -27 82
q-13 33 -71 82q-24 7 -43 7q-30 0 -67.5 -27t-39.5 -27l-1 1q8 9 8 22q0 26 -11 26q-26 0 -26 -26q0 -12 20 -40v-1q0 -9 -12.5 -34t-12.5 -42q0 -57 44.5 -109t100.5 -52q47 0 105 50q9 8 31 78q2 8 2 10zM409 618q-5 -18 -26 -26q-52 17 -105 34q-61 21 -101 45l-9 48
q4 11 26 19q19 8 32 8q43 0 183 -128z" />
    <glyph glyph-name="ocircumflex" unicode="&#xf4;" 
d="M547 238q0 -89 -52 -157q-48 -26 -105 -84q-20 -8 -37 -8q-23 0 -66 8q-46 8 -66 9q-10 5 -47.5 34.5t-44.5 36.5q-17 21 -35 109q-15 78 -15 118q0 10 3 18q25 63 88 125q71 69 131 69q139 0 197 -97q17 -29 36 -103q13 -48 13 -78zM454 237q-20 63 -27 82
q-13 33 -71 82q-24 7 -43 7q-30 0 -67.5 -27t-39.5 -27l-1 1q8 9 8 22q0 26 -11 26q-26 0 -26 -26q0 -12 20 -40v-1q0 -9 -12.5 -34t-12.5 -42q0 -57 44.5 -109t100.5 -52q47 0 105 50q9 8 31 78q2 8 2 10zM462 607q-3 -19 -22 -28q-31 13 -70 39q-33 22 -67 45
q-33 -23 -67 -45q-40 -26 -70 -39q-19 9 -23 29q121 140 159 140q39 0 160 -141z" />
    <glyph glyph-name="odieresis" unicode="&#xf6;" 
d="M463 643q1 -59 -38 -59q-32 0 -40 2q-23 6 -23 28q0 6 6.5 13t7.5 9h-2q-15 4 -15 29q0 16 14 32.5t30 16.5q27 0 45 -17q4 -8 14 -25zM286 654q0 -41 -10 -55q-2 -3 -8.5 -3.5t-9 -1.5t-5 -6t-9.5 -5q-24 0 -47 8q-5 1 -13 23.5t-8 29.5q0 20 15.5 46t33.5 26
q15 0 33.5 -8t18.5 -21q0 -3 -1.5 -8t-1.5 -8l1 -3q11 -10 11 -14zM538 238q0 -89 -52 -157q-8 -5 -44.5 -41.5t-41.5 -36.5t-11 11t-11 12q-8 -3 -18 -20t-15 -17q-24 0 -66 8q-46 8 -66 9q-12 5 -27 19q-24 16 -65 52q-10 12 -26 69t-16 76q0 5 1 14.5t1 13.5q0 12 -4 34
t-4 34q0 10 27 51q96 147 192 147q139 0 197 -97q18 -29 37 -103q12 -48 12 -78zM459 252q-16 2 -40 67q-13 33 -71 82q-24 7 -44 7q-14 0 -28 -6q-21 -10 -25 -11q3 -9 3 -16q0 -13 -14.5 -26t-27.5 -13q-4 0 -11 1.5t-10 1.5l-3 -2v-1q0 -9 -13 -34t-13 -42q0 -57 45 -109
t101 -52q47 0 105 50q10 9 18 37q11 38 12 41q7 8 16 25z" />
    <glyph glyph-name="otilde" unicode="&#xf5;" 
d="M547 238q0 -89 -52 -157q-48 -26 -105 -84q-20 -8 -37 -8q-23 0 -66 8q-46 8 -66 9q-10 5 -47.5 34.5t-44.5 36.5q-17 21 -35 109q-15 78 -15 118q0 10 3 18q25 63 88 125q71 69 131 69q139 0 197 -97q17 -29 36 -103q13 -48 13 -78zM454 237q-20 63 -27 82
q-13 33 -71 82q-24 7 -43 7q-30 0 -67.5 -27t-39.5 -27l-1 1q8 9 8 22q0 26 -11 26q-26 0 -26 -26q0 -12 20 -40v-1q0 -9 -12.5 -34t-12.5 -42q0 -57 44.5 -109t100.5 -52q47 0 105 50q9 8 31 78q2 8 2 10zM470 679q0 -35 -10 -53t-40 -40q-12 -9 -32 -9q-34 0 -47.5 17.5
t-27.5 35.5q-25 23 -34 23q-31 0 -39.5 -9t-14.5 -16q-3 -11 -5.5 -22t-13 -17t-46.5 -6q-5 0 -6 11v22q2 17 2 16q0 3 -4 7t-4 6v2l13 1l-1 -1l5 24q5 20 38 34q28 11 52 11q21 0 60.5 -31t57.5 -31q23 0 42 25.5t22 25.5q20 0 26.5 -4t6.5 -22z" />
    <glyph glyph-name="uacute" unicode="&#xfa;" 
d="M611 26q0 -7 -21 -11q-6 -1 -18.5 -6t-21.5 -5q-37 0 -99 37q-41 -13 -83 -27q-50 -14 -85 -14q-181 0 -182 148l-2 217q0 33 -17 44q-21 10 -43 20q-11 28 -11 41q0 26 8 29v-2q8 13 33 13q6 0 18.5 -2.5t19.5 -2.5q110 0 110 -31q0 -20 -5.5 -59t-5.5 -59
q0 -15 3 -45.5t3 -45.5q0 -5 -4 -12.5t-4 -10.5q0 -7 4.5 -21.5t4.5 -21.5q0 -6 -3 -17.5t-3 -17.5q0 -12 -6 -16.5t-6 -6.5l2 -3q11 1 9 1q3 0 6 -5q18 -31 72 -39q21 -3 47 -3q32 0 42 11q7 19 30 27t24 8q11 15 11 150q0 81 -11.5 105.5t-45.5 37.5q-6 -6 -25 -6
q-63 0 -63 46q0 36 27 36q5 0 16 -1.5t17 -1.5q9 0 28 2t28 2q79 0 121 -24v-54q0 -40 5 -65q5 -18 5 -23q0 -4 -9 -10t-9 -9q0 -1 16 -7q1 -4 1 -14q0 -89 -15 -105l-3 -8q12 -3 12 -9q0 -64 39 -82q14 -4 38 -17q0 -9 1 -28v-27zM484 719l-10 -48q-40 -24 -100 -45
l-106 -34q-21 8 -26 26q140 128 183 128q14 0 34 -8t25 -19z" />
    <glyph glyph-name="ugrave" unicode="&#xf9;" 
d="M611 26q0 -7 -21 -11q-6 -1 -18.5 -6t-21.5 -5q-37 0 -99 37q-41 -13 -83 -27q-50 -14 -85 -14q-181 0 -182 148l-2 217q0 33 -17 44q-21 10 -43 20q-11 28 -11 41q0 26 8 29v-2q8 13 33 13q6 0 18.5 -2.5t19.5 -2.5q110 0 110 -31q0 -20 -5.5 -59t-5.5 -59
q0 -15 3 -45.5t3 -45.5q0 -5 -4 -12.5t-4 -10.5q0 -7 4.5 -21.5t4.5 -21.5q0 -6 -3 -17.5t-3 -17.5q0 -12 -6 -16.5t-6 -6.5l2 -3q11 1 9 1q3 0 6 -5q18 -31 72 -39q21 -3 47 -3q32 0 42 11q7 19 30 27t24 8q11 15 11 150q0 81 -11.5 105.5t-45.5 37.5q-6 -6 -25 -6
q-63 0 -63 46q0 36 27 36q5 0 16 -1.5t17 -1.5q9 0 28 2t28 2q79 0 121 -24v-54q0 -40 5 -65q5 -18 5 -23q0 -4 -9 -10t-9 -9q0 -1 16 -7q1 -4 1 -14q0 -89 -15 -105l-3 -8q12 -3 12 -9q0 -64 39 -82q14 -4 38 -17q0 -9 1 -28v-27zM409 618q-5 -18 -26 -26q-52 17 -105 34
q-61 21 -101 45l-9 48q4 11 26 19q19 8 32 8q43 0 183 -128z" />
    <glyph glyph-name="ucircumflex" unicode="&#xfb;" 
d="M611 26q0 -7 -21 -11q-6 -1 -18.5 -6t-21.5 -5q-37 0 -99 37q-41 -13 -83 -27q-50 -14 -85 -14q-181 0 -182 148l-2 217q0 33 -17 44q-21 10 -43 20q-11 28 -11 41q0 26 8 29v-2q8 13 33 13q6 0 18.5 -2.5t19.5 -2.5q110 0 110 -31q0 -20 -5.5 -59t-5.5 -59
q0 -15 3 -45.5t3 -45.5q0 -5 -4 -12.5t-4 -10.5q0 -7 4.5 -21.5t4.5 -21.5q0 -6 -3 -17.5t-3 -17.5q0 -12 -6 -16.5t-6 -6.5l2 -3q11 1 9 1q3 0 6 -5q18 -31 72 -39q21 -3 47 -3q32 0 42 11q7 19 30 27t24 8q11 15 11 150q0 81 -11.5 105.5t-45.5 37.5q-6 -6 -25 -6
q-63 0 -63 46q0 36 27 36q5 0 16 -1.5t17 -1.5q9 0 28 2t28 2q79 0 121 -24v-54q0 -40 5 -65q5 -18 5 -23q0 -4 -9 -10t-9 -9q0 -1 16 -7q1 -4 1 -14q0 -89 -15 -105l-3 -8q12 -3 12 -9q0 -64 39 -82q14 -4 38 -17q0 -9 1 -28v-27zM462 607q-3 -19 -22 -28q-31 13 -70 39
q-33 22 -67 45q-33 -23 -67 -45q-40 -26 -70 -39q-19 9 -23 29q121 140 159 140q39 0 160 -141z" />
    <glyph glyph-name="udieresis" unicode="&#xfc;" 
d="M611 26q0 -7 -21 -11q-6 -1 -18.5 -6t-21.5 -5q-37 0 -99 37q-41 -13 -83 -27q-50 -14 -85 -14q-181 0 -182 148l-2 217q0 33 -17 44q-21 10 -43 20q-11 28 -11 41q0 26 8 29v-2q8 13 33 13q6 0 18.5 -2.5t19.5 -2.5q110 0 110 -31q0 -20 -5.5 -59t-5.5 -59
q0 -15 3 -45.5t3 -45.5q0 -5 -4 -12.5t-4 -10.5q0 -7 4.5 -21.5t4.5 -21.5q0 -6 -3 -17.5t-3 -17.5q0 -12 -6 -16.5t-6 -6.5l2 -3q11 1 9 1q3 0 6 -5q18 -31 72 -39q21 -3 47 -3q32 0 42 11q7 19 30 27t24 8q11 15 11 150q0 81 -11.5 105.5t-45.5 37.5q-6 -6 -25 -6
q-63 0 -63 46q0 36 27 36q5 0 16 -1.5t17 -1.5q9 0 28 2t28 2q79 0 121 -24v-54q0 -40 5 -65q5 -18 5 -23q0 -4 -9 -10t-9 -9q0 -1 16 -7q1 -4 1 -14q0 -89 -15 -105l-3 -8q12 -3 12 -9q0 -64 39 -82q14 -4 38 -17q0 -9 1 -28v-27zM463 643q1 -59 -38 -59q-32 0 -40 2
q-23 6 -23 28q0 6 6.5 13t7.5 9h-2q-15 4 -15 29q0 16 14 32.5t30 16.5q27 0 45 -17q4 -8 14 -25zM286 654q0 -41 -10 -55q-2 -3 -8.5 -3.5t-9 -1.5t-5 -6t-9.5 -5q-24 0 -47 8q-5 1 -13 23.5t-8 29.5q0 20 15.5 46t33.5 26q15 0 33.5 -8t18.5 -21q0 -3 -1.5 -8t-1.5 -8
l1 -3q11 -10 11 -14z" />
    <glyph glyph-name="dagger" unicode="&#x2020;" 
d="M497 479q-7 -14 -25.5 -24.5t-34.5 -10.5q-7 0 -21 2t-22 2q-3 0 -17 -2q-17 -55 -17 -142q0 -45 1 -135t1 -135q0 -33 -7 -62q-11 -42 -32 -42q-11 0 -23 12q-15 92 -15 304q0 58 -15 172q-17 31 -42 31q-7 0 -21 -2.5t-21 -2.5q-3 0 -43 12q-7 12 -7 30q0 5 1 14t1 14
q0 9 22 12q14 2 29 4q55 14 70 44q8 16 12 60t13 61q14 28 50 28q15 0 26 -32q1 -4 1 -89q0 -56 46 -56l4 -3q4 2 12 4h32q8 1 16 -4q17 0 23 -25q3 -14 3 -39z" />
    <glyph glyph-name="degree" unicode="&#xb0;" 
d="M390 615q0 -69 -68 -69q-22 0 -65 9q-5 1 -14.5 14.5t-9.5 18.5t4 12.5t5 9.5q-23 10 -23 40q0 26 25 44q22 16 49 16q37 0 63 -14q8 -10 27 -28q7 -39 7 -53zM345 633q0 12 -20 39q-4 0 -12.5 1t-12.5 1q-14 0 -16 -5t-3 -6q-6 -4 -13 -7q-2 -3 -2 -21v-13q0 -6 10 -13
q1 0 1 -12q0 -17 33 -17q16 0 25.5 18t9.5 35z" />
    <glyph glyph-name="cent" unicode="&#xa2;" 
d="M462 376q0 -24 -33 -56q-13 14 -40 36v9q1 8 -9 16t-10 10q0 33 -28 48q-2 -27 -13 -66q-10 -32 -19 -65q-3 -12 -7 -81q-2 -62 -9 -72q-4 -5 -9 -15l2 1q17 14 30 14q4 0 15 -7.5t13 -7.5q18 0 36.5 32.5t20.5 32.5q22 0 42 -10q-5 -4 -5 -16q-1 -17 -2 -19
q-3 -10 -10.5 -17.5t-8.5 -11.5q-2 -9 -9 -27q-14 -22 -47 -35q-29 -11 -58 -11q-16 0 -42 2q1 -4 1 -9q0 -51 -24 -100q-4 -3 -8 -3q-54 0 -54 53q0 31 14 79q-105 52 -105 201q0 61 22.5 106t46.5 92q7 3 59 42q32 24 73 21l20 117q4 20 35 20q29 0 44 -10q9 -20 9 -32
q0 -10 -21 -60q-19 -46 -28 -60q15 -10 41 -21q11 5 17 5q3 0 9 -18q4 -14 29 -52q20 -31 20 -55zM268 437q-28 -19 -58 -59q-33 -44 -33 -73q0 -21 10 -124q6 -7 29 -19q19 54 40 132q0 10 -1 27v27q0 2 13 89z" />
    <glyph glyph-name="sterling" unicode="&#xa3;" 
d="M515 458q-3 -10 -21.5 -17.5t-31.5 -7.5q-6 0 -33 39t-40 39q-11 0 -29.5 -7t-25.5 -7q-6 0 -14 8t-10 8l-19 -24q-50 0 -56 -67q-4 -2 -4 -7q0 -6 4.5 -17.5t4.5 -17.5q0 -27 18 -43t45 -16q25 0 32 4q9 -13 9 -38q0 -5 -12.5 -16.5t-16.5 -11.5q-3 0 -9 3.5t-9 3.5
q-2 -3 -30 -23q-22 -15 -22 -43l23 -23q10 -46 10 -51q0 -8 -4 -22t-4 -21t7 -8q7 -9 49 -9q14 0 40.5 1t39.5 1q45 0 62 -10q10 -7 15.5 -28t17.5 -33q-42 -11 -133 -11h-46q-176 0 -249 32q27 51 50 51q7 0 20.5 -2.5t20.5 -2.5q15 0 32 13.5t17 28.5q0 6 -30 70l9 67
q-10 8 -45.5 8t-35.5 38q0 23 6 32.5t28 9.5q1 0 29 -3l9 -5q6 1 6 12q0 4 -2 53l-19 34q-3 20 -3 22q0 47 37 100q40 57 85 57q7 17 65 17q10 0 34.5 -5.5t24.5 -10.5q0 -2 -1.5 -5.5t-1.5 -5.5q0 -5 4 -7q8 5 22 12q6 0 17 -9.5t14 -9.5q8 0 21 -56.5t29 -62.5z" />
    <glyph glyph-name="section" unicode="&#xa7;" 
d="M512 355q0 -5 -13 -57q-5 -22 -41 -56q-27 -25 -55 -49q15 -18 30 -35q15 -22 15 -43q-13 -16 -36 -51l-16 -35q-19 -13 -51.5 -24.5t-54.5 -11.5q-24 0 -21 0q-4 2 -54 16q-29 7 -57 39.5t-28 61.5q25 46 46 46q22 -11 41 -34v-17h-1q1 -4 6.5 -11t5.5 -10q12 -3 32 -14
q15 0 24 6q19 -6 21 -6t28 6q2 2 34 36q-17 52 -71 75q-72 29 -96 55q-26 4 -45 43q-22 6 -35 47q-9 31 -9 62q0 25 43 71q8 37 43 41l11 12q-34 35 -34 77q0 36 31 61l54 44q22 6 47 11l27 -12l23 4l78 -46q25 -37 26 -61l-18 -36t-32 -18q0 8 -16 9q6 0 -22 -1l-4 26l6 28
q-24 16 -45 16q-14 0 -38 -14t-24 -26l-1 -36l86 -56q28 -12 83 -42l57 -57q20 -19 20 -34zM431 314l-1 16q-18 21 -53 42q-29 18 -58 35l-3 7q-30 0 -43 35q-20 -3 -33 -22q-39 0 -47 -65l26 -32q18 -20 31 -24q0 -13 24 -22q20 -8 34 -5l10 -17l29 -15v-4q0 -5 3 -5
q4 0 12.5 6.5t10.5 6.5q6 19 44 45q3 6 14 18z" />
    <glyph glyph-name="bullet" unicode="&#x2022;" 
d="M438 364q0 -30 -6 -62q-9 -44 -24.5 -52.5t-55.5 -8.5q-59 0 -82 6q-16 5 -34 45t-18 59q0 40 30 85q33 50 71 50q54 0 88 -31q8 -6 16 -23t15 -24v-44z" />
    <glyph glyph-name="paragraph" unicode="&#xb6;" 
d="M580 637q0 -22 -18 -28q-1 0 -37 -4q0 -134 -1 -267q-1 -159 -10 -267q-6 0 20 0q38 0 38 -37q0 -8 -8 -21.5t-16 -19.5q-35 -4 -80 -5q-31 0 -81 1q-61 1 -81 1q-65 0 -65 65q0 7 19 17q1 1 62 16q42 10 42 35q0 31 -7 53l5 15q6 2 6 5q0 5 -12 11q5 35 5 58
q0 39 -26 39q-53 0 -75 -4q-6 -1 -21 -8t-24 -7q-5 0 -14.5 2t-13.5 2q-38 19 -75 37q-37 24 -54 62q-3 6 -5 22q-1 10 -12 21q-20 18 -20 66q0 76 48 135t122 66q14 2 49 2q25 0 76.5 -3t77.5 -3q43 0 174 -3q12 -17 12 -54zM469 332q0 -3 -2 269q-16 -1 -31 -3
q-2 -10 -2 -73q0 -29 -4.5 -87.5t-4.5 -87.5q0 -3 1.5 -9t1.5 -9q0 -5 -2 -14.5t-2 -14.5q0 -6 1.5 -17t1.5 -17v-67q0 -14 -3.5 -42t-3.5 -42q0 -28 6.5 -35t33.5 -9q3 19 3 27q5 8 5 35q0 10 -2 31.5t-2 32.5q0 22 2.5 66t2.5 66zM368 515l-5 100q-12 5 -17 5
q-3 0 -5.5 -2t-4.5 -2q-3 0 -7.5 2t-6.5 2q5 0 -10 -3l-5 5q-6 2 -11 2t-15 -3t-15 -3h-11q-8 1 -11 1q-9 0 -25.5 -2t-25.5 -2q-22 0 -55 -38t-33 -61q0 -141 143 -141q13 0 35 9t32 9q5 0 15.5 -2.5t15.5 -2.5q14 0 14 11q0 6 -4.5 17.5t-4.5 17.5q2 10 12 8q0 19 2 56
q3 23 3 17z" />
    <glyph glyph-name="germandbls" unicode="&#xdf;" 
d="M581 227q0 -3 -1 -12q-1 -8 0 -12q-10 -19 -18 -54q-9 -40 -15 -54q-17 -44 -32.5 -58t-60.5 -31q-15 -6 -42 -6h-46q-9 9 -9 29q0 14 5 33q17 13 44.5 16t35.5 8q30 19 37 56.5t15 42.5q-16 14 -16 26q0 3 17 27q-2 4 -6.5 6.5t-4.5 3.5q0 18 -36.5 48t-55.5 30t-35 15
t-16 34q0 26 21 39q11 1 28 8l26 11q9 8 27.5 32t18.5 30t-3.5 17.5t-3.5 17.5q0 25 -39 79q-19 14 -70 14q-31 0 -37 -2q-17 -2 -31.5 -28t-14.5 -44v-415q0 -7 -2 -22t-2 -22q0 -19 10.5 -21.5t21.5 -4.5q10 -8 10 -41q0 -16 -10 -23q-33 -5 -72 -5h-137q-20 0 -26 21
q-1 5 -2 37q8 6 11.5 18t9.5 16q10 6 40 6q2 0 29 3q17 17 23 33q2 8 6 39q13 2 21 1q1 -2 1 13q0 7 -15 11q-4 -1 -5 -6l-1 1q-3 87 -3 99q0 39 -13 47q-24 8 -48 15q-9 4 -19 8t-10 14q0 31 24.5 43.5t48.5 23.5q17 12 19 72q2 71 7 82q4 18 18 50q41 73 148 73
q121 0 166 -78q11 -23 37 -69l-3.5 -7t-2.5 -9q0 -6 4 -13l-14 -58q-9 -37 -26 -50q-4 -12 -21 -27.5t-21 -24.5q98 -44 105 -101q1 -12 6 -36q5 -4 5 -15z" />
    <glyph glyph-name="registered" unicode="&#xae;" 
d="M569 281q0 -111 -78.5 -190.5t-187.5 -79.5q-115 0 -192.5 77.5t-77.5 192.5q0 113 78 192.5t192 79.5q111 0 188.5 -80.5t77.5 -191.5zM531 280q0 97 -66.5 170.5t-161.5 73.5q-96 0 -164 -73.5t-68 -170.5q0 -98 67 -170t165 -72q95 0 161.5 73t66.5 169zM441 138
l-58 1q-5 0 -21 38q-25 60 -63 95h-35v-82q1 -25 6.5 -30t33.5 -5v-17h-135v17q28 2 31 4q8 4 8 29v215q-3 7 -17 10q-20 4 -22 5v14h144q39 0 65 -16q30 -20 30 -57q0 -52 -63 -78q17 -19 48 -59q14 -29 48 -74v-10zM348 354q0 59 -52 59h-32v-121q24 -1 20 -1q36 0 50 14
t14 49z" />
    <glyph glyph-name="copyright" unicode="&#xa9;" 
d="M592 290q0 -112 -77 -190.5t-189 -78.5t-191.5 78.5t-79.5 190.5t79 192t190 80q112 0 190 -80t78 -192zM554 289q0 96 -65 169q-68 76 -163 76q-97 0 -164 -73t-67 -171q0 -94 66.5 -168t159.5 -74q97 0 165 71.5t68 169.5zM442 230q2 -24 -3 -72h-5q-16 0 -46 -8.5
t-46 -8.5q-75 0 -122 39q-50 42 -50 115q0 70 55 116q52 43 124 43q55 0 90 -26l-10 -64h-18q-4 36 -18 52.5t-50 16.5q-54 0 -81 -42q-23 -36 -23 -93q0 -136 108 -136q35 0 52 18q9 10 26 50h17z" />
    <glyph glyph-name="trademark" unicode="&#x2122;" 
d="M608 379h-106v19q22 0 27.5 5t5.5 25v211l2 -2l1 1l-96 -259h-8l-93 248v-208q0 -18 30 -21v-19h-82v19q31 3 31 21v209q0 17 -4 20.5t-22 3.5v17h74l80 -212l83 212h75v-17h-13q-18 1 -18 -12v-215q0 -19 8 -23q5 -4 25 -4v-19zM251 597h-19q0 29 -9 40t-38 11h-24v-230
q0 -15 15 -19q4 -1 26 -1v-19h-121v19h14q26 0 26 22v228h-24q-29 0 -37.5 -11t-8.5 -40h-20v72h220v-72z" />
    <glyph glyph-name="acute" unicode="&#xb4;" 
d="M484 719l-10 -48q-40 -24 -100 -45l-106 -34q-21 8 -26 26q140 128 183 128q14 0 34 -8t25 -19z" />
    <glyph glyph-name="dieresis" unicode="&#xa8;" 
d="M463 643q1 -59 -38 -59q-32 0 -40 2q-23 6 -23 28q0 6 6.5 13t7.5 9h-2q-15 4 -15 29q0 16 14 32.5t30 16.5q27 0 45 -17q4 -8 14 -25zM286 654q0 -41 -10 -55q-2 -3 -8.5 -3.5t-9 -1.5t-5 -6t-9.5 -5q-24 0 -47 8q-5 1 -13 23.5t-8 29.5q0 20 15.5 46t33.5 26
q15 0 33.5 -8t18.5 -21q0 -3 -1.5 -8t-1.5 -8l1 -3q11 -10 11 -14z" />
    <glyph glyph-name="AE" unicode="&#xc6;" 
d="M611 606q0 -61 -5 -99q-3 -19 -15 -19q-76 0 -75 37v14q0 4 -2 10l5 22l-8 13q-26 3 -25 7h-37q-39 0 -39 -67q0 -18 6 -117q2 -25 9 -34q8 -12 32 -12q44 0 55 10q4 8 9 17t33 9l18 -1q9 -11 9 -36q0 -15 -5 -19v-21l-2 -63q-6 -9 -13 -9q-34 0 -45 17q0 19 -38 19
q-52 0 -61 -11q0 -35 1 -70q2 -41 10 -68.5t26 -34.5q11 -4 44 -4q15 0 24 32q6 25 13 50q6 1 12 1q9 0 25.5 -2.5t25.5 -2.5q5 0 4 -16v6v2q-2 -10 -2 -21q0 -18 5 -53.5t5 -53.5q0 -30 -23 -38q-12 -5 -48 -5q-9 0 -16 1h1q-5 2 -19 2q-20 0 -59 -1.5t-58 -1.5q-5 0 -15 2
t-14 3q-6 0 -15 -1h-14q-55 0 -55 13q0 12 11 35l56 27q5 32 5 61q0 110 -5 131q-3 0 -9 -2t-9 -2q-12 0 -35.5 4t-34.5 4q-13 0 -34 -26q-9 -11 -16 -34q-8 -27 -14 -36q-36 -60 -36 -76q0 -9 6 -19q46 -23 46 -55q0 -12 -2 -24h-169q-24 0 -24 24q0 27 29 57
q37 38 42.5 51t15.5 37q21 28 51 89q0 -1 0 19q0 9 8 23q12 19 13 22q21 43 62 128q11 32 41 92q22 32 57 106q19 40 43 54q9 -4 16 -7q169 5 159 5q41 0 54 -29q9 -19 9 -65zM344 395q-4 6 -4 14q0 3 1.5 8.5t1.5 8.5q0 71 -17 71q-4 0 -4 -10q0 -5 -4 -6q-10 -8 -24 -42
q-18 -48 -19 -50l-1 3q-2 -9 -5 -27q3 -3 7 -3q5 0 14.5 2t14.5 2t13.5 -3.5t12.5 -3.5q9 0 13 36z" />
    <glyph glyph-name="Oslash" unicode="&#xd8;" 
d="M599 700q1 -26 -31 -59q-26 -24 -53 -48q6 -17 29 -61q20 -37 25 -65q9 -51 9 -138q0 -141 -62 -231q-72 -103 -207 -103q-80 0 -132 44q-43 -57 -78 -57t-35 27q0 32 56 104q-10 15 -18 40q-12 36 -14 41q-29 29 -29 145q0 160 90 290q35 51 90 70q43 15 115 15
q45 0 116 -67q15 25 29 49q19 23 51 23q34 0 48 -10zM425 575q-36 36 -50 36q-87 0 -119 -4q-63 -8 -89 -106q-17 -63 -17 -152q0 -66 36 -150l100 131l1 24zM498 377q0 27 -11 64l-18 62q-15 -43 -50 -84q-32 -37 -63 -74q-11 -15 -42 -82q-28 -60 -42 -72q-19 -17 -48 -64
q27 -40 79 -40q45 0 125 32q2 4 17 49q11 31 27 41l16 113q10 17 10 55z" />
    <glyph glyph-name="plusminus" unicode="&#xb1;" 
d="M532 351q0 -38 -75 -38q-89 0 -97 7l-7 -22q6 -101 6 -97q0 -50 -25 -50q-9 0 -23 4q-19 7 -22 7q-21 5 -21 51q0 12 2 37t2 38q0 5 -4.5 13t-9.5 8l-100 2q-36 0 -46 12v3q0 37 12 53q36 23 63 23q6 0 16.5 -3.5t15.5 -3.5q20 0 53 17q-1 25 -1 67q0 51 30 75l41 -2
q19 -1 19 -74q0 -7 -1 -11q-7 -7 -7 -15q0 -34 0 -31q2 -22 12 -22h115q52 0 52 -48zM505 64q0 -4 -3 -9v-42q-44 -15 -56 -15q-13 0 -81 2q-6 3 -20 7q-8 -10 -14 -10q-2 0 -6 3.5t-8 3.5q-11 0 -33 -4.5t-33 -4.5l-122 3q-17 0 -17 69q32 19 106 19q12 0 35.5 -3t35.5 -3
q4 0 12 2t12 2q5 0 14 -2t13 -2q15 0 44 5t43 5q21 0 44 -5q34 -7 34 -21z" />
    <glyph glyph-name="yen" unicode="&#xa5;" 
d="M587 674q0 -3 -1.5 -7.5t-1.5 -7.5q0 -31 -34 -53q-46 -30 -52.5 -43t-20.5 -39q-13 -9 -28 -23q-11 -31 -41 -93l-2 -12l119 -4q10 0 10 -24q0 -17 -4 -36q-41 -20 -142 -17q-9 -17 -25 -53h11q13 0 37 3t36 3q23 0 48 -5q36 -6 36 -19q0 -4 -3 -8v-38q-51 -15 -54 -15
q-4 0 -12 1.5t-13 1.5q-14 0 -30 -2q-10 3 -58 3q0 -23 5 -69q3 -12 54 -37q58 -29 64.5 -35t6.5 -20q0 -12 -12 -19.5t-25 -7.5h-308q0 8 -1.5 24t-1.5 24q0 25 35 33q28 6 55 12q39 20 44 41q4 15 6 50q-19 -2 -25 -2q-41 0 -121 8q-30 3 -30 58q36 18 94 18
q4 0 12.5 -2.5t12.5 -2.5t12.5 2t13.5 2t14.5 -2t14.5 -2q-3 25 -22 57l-13 1q-10 0 -28.5 -3.5t-27.5 -3.5q-24 0 -48 5q-36 6 -36 19q0 4 2 8v39q50 14 119 13q-2 3 -29 47q-25 40 -25 42q0 3 4 8.5t4 8.5q0 10 -12 8l-3 2q-7 17 -14 35q-11 24 -20 29q-19 11 -56 19
q-28 6 -37 19q-13 18 -13 70q0 19 36 19q13 0 37 -4q30 -4 38 -5q1 -1 6 -7.5t8 -6.5q4 0 5 6.5t3.5 9t14.5 3.5q9 -5 15 -5q10 5 16 5q9 -12 15 -12q3 0 6 12q50 -9 52 -10q10 -7 11 -50h40q2 0 8 22t9 23q19 -1 12 -1q13 0 34.5 9.5t32.5 9.5q5 0 7.5 -2t7 -8.5t9.5 -6.5
q9 0 15 14q71 -16 83 -16q6 0 16 3t15 3q8 -7 8 -14zM404 562q0 31 -18.5 50.5t-49.5 19.5h-83q-13 -12 -14.5 -16t-1.5 -22q0 -35 6 -50q13 -32 40 -76q35 -57 51 -58q4 13 13 35l34 58q23 42 23 59z" />
    <glyph glyph-name="ordfeminine" unicode="&#xaa;" horiz-adv-x="425" 
d="M400 446q0 -7 -1 -21t-1 -21q0 -19 -36 -30q-26 -8 -51 -8q-18 0 -24 5q-3 2 -6 12t-5 10q-4 0 -13 -8.5t-10 -8.5q-25 -18 -68 -18q-53 0 -88 25q-40 28 -40 80q0 4 13.5 45t60.5 56q14 4 82 12q40 5 40 23q0 3 -3 10t-3 11q0 5 2 10q-9 28 -29 28q-14 0 -45 -11.5
t-37 -22.5q-15 -5 -30 -5q-20 0 -34 7v10q0 34 29 50q48 27 61 27q2 0 5.5 -1t5.5 -1q6 0 17 3.5t17 3.5q69 0 103 -78q5 -12 11 -35l2 -41l-5 -6l3 -6l-8 -7q0 -6 10 -10q1 -99 34 -99q2 0 10.5 15.5t12.5 15.5q18 0 18 -21zM264 515q0 11 -10.5 19.5t-21.5 8.5
q-3 -3 -38 -3q-3 0 -10 -8q-11 -2 -32 -17q-9 -11 -28 -32q-5 -5 -5 -16v-14q0 -19 26 -34q22 -13 42 -13q25 0 40 10q8 7 27 32q6 10 6 30q4 2 4 7l-1 5l-7 8q2 6 8 13v4zM402 277q0 -5 -2 -9v-45q-40 -16 -49 -16q-12 0 -72 1q-7 4 -19 8q-7 -10 -12 -10q-2 0 -5.5 3.5
t-6.5 3.5q-10 0 -29.5 -5t-30.5 -5l-108 3q-15 0 -15 75q26 17 50 17q7 0 22 1t22 1q11 0 32 -3t31 -3q4 0 11 2t11 2t12 -2t12 -2q13 0 39 5.5t38 5.5q20 0 40 -6q29 -8 29 -22z" />
    <glyph glyph-name="ordmasculine" unicode="&#xba;" horiz-adv-x="425" 
d="M382 532q0 -61 -36 -107q-32 -18 -71 -57q-14 -6 -25 -6q-16 0 -46 5.5t-44 6.5q-7 3 -32.5 23t-29.5 26q-12 14 -24 73q-10 54 -10 81q0 7 2 12q17 43 60 85q48 47 88 47q95 0 135 -66q11 -20 24 -70q9 -33 9 -53zM319 531q-14 43 -19 56q-8 23 -48 56q-16 4 -29 4
q-21 0 -46 -18t-27 -18h-1q6 6 6 16q0 17 -7 17q-18 0 -18 -17q0 -9 6.5 -18.5l6.5 -9.5q0 -6 -8.5 -23.5t-8.5 -28.5q0 -39 30.5 -74.5t68.5 -35.5q32 0 72 35q6 5 20 52q2 6 2 7zM402 277q0 -5 -2 -9v-45q-40 -16 -49 -16q-12 0 -72 1q-7 4 -19 8q-7 -10 -12 -10
q-2 0 -5.5 3.5t-6.5 3.5q-10 0 -29.5 -5t-30.5 -5l-108 3q-15 0 -15 75q26 17 50 17q7 0 22 1t22 1q11 0 32 -3t31 -3q4 0 11 2t11 2t12 -2t12 -2q13 0 39 5.5t38 5.5q20 0 40 -6q29 -8 29 -22z" />
    <glyph glyph-name="ae" unicode="&#xe6;" 
d="M601 160q-6 -24 -29 -67q-7 -10 -13 -27q-6 -20 -10 -28q-29 -48 -144 -48l-8 5q-14 2 -37 8q-54 31 -56 31q-4 0 -14 -11q-13 -14 -14 -15q-12 -8 -41.5 -16.5t-45.5 -8.5q-73 0 -117 41.5t-44 113.5q0 14 6 34q6 16 11 33q15 56 62 77q24 11 88 17q54 5 72 21
q0 21 4 38q-3 12 -3 19q0 8 2 15q-4 15 -22 29t-34 14q-18 0 -47.5 -18t-36.5 -33q-19 -8 -39 -8q-25 0 -42 10v15q-1 51 36 74q19 13 37 25q25 15 40 15q3 0 7.5 -1.5t6.5 -1.5q8 0 21.5 5.5t21.5 5.5q60 0 103 -71q44 67 130 67q35 0 82.5 -37t47.5 -71q0 -4 -1 -10
t-1 -10q0 -13 8 -42.5t8 -53.5q0 -57 -16 -57h-85q-4 4 -8 4q-5 0 -11 -5t-10 -5t-10 10q-12 -9 -24 -9q-7 0 -16.5 4t-40.5 4q-6 0 -10.5 6.5t-7.5 6.5l-2 -27q1 -28 2 -74q1 -16 3 -19l1 -7l4 4q7 -5 11 -20q47 -39 91 -39h11q29 0 44 95q9 1 30 5t32 4q12 0 17 -16z
M515 318q-1 42 -17 73q-20 40 -58 40q-13 0 -33 -7q-24 -9 -32 -10q-9 -17 -16 -35q4 -14 6 -60q20 -11 41 -11q4 0 17 -6.5t23 -6.5q3 0 9 -4t10 -4q10 0 25.5 7.5t19.5 7.5zM285 207q0 12 -7 33q-13 16 -29 16q-5 -6 -14 -7q-7 -1 -18 0q-15 2 -17 2q-3 0 -12 -11
q-4 -5 -18.5 -10.5t-22.5 -15.5q-37 -49 -37 -57q0 -9 1 -24q1 -18 2 -23q1 -26 28 -43q23 -14 51 -14q33 0 52 17q8 8 32 46q8 12 8 32q0 4 -1.5 17t-0.5 20l-3 4q2 6 5 13z" />
    <glyph glyph-name="oslash" unicode="&#xf8;" 
d="M541 521q1 -19 -26 -43q-22 -17 -44 -33q27 -32 48 -99q19 -63 19 -108q0 -89 -52 -157q-47 -26 -104 -84q-21 -8 -37 -8q-24 0 -66 8q-46 8 -66 9q-2 0 -40 30q-36 -48 -73 -48q-30 0 -30 20q0 24 47 75q-16 24 -32 107q-14 76 -14 114q0 10 3 18q26 64 88 125
q70 69 130 69q79 0 135 -35q14 20 29 40q15 14 44 14t41 -7v-7zM446 237q0 7 -16.5 50.5t-21.5 51.5q-13 -17 -40 -41q-31 -28 -41 -39.5t-37 -61.5q-24 -45 -37 -54q-7 -5 -20 -16q35 -28 75 -28q48 0 105 50q9 8 30 78q3 8 3 10zM360 390l-12 11q-24 7 -44 7
q-30 0 -67 -27t-39 -27l-2 1q9 9 9 22q0 26 -11 26q-27 0 -27 -26q0 -12 21 -40v-1q0 -9 -13 -34t-13 -42q0 -53 32 -92l72 79l1 18z" />
    <glyph glyph-name="questiondown" unicode="&#xbf;" 
d="M39 184q0 65 42 115q24 29 47 59q32 39 51 50q28 14 39 75q11 55 20 55q30 0 30 -52q0 -15 -8 -62q-10 -51 -15 -56q-17 -10 -50 -32q-22 -18 -40.5 -62t-18.5 -73q0 -50 42 -84q39 -31 89 -31t68 11q24 16 24 62q0 8 -3 12q-45 3 -45 61q0 55 67 55q65 0 65 -130
q0 -79 -43 -117q-38 -33 -120 -44q-44 -6 -66 -6q-16 0 -50 19q-125 69 -125 175zM184 626q0 31 16.5 46t35.5 31h16q53 0 53 -68q0 -24 -9 -30q-15 -10 -18 -15q-19 -12 -34 -12q-23 0 -40 12q-20 13 -20 36z" />
    <glyph glyph-name="exclamdown" unicode="&#xa1;" 
d="M199 58l1 26q28 34 37 138q9 108 43 156l6 39q18 26 20 26q11 0 19 -44q5 -33 5 -55q0 -2 -2 -73q-12 5 -19 5q-8 0 -8 -10q0 -14 27 -16v-2q-1 -6 1 -17t2 -16q0 -11 -3 -21q8 -37 25 -90q-14 1 -14 -5q0 -3 13 -13t13 -40q0 -51 -93 -50l-39 1zM218 599q0 7 9 33t13 28
q39 19 81 19q26 0 41.5 -19.5t15.5 -46.5q0 -24 -9 -47q-12 -6 -25 -13q-7 -4 -16 -25q-27 -11 -35 -11q-20 0 -47.5 31t-27.5 51zM273 141q0 -1 8 -15h5v26h-5q-8 -5 -8 -11z" />
    <glyph glyph-name="logicalnot" unicode="&#xac;" 
d="M495 229q-4 -2 -5 -24v-43q2 -33 2 -31q0 -29 -6.5 -29t-77.5 -7q-4 4 -4 57q0 39 4 60q-16 2 -31 2q-10 0 -29 -4t-29 -4q-2 0 -6 5t-8 5q-11 0 -32.5 -6.5t-32.5 -6.5l-120 4q-17 0 -17 94q20 16 25 18q9 5 30 5q8 0 24.5 1.5t24.5 1.5q12 0 35.5 -4t34.5 -4
q5 0 12.5 2.5t11.5 2.5q5 0 13.5 -2.5t13.5 -2.5q15 0 43.5 6.5t41.5 6.5q23 0 46 -7q31 -10 31 -28q0 -6 -3 -12z" />
    <glyph glyph-name="florin" unicode="&#x192;" 
d="M326 332l16 -10l40 4q5 -4 10 -4q2 0 27 20t32 23q1 4 1 11q0 31 -11 31q-3 0 -3 -1t-3 -1q-1 0 -1.5 4t-5.5 4q-9 0 -25 2t-26 2q-46 0 -51 -12q-4 10 -4 140q0 35 22.5 60t57.5 25q12 0 51 -7t44 -12q11 -10 30 -68q16 -48 40 -48q6 0 18.5 10t12.5 15q0 2 -2 6t-2 6
l13 8q-1 19 4 25q-3 4 -21 16q-11 67 -39 76q-24 29 -34 35q-23 7 -45 14l-16 4q-2 0 -3 -3.5t-3 -3.5l-8 14q-2 -2 -8.5 0.5t-8.5 -0.5l-3 -13q-6 3 -16 11q-6 1 -13 1q-33 0 -45 -3q-58 -16 -94 -103q-30 -71 -32 -145q-3 -4 -5 -26.5t-7 -22.5q-51 0 -49 1
q-6 -1 -21.5 -7.5t-24.5 -6.5q-15 0 -19 -7.5t-4 -28.5q0 -38 17 -44q8 -2 24 -2q9 0 27 1.5t27 1.5q14 0 25 -3q3 -15 3 -29q0 -29 16 -54.5t16 -42.5q0 -9 7 -19l7 -38q0 -5 24 -86q20 -70 18 -86q-3 -33 -19 -45q-12 -9 -50 -16q-4 -3 -19 -3q-27 0 -83 54q-7 5 -8 14
q-1 15 -1 16q-4 5 -10 17q-10 30 -30 30q-64 0 -64 -53q0 -30 23 -66q26 -39 54 -39l7 2q5 -33 32 -44q17 -7 56 -7q70 0 101 11q40 14 83 61q15 17 15 79q0 32 -5 59q-13 74 -40 141q-11 29 -17 66q-7 43 -12 59q2 11 10 30z" />
    <glyph glyph-name="guillemotleft" unicode="&#xab;" 
d="M478 385q-9 -9 -23 -29q-21 -5 -33.5 -26t-18.5 -21l-19 -17q-10 -16 -10 -18q0 -12 44 -65q28 -34 57 -67q-23 -27 -48 -27q-22 0 -80 66t-58 89q0 12 17 34q12 15 24 31q18 28 49 35q0 34 77 53l19 -15zM271 402q0 -17 -43 -58t-43 -63q0 -27 35 -66q44 -50 50 -63
q-17 -30 -38 -30q-17 0 -52 37q-23 26 -47 51q-10 8 -29 24q-23 19 -23 44q0 51 99 111l2 -2q31 28 36 31q23 19 40 24q13 -28 13 -40z" />
    <glyph glyph-name="guillemotright" unicode="&#xbb;" 
d="M478 279q0 -51 -99 -111l-2 2q-31 -28 -36 -31q-24 -19 -40 -24q-13 28 -13 40q0 17 43 58t43 63q0 27 -35 67q-44 49 -50 62q17 30 38 30q17 0 52 -37q23 -26 46 -51l30 -24q23 -19 23 -44zM269 287q0 -12 -16 -34q-12 -15 -24 -31q-19 -28 -49 -35q0 -34 -78 -53
l-18 15l-3 23q9 9 23 29q20 5 33 26t18 21l20 17q10 16 10 18q0 12 -44 65q-29 34 -57 67q23 27 48 27q22 0 79.5 -66t57.5 -89z" />
    <glyph glyph-name="ellipsis" unicode="&#x2026;" horiz-adv-x="1875" 
d="M429 111q0 -116 -82 -116q-30 0 -53 20q-3 3 -27 8q-18 4 -22 20q-3 12 -15 26q-18 22 -19 24q-10 15 -10 59t28.5 70.5t73.5 26.5q126 0 126 -138zM1038 107q0 -116 -82 -116q-30 0 -53 20q-3 4 -11 4q-5 0 -17.5 -3t-17.5 -3q-17 0 -24 33q-10 43 -13 47q-10 16 -10 59
q0 44 29 70.5t73 26.5q126 0 126 -138zM1648 104q0 -41 -3.5 -46.5t-41.5 -32.5q-7 -5 -11.5 -19t-7.5 -14q-1 0 -6.5 3t-13.5 3t-27 -2.5t-27 -2.5q-10 0 -14 4q-16 13 -66 89q-10 15 -10 59t28.5 70.5t72.5 26.5q127 0 127 -138z" />
    <glyph glyph-name="nonbreakingspace" unicode="&#xa0;" 
 />
    <glyph glyph-name="Agrave" unicode="&#xc0;" 
d="M616 25q0 -24 -50.5 -25t-135.5 -1q-70 0 -70 16q0 5 2 10l76 55q2 30 2 37q0 35 -21 54q-2 2 -22 25q-18 20 -20 20q-4 0 -10.5 -2.5t-10.5 -2.5q-14 0 -40 10t-40 10q-37 0 -48 -14q-5 -6 -7.5 -21t-4.5 -20q-24 -55 -24 -71q0 -12 12 -25q38 -14 52 -27q21 -19 21 -53
h-216q-36 0 -36 38q0 21 13.5 31t27.5 19q23 18 31 46q3 12 9 37q16 28 38 88l1 3q0 4 -3 11t-3 11q0 9 6 21q8 16 9 21q15 43 42 130q5 32 26 93q9 26 28 76q5 11 13 31q13 41 38 55q65 -19 65 -53q0 -2 -1 -5t-1 -5q0 -12 12 -33t12 -34q1 -6 0 -15q-1 -11 -1 -15
q0 -16 18 -68q12 -35 24 -71q24 -89 47 -179q33 -113 82 -158q20 -13 58 -39v-11zM372 326q0 19 -7 30l-3 69q-1 16 -20 47.5t-33 31.5q-5 0 -6 -7t-6 -7q-7 -6 -26 -66t-19 -74v-29v-11q8 -5 19 -6q7 -1 20 0q16 2 20 2q6 0 17 -3.5t16 -3.5q11 0 19.5 8t8.5 19zM379 788
q-5 -18 -26 -26q-52 17 -105 34q-61 21 -101 45l-9 48q4 11 26 19q19 8 32 8q43 0 183 -128z" />
    <glyph glyph-name="Atilde" unicode="&#xc3;" 
d="M616 25q0 -24 -50.5 -25t-135.5 -1q-70 0 -70 16q0 5 2 10l76 55q2 30 2 37q0 35 -21 54q-2 2 -22 25q-18 20 -20 20q-4 0 -10.5 -2.5t-10.5 -2.5q-14 0 -40 10t-40 10q-37 0 -48 -14q-5 -6 -7.5 -21t-4.5 -20q-24 -55 -24 -71q0 -12 12 -25q38 -14 52 -27q21 -19 21 -53
h-216q-36 0 -36 38q0 21 13.5 31t27.5 19q23 18 31 46q3 12 9 37q16 28 38 88l1 3q0 4 -3 11t-3 11q0 9 6 21q8 16 9 21q15 43 42 130q5 32 26 93q9 26 28 76q5 11 13 31q13 41 38 55q65 -19 65 -53q0 -2 -1 -5t-1 -5q0 -12 12 -33t12 -34q1 -6 0 -15q-1 -11 -1 -15
q0 -16 18 -68q12 -35 24 -71q24 -89 47 -179q33 -113 82 -158q20 -13 58 -39v-11zM372 326q0 19 -7 30l-3 69q-1 16 -20 47.5t-33 31.5q-5 0 -6 -7t-6 -7q-7 -6 -26 -66t-19 -74v-29v-11q8 -5 19 -6q7 -1 20 0q16 2 20 2q6 0 17 -3.5t16 -3.5q11 0 19.5 8t8.5 19zM470 819
q0 -35 -10 -53t-40 -40q-12 -9 -32 -9q-34 0 -47.5 17.5t-27.5 35.5q-25 23 -34 23q-31 0 -39.5 -9t-14.5 -16q-3 -11 -5.5 -22t-13 -17t-46.5 -6q-5 0 -6 11v22q2 17 2 16q0 3 -4 7t-4 6v2l13 1l-1 -1l5 24q5 20 38 34q28 11 52 11q21 0 60.5 -31t57.5 -31q23 0 42 25.5
t22 25.5q20 0 26.5 -4t6.5 -22z" />
    <glyph glyph-name="Otilde" unicode="&#xd5;" 
d="M578 329q0 -141 -62 -231q-72 -103 -207 -103q-106 0 -162 79q-18 25 -42 64q-5 19 -17 56q-29 31 -29 145q0 162 90 290q35 51 90 70q42 15 115 15q52 0 158 -109q6 -23 29 -67t28 -71q9 -49 9 -138zM498 377q0 32 -18 94q-18 66 -35 85q-24 26 -49 44q-14 11 -21 11
q-87 0 -119 -4q-106 -14 -106 -258q0 -49 21 -112q20 -59 49 -104.5t83 -45.5q45 0 125 32q1 3 17 49q11 31 27 41l16 113q10 17 10 55zM470 839q0 -35 -10 -53t-40 -40q-12 -9 -32 -9q-34 0 -47.5 17.5t-27.5 35.5q-25 23 -34 23q-31 0 -39.5 -9t-14.5 -16q-3 -11 -5.5 -22
t-13 -17t-46.5 -6q-5 0 -6 11v22q2 17 2 16q0 3 -4 7t-4 6v2l13 1l-1 -1l5 24q5 20 38 34q28 11 52 11q21 0 60.5 -31t57.5 -31q23 0 42 25.5t22 25.5q20 0 26.5 -4t6.5 -22z" />
    <glyph glyph-name="OE" unicode="&#x152;" 
d="M611 633q0 -81 -6 -123q-2 -19 -15 -19q-77 0 -77 40q0 2 1.5 4t1.5 4q0 4 -2 10l5 22l-8 13q-26 4 -25 7q-58 3 -89 3q-22 0 -22 -25q0 -8 3 -25t3 -26t-1 -27t-1 -28q0 -75 29 -75h38q31 -1 39 -1q26 0 31 17.5t42 17.5h13q10 -12 10 -37q0 -15 -6 -19l1 -17
q1 -76 -16 -76q-34 0 -45 17q0 19 -38 19q-101 0 -101 -70q0 -6 6 -14.5t6 -16.5q0 -12 -5.5 -36t-5.5 -36q0 -19 28 -31q24 -10 49 -10q60 0 60 8v9q-1 14 21 60q6 1 12 1q9 0 25.5 -2.5t25.5 -2.5q4 0 4 -16v6v2q-2 -10 -2 -21q0 -17 5 -50.5t5 -50.5q0 -43 -59 -43
q-22 0 -28 1l1 1h-1h-23q-19 0 -71 -1t-71 -1q-20 0 -47 12q-7 0 -9.5 -3.5t-9.5 -3.5q-23 0 -26 21q-26 -19 -29 -20q-13 -6 -36 -6q-87 0 -126 79q-10 21 -19 59q-11 48 -15 61q-22 27 -22 145q0 179 58 290q25 49 59 65q29 15 87 15q17 0 30 -17q22 -28 23 -30
q-2 9 -2 17q0 13 35 19q25 5 46 5q23 0 84 -2t84 -2q5 0 13.5 5.5t14.5 5.5q4 0 7 -5.5t7 -5.5q7 6 15 6q31 0 31 -72zM313 387q0 31 -13 89.5t-26 79.5q-36 55 -52 55q-33 0 -57 -4q-66 -12 -66 -254q0 -84 18 -156q26 -110 83 -110q18 0 32 11q27 20 28.5 21.5t13.5 47.5
q8 31 20 42l12 123q0 6 4 27q3 17 3 28z" />
    <glyph glyph-name="oe" unicode="&#x153;" 
d="M599 313q0 -44 -9 -58t-33 -15l-62 -2q-4 4 -8 4q-5 0 -11 -5t-10 -5t-10 10q-12 -9 -24 -9q-6 0 -18 5q-8 3 -39 3q-6 0 -10.5 6.5t-7.5 6.5q-10 0 -16 -12v-5q0 -34 -6 -69q11 -39 52 -67.5t80 -28.5q45 0 59 91q8 1 23 6t25 5q12 0 17 -17q-5 -8 -7.5 -31t-11.5 -33
q-11 -19 -38 -52q-55 -51 -129 -51q-62 37 -99 93l-2 -4q-10 -8 -25 -27t-22 -25q-10 -6 -26 -21q-17 -10 -56 -10q-12 0 -33 3q-25 3 -34 4q-9 5 -19 20q-18 16 -47 52q-11 19 -21 83q-8 56 -8 88q0 67 3 78q19 59 60 118q53 75 99 75q86 0 128 -90q20 58 76 75t73 17
q42 0 77 -33q31 -30 44 -73q3 -19 11 -56q15 -37 15 -44zM514 300l-16 102q-2 8 -24.5 18.5t-33.5 10.5q-15 0 -65 -17q-5 -2 -32 -77q16 -29 63 -29q3 0 30 -10.5t29 -10.5q10 0 25.5 7.5t19.5 7.5zM275 236q0 10 -20 83q-9 34 -50 83q-16 6 -21 6q-34 0 -57 -26
q-11 -13 -22 -27l-1 1q6 9 6 23q0 25 -8 25q-19 0 -19 -25q0 -12 15 -40v-7q0 -12 -5 -34.5t-5 -33.5t-2 -31.5t-2 -30.5q0 -31 31 -68t61 -37q33 0 76 51q5 6 14 42t9 46z" />
    <glyph glyph-name="endash" unicode="&#x2013;" 
d="M490 297q0 -6 -3 -12v-57q-43 -20 -54 -20q-14 0 -80 2q-7 4 -20 10q-8 -14 -14 -14q-2 0 -6 5t-8 5q-11 0 -32.5 -6.5t-32.5 -6.5l-120 4q-17 0 -17 94q20 16 25 18q9 5 30 5q8 0 24.5 1.5t24.5 1.5q12 0 35.5 -4t34.5 -4q5 0 12.5 2.5t11.5 2.5q5 0 13.5 -2.5
t13.5 -2.5q15 0 43.5 6.5t41.5 6.5q23 0 46 -7q31 -10 31 -28z" />
    <glyph glyph-name="emdash" unicode="&#x2014;" 
d="M490 297q0 -6 -3 -12v-57q-43 -20 -54 -20q-14 0 -80 2q-7 4 -20 10q-8 -14 -14 -14q-2 0 -6 5t-8 5q-11 0 -32.5 -6.5t-32.5 -6.5l-120 4q-17 0 -17 94q20 16 25 18q9 5 30 5q8 0 24.5 1.5t24.5 1.5q12 0 35.5 -4t34.5 -4q5 0 12.5 2.5t11.5 2.5q5 0 13.5 -2.5
t13.5 -2.5q15 0 43.5 6.5t41.5 6.5q23 0 46 -7q31 -10 31 -28z" />
    <glyph glyph-name="quotedblleft" unicode="&#x201c;" 
d="M424 664q0 -44 -22 -118q-26 -90 -57 -90q-24 0 -43 44q-6 14 -9.5 44t-7.5 43v3q1 35 -15 35q-11 0 -11 -49q0 -7 -5 -17t-5 -13q0 -35 -8 -51q-21 -37 -34 -37q-14 0 -37 31q-31 44 -31 148v55q15 41 42 41q-2 0 58 -8q29 -44 32 -44q11 0 15 23.5t33 30.5q23 4 50 4
q25 0 41 -26q14 -22 14 -49z" />
    <glyph glyph-name="quotedblright" unicode="&#x201d;" 
d="M424 664q0 -44 -22 -118q-26 -90 -57 -90q-24 0 -43 44q-6 14 -9.5 44t-7.5 43v3q1 35 -15 35q-11 0 -11 -49q0 -7 -5 -17t-5 -13q0 -35 -8 -51q-21 -37 -34 -37q-14 0 -37 31q-31 44 -31 148v55q15 41 42 41q-2 0 58 -8q29 -44 32 -44q11 0 15 23.5t33 30.5q23 4 50 4
q25 0 41 -26q14 -22 14 -49z" />
    <glyph glyph-name="quoteleft" unicode="&#x2018;" 
d="M363 663q0 -30 -10 -112q-10 -91 -18 -105q-18 -31 -39 -31q-25 0 -44 119q-15 93 -15 147q0 61 64 61q39 0 52 -22q10 -15 10 -57z" />
    <glyph glyph-name="quoteright" unicode="&#x2019;" 
d="M363 663q0 -30 -10 -112q-10 -91 -18 -105q-18 -31 -39 -31q-25 0 -44 119q-15 93 -15 147q0 61 64 61q39 0 52 -22q10 -15 10 -57z" />
    <glyph glyph-name="divide" unicode="&#xf7;" 
d="M353 425q0 -17 -21 -43.5t-37 -26.5q-27 0 -62 16q-15 15 -15 53v17q1 16 24.5 29t40.5 13q28 0 49 -15.5t21 -42.5zM490 277q0 -6 -3 -12v-37q-43 -20 -54 -20q-14 0 -80 2q-7 4 -20 10q-8 -14 -14 -14q-2 0 -6 5t-8 5q-11 0 -32.5 -6.5t-32.5 -6.5l-120 4q-17 0 -17 74
q20 16 25 18q9 5 30 5q8 0 24.5 1.5t24.5 1.5q12 0 35.5 -4t34.5 -4q5 0 12.5 2.5t11.5 2.5q5 0 13.5 -2.5t13.5 -2.5q15 0 43.5 6.5t41.5 6.5q23 0 46 -7q31 -10 31 -28zM353 99v-12q-1 -7 -1 -11q0 -26 -39 -59q-10 -7 -34 -7q-70 0 -70 61q0 34 8 49q10 20 38 30
q23 7 37 7q27 0 35.5 -12.5t17 -23.5t8.5 -22z" />
    <glyph glyph-name="ydieresis" unicode="&#xff;" 
d="M589 498q-1 -54 -15 -72q-9 -12 -36 -14.5t-41 -12.5q-13 -43 -27 -86q-20 -66 -20 -78q0 -34 -22 -54l-1 1q-3 -19 -14.5 -55t-14.5 -55q-39 -34 -39 -61q0 -4 1.5 -12.5t1.5 -13.5l-1 -6l-20 -20h-1q-1 -1 -4 -25q-1 -20 -12 -19l-21 -49q-39 -30 -48 -35
q-29 -18 -56 -18q-39 0 -78 35.5t-39 73.5q0 43 49 43q20 0 39.5 -24t38.5 -24q8 0 31 19.5t24 27.5q17 34 17 56q0 24 -20 60q-24 42 -28 59q-3 11 -15 35q-12 21 -13 35q-8 9 -7 25q0 20 -2 25q-18 53 -93 118q-67 58 -67 87q0 27 10.5 33.5t47.5 11.5q45 6 53 8
q25 -12 51 -14h53q2 0 6 -2.5t6 -2.5q3 0 8 2t8 2q11 0 11 -24q0 -42 -8 -45q-4 -5 -26 -20q-11 -7 -13 -35l21 -62q1 -3 10 -21q7 -13 7 -22t-1 -26t-1 -25l16 -16q13 -12 18 -12q7 0 10 8q29 15 36 57q9 51 20 65v2q0 6 -2.5 17t-2.5 17t6.5 17t6.5 17q0 5 -8.5 12
t-8.5 13q-37 2 -39 3.5t-2 33.5q0 12 -3 20q5 35 14 28q23 8 27 8q3 0 7 -2.5t6 -2.5l18 11h104q11 -10 25 -10q3 0 9.5 1.5t8.5 1.5l7 -12q7 7 22 17zM463 643q1 -59 -38 -59q-32 0 -40 2q-23 6 -23 28q0 6 6.5 13t7.5 9h-2q-15 4 -15 29q0 16 14 32.5t30 16.5q27 0 45 -17
q4 -8 14 -25zM286 654q0 -41 -10 -55q-2 -3 -8.5 -3.5t-9 -1.5t-5 -6t-9.5 -5q-24 0 -47 8q-5 1 -13 23.5t-8 29.5q0 20 15.5 46t33.5 26q15 0 33.5 -8t18.5 -21q0 -3 -1.5 -8t-1.5 -8l1 -3q11 -10 11 -14z" />
    <glyph glyph-name="Ydieresis" unicode="&#x178;" 
d="M587 674q0 -3 -1.5 -7.5t-1.5 -7.5q0 -31 -34 -53q-45 -30 -54 -42q-5 -14 -19 -40q-13 -9 -28 -23q-11 -31 -41 -93q-8 -52 -16 -83q-3 -15 -19 -45q-12 -22 -12 -56q0 -77 6 -106q3 -12 54 -37q57 -28 64 -34.5t7 -20.5q0 -12 -12 -19.5t-25 -7.5h-308q0 8 -1.5 24
t-1.5 24q0 25 35 33q28 6 55 12q39 20 47 55q3 13 3 76q0 32 -10 57t-22 50q-7 21 -26 61q-19 30 -51 90q0 1 -1 3q0 3 4 8.5t4 8.5q0 10 -12 8l-3 2q-7 17 -14 35q-11 24 -20 29q-15 8 -45.5 14.5t-40.5 16.5q-17 15 -17 50q0 5 -1.5 14t-1.5 13q0 19 36 19q13 0 37 -4
q30 -4 38 -5q1 -1 6 -7.5t8 -6.5q4 0 5 6.5t2 7.5q5 4 16 5q9 -5 15 -5q9 5 16 5q9 -12 15 -12q3 0 6 12q50 -9 53 -10q10 -8 10 -53v3h40q2 0 8.5 22.5t8.5 22.5q2 1 6 0q5 -1 6 -1q13 0 34.5 9.5t32.5 9.5q5 0 8 -2t7.5 -8.5t8.5 -6.5q9 0 15 14q71 -16 83 -16q6 0 16 3
t15 3q8 -7 8 -14zM404 562q0 31 -18.5 50.5t-49.5 19.5h-83q-13 -12 -14.5 -16t-1.5 -22q0 -35 6 -50q13 -32 40 -76q35 -57 51 -58q4 13 13 35l34 58q23 42 23 59zM463 803q1 -59 -38 -59q-32 0 -40 2q-23 6 -23 28q0 6 6.5 13t7.5 9h-2q-15 4 -15 29q0 16 14 32.5t30 16.5
q27 0 45 -17q4 -8 14 -25zM286 814q0 -41 -10 -55q-2 -3 -8.5 -3.5t-9 -1.5t-5 -6t-9.5 -5q-24 0 -47 8q-5 1 -13 23.5t-8 29.5q0 20 15.5 46t33.5 26q15 0 33.5 -8t18.5 -21q0 -3 -1.5 -8t-1.5 -8l1 -3q11 -10 11 -14z" />
    <glyph glyph-name="fraction" unicode="&#x2044;" 
d="M557 679q0 -25 -43 -67q-47 -46 -54 -66q-8 -30 -17 -60q-10 -36 -24 -58q-25 -30 -71 -93q-9 -15 -35 -81q-23 -60 -36 -72q-16 -15 -27.5 -39t-19 -31t-20.5 -24q-1 -11 -4 -34q-3 -11 -22 -38t-28 -33q-12 -8 -29 -8q-33 0 -33 26q0 32 37 87l154 231v23l183 341
q11 21 49 21q27 0 39 -9q1 -8 1 -16z" />
    <glyph glyph-name="currency" unicode="&#xa4;" 
d="M515 489l-5 -25q-4 -19 -21 -27q-16 -21 -16 -42q0 -18 14.5 -50.5t14.5 -49.5q0 -10 -9 -30.5t-9 -32.5q0 -11 5 -29q-9 -6 -9 -20q0 -17 15 -50.5t15 -45.5q0 -3 -7.5 -8.5t-10.5 -5.5q-2 0 -10 4l-3 -4l-12 17q-14 11 -28 23q-21 16 -30 16q-64 -35 -107 -35
q-57 0 -103 28q-6 -17 -28 -29.5t-22 -17.5l3 -7q-4 4 -27 6q-13 2 -13 29q0 31 21 48l-2 -2q9 39 9 48q0 15 -10.5 42t-10.5 42q0 13 1.5 39t1.5 39q12 18 12 39q0 23 -17 52l-32 46q0 15 8 19.5t24 4.5q0 -8 20 -15q13 -5 26 -9q14 -13 48 -33q49 31 101 31t110 -31
q45 45 61 45q22 0 32 -19zM429 315q0 17 -18 31v4q1 15 -40 42q-39 24 -57 24q-41 0 -107 -35l-2 -9q-18 -4 -20 -6q-8 -4 -8 -17q0 -3 2 -54q2 -40 28 -83q31 -49 66 -49q13 0 26 4q10 -2 19 -2q19 0 32 21.5t29 20.5q2 8 22.5 21.5t20.5 29.5q0 5 -7 7q2 7 8 24t6 26z" />
    <glyph glyph-name="guilsinglleft" unicode="&#x2039;" 
d="M385 394q0 -16 -43 -57.5t-43 -63.5q0 -26 35 -66q44 -50 50 -63q-17 -30 -38 -30q-17 0 -52 37q-23 26 -47 52q-10 7 -29 23q-23 19 -23 44q0 51 99 111l2 -2q31 28 36 31q24 19 40 24q13 -28 13 -40z" />
    <glyph glyph-name="guilsinglright" unicode="&#x203a;" 
d="M389 287q0 -12 -16 -34q-12 -15 -24 -31q-19 -28 -49 -35q0 -34 -78 -53l-18 15l-3 23q9 9 23 29q20 5 33 26t18 21l20 17q10 16 10 18q0 12 -44 65q-29 34 -57 67q23 27 48 27q22 0 79.5 -66t57.5 -89z" />
    <glyph glyph-name="daggerdbl" unicode="&#x2021;" 
d="M497 479q-7 -14 -25.5 -24.5t-34.5 -10.5q-7 0 -21 2t-22 2q-3 0 -17 -2q-17 -55 -17 -142q0 -12 -2.5 -37.5t-2.5 -38.5q0 -34 13 -56q5 -9 16 -9q7 0 24.5 5.5t26.5 5.5q70 0 70 -44q0 -34 -43.5 -41t-87.5 -13q-12 -2 -12 -42q0 -102 -29 -102q-23 0 -33 10
q-1 8 -3 64q-1 37 -14 60q-6 9 -18 12q-8 2 -24 0q-22 -1 -26 -1q-70 0 -70 37q0 31 38 36q65 8 76 13q26 12 26 83q0 58 -15 172q-17 31 -42 31q-7 0 -21 -2.5t-21 -2.5q-3 0 -43 12q-7 12 -7 30q0 5 1 14t1 14q0 9 22 12q14 2 29 4q55 14 70 44q8 16 12 60t13 61
q14 28 50 28q15 0 26 -32q1 -4 1 -89q0 -56 46 -56l4 -3q4 2 12 4h32q8 1 16 -4q17 0 23 -25q3 -14 3 -39z" />
    <glyph glyph-name="periodcentered" unicode="&#xb7;" 
d="M381 409q0 -31 -8 -44q-11 -18 -42 -18q-34 0 -47 4q-9 3 -19.5 25.5t-10.5 33.5q0 23 18.5 50t39.5 27q31 0 51 -17q5 -10 17 -27z" />
    <glyph glyph-name="periodcentered" unicode="&#x2219;" 
d="M381 409q0 -31 -8 -44q-11 -18 -42 -18q-34 0 -47 4q-9 3 -19.5 25.5t-10.5 33.5q0 23 18.5 50t39.5 27q31 0 51 -17q5 -10 17 -27z" />
    <glyph glyph-name="quotesinglbase" unicode="&#x201a;" 
d="M363 663q0 -30 -10 -112q-10 -91 -18 -105q-18 -31 -39 -31q-25 0 -44 119q-15 93 -15 147q0 61 64 61q39 0 52 -22q10 -15 10 -57z" />
    <glyph glyph-name="quotedblbase" unicode="&#x201e;" 
d="M424 664q0 -44 -22 -118q-26 -90 -57 -90q-24 0 -43 44q-6 14 -9.5 44t-7.5 43v3q1 35 -15 35q-11 0 -11 -49q0 -7 -5 -17t-5 -13q0 -35 -8 -51q-21 -37 -34 -37q-14 0 -37 31q-31 44 -31 148v55q15 41 42 41q-2 0 58 -8q29 -44 32 -44q11 0 15 23.5t33 30.5q23 4 50 4
q25 0 41 -26q14 -22 14 -49z" />
    <glyph glyph-name="perthousand" unicode="&#x2030;" 
d="M614 201q0 -90 -56 -162q-24 -32 -42 -32q-13 -10 -31 -10q-19 0 -37 10q-18 1 -40 99q-11 -29 -32 -58q-27 -39 -48 -39h-33q-24 -1 -34 0q-30 4 -52 89v46q0 1 -1 4l-1 -2l-21 -85l-38 -86q-28 -60 -59 -60q-26 0 -26 25q0 20 24 87q29 82 32 93q7 27 16 42
q14 26 38 100q26 78 26 100q0 8 -4 8q-6 0 -23 -28l-70 -48q-24 0 -77 78q-6 76 -6 104q0 31 21 78.5t44 68.5q17 15 85 15q25 0 52 -17q13 -33 18 -33q6 0 21 22q10 15 19 29q18 17 52 52q12 -3 25.5 -8t13.5 -16q0 -12 -28 -75q-31 -70 -35 -86q-24 -71 -49 -166l1 -2
q18 0 40.5 15.5t28.5 15.5t32 -15q54 -31 63 -103q19 46 52 109q7 0 20 3.5t20 3.5q6 0 32 -15q67 -38 67 -151zM565 209q0 27 -9 46l-3 -1q-38 18 -46 18q-2 -1 -5 -2q-28 -11 -43 -54q-11 -33 -11 -71q0 -19 12 -36t30 -17q33 0 56 44q19 37 19 73zM411 224q-1 0 -1 -1z
M185 506q0 14 -14.5 39.5t-26.5 25.5q-14 0 -42.5 -47.5t-28.5 -63.5q0 -61 45 -61q30 0 50 40q17 33 17 67zM377 211q0 27 -8 46q-9 -10 -17 -10q-7 0 -17.5 13.5t-15.5 13.5q-1 -1 -5 -2q-27 -11 -42 -54q-11 -33 -11 -71q0 -19 12 -36t30 -17q32 0 55 44q19 37 19 73z
" />
    <glyph glyph-name="Acircumflex" unicode="&#xc2;" 
d="M616 25q0 -24 -50.5 -25t-135.5 -1q-70 0 -70 16q0 5 2 10l76 55q2 30 2 37q0 35 -21 54q-2 2 -22 25q-18 20 -20 20q-4 0 -10.5 -2.5t-10.5 -2.5q-14 0 -40 10t-40 10q-37 0 -48 -14q-5 -6 -7.5 -21t-4.5 -20q-24 -55 -24 -71q0 -12 12 -25q38 -14 52 -27q21 -19 21 -53
h-216q-36 0 -36 38q0 21 13.5 31t27.5 19q23 18 31 46q3 12 9 37q16 28 38 88l1 3q0 4 -3 11t-3 11q0 9 6 21q8 16 9 21q15 43 42 130q5 32 26 93q9 26 28 76q5 11 13 31q13 41 38 55q65 -19 65 -53q0 -2 -1 -5t-1 -5q0 -12 12 -33t12 -34q1 -6 0 -15q-1 -11 -1 -15
q0 -16 18 -68q12 -35 24 -71q24 -89 47 -179q33 -113 82 -158q20 -13 58 -39v-11zM372 326q0 19 -7 30l-3 69q-1 16 -20 47.5t-33 31.5q-5 0 -6 -7t-6 -7q-7 -6 -26 -66t-19 -74v-29v-11q8 -5 19 -6q7 -1 20 0q16 2 20 2q6 0 17 -3.5t16 -3.5q11 0 19.5 8t8.5 19zM482 737
q-3 -19 -22 -28q-31 13 -70 39q-33 22 -67 45q-33 -23 -67 -45q-40 -26 -70 -39q-19 9 -23 29q121 140 159 140q39 0 160 -141z" />
    <glyph glyph-name="Ecircumflex" unicode="&#xca;" 
d="M611 38q0 -17 -13 -30t-29 -13h-60q-13 0 -37 3.5t-35 4.5q-5 4 -12 4q-6 0 -16 -3.5t-15 -3.5l-9 10t-19 10q-12 0 -20.5 -10.5t-12 -11.5t-48.5 -1q-20 0 -58 -1t-57 -1q-21 0 -52 12q-9 0 -27 -3.5t-27 -3.5q-29 0 -29 28q0 23 35.5 53.5t37.5 42.5q0 18 5 52
q4 9 10 27t6 131q0 47 -2 52q-10 12 -10 23q0 5 2.5 14.5t2.5 14.5q0 10 -4 24q-6 19 -6 24q-3 28 -9 85q-3 18 -16 18q-4 0 -11 -1.5t-10 -1.5q-8 0 -15 7t-7 14l3 6q-16 22 -16 44q0 13 7 16q1 0 18 1l394 25q16 1 32 1q24 0 35 -1q25 -2 45.5 -22t20.5 -45q0 -5 -4 -15
t-4 -16q0 -79 -6 -114q-3 -19 -19 -19q-7 0 -20 1.5t-19 1.5q-19 0 -46.5 21.5t-27.5 38.5q0 2 2.5 4t2.5 4q0 4 -3 10l5 22l-10 13q-9 0 -18 1q-15 2 -13 6h-166q-42 0 -42 -82q0 -68 20 -84q16 -12 86 -12q29 0 34 6q16 20 41.5 26t49.5 12q12 -15 12 -36q0 -19 -12 -27
q3 -41 5 -122q-2 -9 -5 -19.5t-14 -10.5q-57 0 -71 22q0 9 -5 26q-4 8 -24 16t-32 8q-6 0 -19 -2t-19 -2q-42 0 -42 -53q0 -80 15 -123q8 -23 22 -31q11 -6 36 -6q9 0 25.5 2.5t25.5 2.5q7 0 22.5 -1.5t27.5 -1.5l2 -1q6 5 17 10q13 10 19 10t16.5 -4.5t16.5 -4.5
q11 0 25 12.5t16 23.5l16 103q6 1 16 1t28 -4.5t28 -4.5q4 0 11 2t11 2q5 0 5 -11t-1.5 -34t-1.5 -34t2 -31.5t2 -31t4.5 -32t4.5 -32.5zM482 757q-3 -19 -22 -28q-31 13 -70 39q-33 22 -67 45q-33 -23 -67 -45q-40 -26 -70 -39q-19 9 -23 29q121 140 159 140q39 0 160 -141
z" />
    <glyph glyph-name="Aacute" unicode="&#xc1;" 
d="M616 25q0 -24 -50.5 -25t-135.5 -1q-70 0 -70 16q0 5 2 10l76 55q2 30 2 37q0 35 -21 54q-2 2 -22 25q-18 20 -20 20q-4 0 -10.5 -2.5t-10.5 -2.5q-14 0 -40 10t-40 10q-37 0 -48 -14q-5 -6 -7.5 -21t-4.5 -20q-24 -55 -24 -71q0 -12 12 -25q38 -14 52 -27q21 -19 21 -53
h-216q-36 0 -36 38q0 21 13.5 31t27.5 19q23 18 31 46q3 12 9 37q16 28 38 88l1 3q0 4 -3 11t-3 11q0 9 6 21q8 16 9 21q15 43 42 130q5 32 26 93q9 26 28 76q5 11 13 31q13 41 38 55q65 -19 65 -53q0 -2 -1 -5t-1 -5q0 -12 12 -33t12 -34q1 -6 0 -15q-1 -11 -1 -15
q0 -16 18 -68q12 -35 24 -71q24 -89 47 -179q33 -113 82 -158q20 -13 58 -39v-11zM372 326q0 19 -7 30l-3 69q-1 16 -20 47.5t-33 31.5q-5 0 -6 -7t-6 -7q-7 -6 -26 -66t-19 -74v-29v-11q8 -5 19 -6q7 -1 20 0q16 2 20 2q6 0 17 -3.5t16 -3.5q11 0 19.5 8t8.5 19zM484 869
l-10 -48q-40 -24 -100 -45l-106 -34q-21 8 -26 26q140 128 183 128q14 0 34 -8t25 -19z" />
    <glyph glyph-name="Edieresis" unicode="&#xcb;" 
d="M611 38q0 -17 -13 -30t-29 -13h-60q-13 0 -37 3.5t-35 4.5q-5 4 -12 4q-6 0 -16 -3.5t-15 -3.5l-9 10t-19 10q-12 0 -20.5 -10.5t-12 -11.5t-48.5 -1q-20 0 -58 -1t-57 -1q-21 0 -52 12q-9 0 -27 -3.5t-27 -3.5q-29 0 -29 28q0 23 35.5 53.5t37.5 42.5q0 18 5 52
q4 9 10 27t6 131q0 47 -2 52q-10 12 -10 23q0 5 2.5 14.5t2.5 14.5q0 10 -4 24q-6 19 -6 24q-3 28 -9 85q-3 18 -16 18q-4 0 -11 -1.5t-10 -1.5q-8 0 -15 7t-7 14l3 6q-16 22 -16 44q0 13 7 16q1 0 18 1l394 25q16 1 32 1q24 0 35 -1q25 -2 45.5 -22t20.5 -45q0 -5 -4 -15
t-4 -16q0 -79 -6 -114q-3 -19 -19 -19q-7 0 -20 1.5t-19 1.5q-19 0 -46.5 21.5t-27.5 38.5q0 2 2.5 4t2.5 4q0 4 -3 10l5 22l-10 13q-9 0 -18 1q-15 2 -13 6h-166q-42 0 -42 -82q0 -68 20 -84q16 -12 86 -12q29 0 34 6q16 20 41.5 26t49.5 12q12 -15 12 -36q0 -19 -12 -27
q3 -41 5 -122q-2 -9 -5 -19.5t-14 -10.5q-57 0 -71 22q0 9 -5 26q-4 8 -24 16t-32 8q-6 0 -19 -2t-19 -2q-42 0 -42 -53q0 -80 15 -123q8 -23 22 -31q11 -6 36 -6q9 0 25.5 2.5t25.5 2.5q7 0 22.5 -1.5t27.5 -1.5l2 -1q6 5 17 10q13 10 19 10t16.5 -4.5t16.5 -4.5
q11 0 25 12.5t16 23.5l16 103q6 1 16 1t28 -4.5t28 -4.5q4 0 11 2t11 2q5 0 5 -11t-1.5 -34t-1.5 -34t2 -31.5t2 -31t4.5 -32t4.5 -32.5zM473 803q1 -59 -38 -59q-32 0 -40 2q-23 6 -23 28q0 6 6.5 13t7.5 9h-2q-15 4 -15 29q0 16 14 32.5t30 16.5q27 0 45 -17q4 -8 14 -25z
M296 814q0 -41 -10 -55q-2 -3 -8.5 -3.5t-9 -1.5t-5 -6t-9.5 -5q-24 0 -47 8q-5 1 -13 23.5t-8 29.5q0 20 15.5 46t33.5 26q15 0 33.5 -8t18.5 -21q0 -3 -1.5 -8t-1.5 -8l1 -3q11 -10 11 -14z" />
    <glyph glyph-name="Egrave" unicode="&#xc8;" 
d="M611 38q0 -17 -13 -30t-29 -13h-60q-13 0 -37 3.5t-35 4.5q-5 4 -12 4q-6 0 -16 -3.5t-15 -3.5l-9 10t-19 10q-12 0 -20.5 -10.5t-12 -11.5t-48.5 -1q-20 0 -58 -1t-57 -1q-21 0 -52 12q-9 0 -27 -3.5t-27 -3.5q-29 0 -29 28q0 23 35.5 53.5t37.5 42.5q0 18 5 52
q4 9 10 27t6 131q0 47 -2 52q-10 12 -10 23q0 5 2.5 14.5t2.5 14.5q0 10 -4 24q-6 19 -6 24q-3 28 -9 85q-3 18 -16 18q-4 0 -11 -1.5t-10 -1.5q-8 0 -15 7t-7 14l3 6q-16 22 -16 44q0 13 7 16q1 0 18 1l394 25q16 1 32 1q24 0 35 -1q25 -2 45.5 -22t20.5 -45q0 -5 -4 -15
t-4 -16q0 -79 -6 -114q-3 -19 -19 -19q-7 0 -20 1.5t-19 1.5q-19 0 -46.5 21.5t-27.5 38.5q0 2 2.5 4t2.5 4q0 4 -3 10l5 22l-10 13q-9 0 -18 1q-15 2 -13 6h-166q-42 0 -42 -82q0 -68 20 -84q16 -12 86 -12q29 0 34 6q16 20 41.5 26t49.5 12q12 -15 12 -36q0 -19 -12 -27
q3 -41 5 -122q-2 -9 -5 -19.5t-14 -10.5q-57 0 -71 22q0 9 -5 26q-4 8 -24 16t-32 8q-6 0 -19 -2t-19 -2q-42 0 -42 -53q0 -80 15 -123q8 -23 22 -31q11 -6 36 -6q9 0 25.5 2.5t25.5 2.5q7 0 22.5 -1.5t27.5 -1.5l2 -1q6 5 17 10q13 10 19 10t16.5 -4.5t16.5 -4.5
q11 0 25 12.5t16 23.5l16 103q6 1 16 1t28 -4.5t28 -4.5q4 0 11 2t11 2q5 0 5 -11t-1.5 -34t-1.5 -34t2 -31.5t2 -31t4.5 -32t4.5 -32.5zM379 788q-5 -18 -26 -26q-52 17 -105 34q-61 21 -101 45l-9 48q4 11 26 19q19 8 32 8q43 0 183 -128z" />
    <glyph glyph-name="Iacute" unicode="&#xcd;" 
d="M548 72q-3 -21 -7 -42q-7 -30 -22 -30q-3 0 -8.5 2.5t-8.5 2.5q-5 0 -15.5 -2.5t-15.5 -2.5h-326q-57 0 -57 39q0 40 43 49q2 1 80 5q43 3 43 25q0 8 -2.5 23t-2.5 23q0 12 10 37.5t10 39.5q0 4 -1.5 11.5t-1.5 11.5v265q0 16 -39 41q-40 4 -80 7q-48 11 -48 51v39
q17 13 48 13q46 0 137.5 -2t136.5 -2q9 0 26.5 2t26.5 2q24 0 59 -27q-14 -57 -32.5 -73t-76.5 -25h-3q-5 0 -13.5 2t-13.5 2h-1q-22 -15 -22 -64q0 -54 7 -70q0 -7 -1 -23.5t-1 -25.5q0 -18 3 -30q7 -4 7 -8q0 -5 -7 -8l-1 -5q0 -5 3 -15t3 -15q0 -19 -3 -57t-3 -57
q0 -21 21 -42q9 -16 24 -36q19 -14 125 -31zM484 869l-10 -48q-40 -24 -100 -45l-106 -34q-21 8 -26 26q140 128 183 128q14 0 34 -8t25 -19z" />
    <glyph glyph-name="Icircumflex" unicode="&#xce;" 
d="M548 72q-3 -21 -7 -42q-7 -30 -22 -30q-3 0 -8.5 2.5t-8.5 2.5q-5 0 -15.5 -2.5t-15.5 -2.5h-326q-57 0 -57 39q0 40 43 49q2 1 80 5q43 3 43 25q0 8 -2.5 23t-2.5 23q0 12 10 37.5t10 39.5q0 4 -1.5 11.5t-1.5 11.5v265q0 16 -39 41q-40 4 -80 7q-48 11 -48 51v39
q17 13 48 13q46 0 137.5 -2t136.5 -2q9 0 26.5 2t26.5 2q24 0 59 -27q-14 -57 -32.5 -73t-76.5 -25h-3q-5 0 -13.5 2t-13.5 2h-1q-22 -15 -22 -64q0 -54 7 -70q0 -7 -1 -23.5t-1 -25.5q0 -18 3 -30q7 -4 7 -8q0 -5 -7 -8l-1 -5q0 -5 3 -15t3 -15q0 -19 -3 -57t-3 -57
q0 -21 21 -42q9 -16 24 -36q19 -14 125 -31zM482 757q-3 -19 -22 -28q-31 13 -70 39q-33 22 -67 45q-33 -23 -67 -45q-40 -26 -70 -39q-19 9 -23 29q121 140 159 140q39 0 160 -141z" />
    <glyph glyph-name="Idieresis" unicode="&#xcf;" 
d="M548 72q-3 -21 -7 -42q-7 -30 -22 -30q-3 0 -8.5 2.5t-8.5 2.5q-5 0 -15.5 -2.5t-15.5 -2.5h-326q-57 0 -57 39q0 40 43 49q2 1 80 5q43 3 43 25q0 8 -2.5 23t-2.5 23q0 12 10 37.5t10 39.5q0 4 -1.5 11.5t-1.5 11.5v265q0 16 -39 41q-40 4 -80 7q-48 11 -48 51v39
q17 13 48 13q46 0 137.5 -2t136.5 -2q9 0 26.5 2t26.5 2q24 0 59 -27q-14 -57 -32.5 -73t-76.5 -25h-3q-5 0 -13.5 2t-13.5 2h-1q-22 -15 -22 -64q0 -54 7 -70q0 -7 -1 -23.5t-1 -25.5q0 -18 3 -30q7 -4 7 -8q0 -5 -7 -8l-1 -5q0 -5 3 -15t3 -15q0 -19 -3 -57t-3 -57
q0 -21 21 -42q9 -16 24 -36q19 -14 125 -31zM473 803q1 -59 -38 -59q-32 0 -40 2q-23 6 -23 28q0 6 6.5 13t7.5 9h-2q-15 4 -15 29q0 16 14 32.5t30 16.5q27 0 45 -17q4 -8 14 -25zM296 814q0 -41 -10 -55q-2 -3 -8.5 -3.5t-9 -1.5t-5 -6t-9.5 -5q-24 0 -47 8q-5 1 -13 23.5
t-8 29.5q0 20 15.5 46t33.5 26q15 0 33.5 -8t18.5 -21q0 -3 -1.5 -8t-1.5 -8l1 -3q11 -10 11 -14z" />
    <glyph glyph-name="Igrave" unicode="&#xcc;" 
d="M548 72q-3 -21 -7 -42q-7 -30 -22 -30q-3 0 -8.5 2.5t-8.5 2.5q-5 0 -15.5 -2.5t-15.5 -2.5h-326q-57 0 -57 39q0 40 43 49q2 1 80 5q43 3 43 25q0 8 -2.5 23t-2.5 23q0 12 10 37.5t10 39.5q0 4 -1.5 11.5t-1.5 11.5v265q0 16 -39 41q-40 4 -80 7q-48 11 -48 51v39
q17 13 48 13q46 0 137.5 -2t136.5 -2q9 0 26.5 2t26.5 2q24 0 59 -27q-14 -57 -32.5 -73t-76.5 -25h-3q-5 0 -13.5 2t-13.5 2h-1q-22 -15 -22 -64q0 -54 7 -70q0 -7 -1 -23.5t-1 -25.5q0 -18 3 -30q7 -4 7 -8q0 -5 -7 -8l-1 -5q0 -5 3 -15t3 -15q0 -19 -3 -57t-3 -57
q0 -21 21 -42q9 -16 24 -36q19 -14 125 -31zM379 788q-5 -18 -26 -26q-52 17 -105 34q-61 21 -101 45l-9 48q4 11 26 19q19 8 32 8q43 0 183 -128z" />
    <glyph glyph-name="Oacute" unicode="&#xd3;" 
d="M578 329q0 -141 -62 -231q-72 -103 -207 -103q-106 0 -162 79q-18 25 -42 64q-5 19 -17 56q-29 31 -29 145q0 162 90 290q35 51 90 70q42 15 115 15q52 0 158 -109q6 -23 29 -67t28 -71q9 -49 9 -138zM498 377q0 32 -18 94q-18 66 -35 85q-24 26 -49 44q-14 11 -21 11
q-87 0 -119 -4q-106 -14 -106 -258q0 -49 21 -112q20 -59 49 -104.5t83 -45.5q45 0 125 32q1 3 17 49q11 31 27 41l16 113q10 17 10 55zM484 869l-10 -48q-40 -24 -100 -45l-106 -34q-21 8 -26 26q140 128 183 128q14 0 34 -8t25 -19z" />
    <glyph glyph-name="Ocircumflex" unicode="&#xd4;" 
d="M578 329q0 -141 -62 -231q-72 -103 -207 -103q-106 0 -162 79q-18 25 -42 64q-5 19 -17 56q-29 31 -29 145q0 162 90 290q35 51 90 70q42 15 115 15q52 0 158 -109q6 -23 29 -67t28 -71q9 -49 9 -138zM498 377q0 32 -18 94q-18 66 -35 85q-24 26 -49 44q-14 11 -21 11
q-87 0 -119 -4q-106 -14 -106 -258q0 -49 21 -112q20 -59 49 -104.5t83 -45.5q45 0 125 32q1 3 17 49q11 31 27 41l16 113q10 17 10 55zM482 757q-3 -19 -22 -28q-31 13 -70 39q-33 22 -67 45q-33 -23 -67 -45q-40 -26 -70 -39q-19 9 -23 29q121 140 159 140q39 0 160 -141z
" />
    <glyph glyph-name="Ograve" unicode="&#xd2;" 
d="M578 329q0 -141 -62 -231q-72 -103 -207 -103q-106 0 -162 79q-18 25 -42 64q-5 19 -17 56q-29 31 -29 145q0 162 90 290q35 51 90 70q42 15 115 15q52 0 158 -109q6 -23 29 -67t28 -71q9 -49 9 -138zM498 377q0 32 -18 94q-18 66 -35 85q-24 26 -49 44q-14 11 -21 11
q-87 0 -119 -4q-106 -14 -106 -258q0 -49 21 -112q20 -59 49 -104.5t83 -45.5q45 0 125 32q1 3 17 49q11 31 27 41l16 113q10 17 10 55zM379 788q-5 -18 -26 -26q-52 17 -105 34q-61 21 -101 45l-9 48q4 11 26 19q19 8 32 8q43 0 183 -128z" />
    <glyph glyph-name="Uacute" unicode="&#xda;" 
d="M606 673q0 -21 -30 -39t-30 -62q0 -7 1 -20.5t1 -20.5q0 -60 -10 -317q-5 -129 -120 -202q-27 -17 -81 -17q-31 0 -64 7l-26 6q-1 0 -4.5 -1t-5.5 -1q-7 0 -32.5 15t-29.5 22q-15 31 -51 90q-7 7 -17 24q-1 5 -1 11q0 1 1 3l3 -1l1 6q0 14 -7.5 40t-7.5 40q0 27 6 36
q1 32 1 65q0 126 -16 215q-7 36 -25 52q-16 9 -31 17.5t-15 28.5q0 4 4.5 13.5t5.5 12.5h5q5 1 13.5 -3t12.5 -4q3 0 20 6t28 6q20 0 113 -5q42 -2 42 -23q0 -35 -29 -30q-12 -8 -24 -15q-16 -10 -16 -22q0 -7 4 -13q-7 -15 -7 -99q0 -4 -7 -10t-7 -10q0 -5 4 -10l-1 -28
q-1 -83 18 -186q1 -7 6 -20q0 -6 -12 -10q0 -5 3 -16l-3 -7q0 -5 8 -5.5t8 -2.5q0 -22 11 -37q36 -48 47 -48q41 0 38 0q7 13 14 13q5 0 10 -9t7 -9q9 0 23 10t20 10q3 0 6.5 -1.5t5.5 -1.5q13 0 21 18q10 1 10 -6q37 39 37 71q-5 7 -11 20q11 4 11 8q0 3 -2 9t-2 9
q0 1 9 31q5 19 5 52q0 60 -10 166q-6 11 -6 21l9 6l1 3q0 5 -4 10q0 6 3 27q-1 6 -10 25q-7 16 -7 24l-63 23q-5 2 -14 23t-9 28q0 8 1 12q45 7 46 7l188 -5q16 0 16 -25zM484 869l-10 -48q-40 -24 -100 -45l-106 -34q-21 8 -26 26q140 128 183 128q14 0 34 -8t25 -19z" />
    <glyph glyph-name="Ucircumflex" unicode="&#xdb;" 
d="M606 673q0 -21 -30 -39t-30 -62q0 -7 1 -20.5t1 -20.5q0 -60 -10 -317q-5 -129 -120 -202q-27 -17 -81 -17q-31 0 -64 7l-26 6q-1 0 -4.5 -1t-5.5 -1q-7 0 -32.5 15t-29.5 22q-15 31 -51 90q-7 7 -17 24q-1 5 -1 11q0 1 1 3l3 -1l1 6q0 14 -7.5 40t-7.5 40q0 27 6 36
q1 32 1 65q0 126 -16 215q-7 36 -25 52q-16 9 -31 17.5t-15 28.5q0 4 4.5 13.5t5.5 12.5h5q5 1 13.5 -3t12.5 -4q3 0 20 6t28 6q20 0 113 -5q42 -2 42 -23q0 -35 -29 -30q-12 -8 -24 -15q-16 -10 -16 -22q0 -7 4 -13q-7 -15 -7 -99q0 -4 -7 -10t-7 -10q0 -5 4 -10l-1 -28
q-1 -83 18 -186q1 -7 6 -20q0 -6 -12 -10q0 -5 3 -16l-3 -7q0 -5 8 -5.5t8 -2.5q0 -22 11 -37q36 -48 47 -48q41 0 38 0q7 13 14 13q5 0 10 -9t7 -9q9 0 23 10t20 10q3 0 6.5 -1.5t5.5 -1.5q13 0 21 18q10 1 10 -6q37 39 37 71q-5 7 -11 20q11 4 11 8q0 3 -2 9t-2 9
q0 1 9 31q5 19 5 52q0 60 -10 166q-6 11 -6 21l9 6l1 3q0 5 -4 10q0 6 3 27q-1 6 -10 25q-7 16 -7 24l-63 23q-5 2 -14 23t-9 28q0 8 1 12q45 7 46 7l188 -5q16 0 16 -25zM482 757q-3 -19 -22 -28q-31 13 -70 39q-33 22 -67 45q-33 -23 -67 -45q-40 -26 -70 -39
q-19 9 -23 29q121 140 159 140q39 0 160 -141z" />
    <glyph glyph-name="Ugrave" unicode="&#xd9;" 
d="M606 673q0 -21 -30 -39t-30 -62q0 -7 1 -20.5t1 -20.5q0 -60 -10 -317q-5 -129 -120 -202q-27 -17 -81 -17q-31 0 -64 7l-26 6q-1 0 -4.5 -1t-5.5 -1q-7 0 -32.5 15t-29.5 22q-15 31 -51 90q-7 7 -17 24q-1 5 -1 11q0 1 1 3l3 -1l1 6q0 14 -7.5 40t-7.5 40q0 27 6 36
q1 32 1 65q0 126 -16 215q-7 36 -25 52q-16 9 -31 17.5t-15 28.5q0 4 4.5 13.5t5.5 12.5h5q5 1 13.5 -3t12.5 -4q3 0 20 6t28 6q20 0 113 -5q42 -2 42 -23q0 -35 -29 -30q-12 -8 -24 -15q-16 -10 -16 -22q0 -7 4 -13q-7 -15 -7 -99q0 -4 -7 -10t-7 -10q0 -5 4 -10l-1 -28
q-1 -83 18 -186q1 -7 6 -20q0 -6 -12 -10q0 -5 3 -16l-3 -7q0 -5 8 -5.5t8 -2.5q0 -22 11 -37q36 -48 47 -48q41 0 38 0q7 13 14 13q5 0 10 -9t7 -9q9 0 23 10t20 10q3 0 6.5 -1.5t5.5 -1.5q13 0 21 18q10 1 10 -6q37 39 37 71q-5 7 -11 20q11 4 11 8q0 3 -2 9t-2 9
q0 1 9 31q5 19 5 52q0 60 -10 166q-6 11 -6 21l9 6l1 3q0 5 -4 10q0 6 3 27q-1 6 -10 25q-7 16 -7 24l-63 23q-5 2 -14 23t-9 28q0 8 1 12q45 7 46 7l188 -5q16 0 16 -25zM379 788q-5 -18 -26 -26q-52 17 -105 34q-61 21 -101 45l-9 48q4 11 26 19q19 8 32 8q43 0 183 -128z
" />
    <glyph glyph-name="dotlessi" unicode="&#x131;" 
d="M532 48q0 -10 -9 -28q-10 -21 -19 -21h-33q-43 0 -65 6q-5 5 -10 5q-13 -10 -21 -10q-13 11 -20 15h-3q-22 -15 -19 -15h-181q-17 0 -17 26q0 8 6 22.5t6 16.5q0 13 78 15q20 15 18 15q2 0 5.5 -1t5.5 -1q19 15 21.5 36.5t8 26t15 11t9.5 9.5v117q0 28 -17 50q0 6 3.5 19
t3.5 20q0 1 -21.5 24t-24.5 30q-4 -1 -14.5 -7.5t-16.5 -6.5q-3 0 -10 3t-11 3q-9 0 -18 -5l-40 4q-13 3 -31 24v2q0 16 6 34q7 24 20 24q4 0 18.5 -5.5t23.5 -5.5q4 0 13.5 2.5t14.5 1.5q5 5 11 5q3 0 8.5 -2t8.5 -3l5 4l49 -7q12 6 12 8q0 5 -3 10q15 6 24 6t23 -7h10
q33 1 33 -100l3 -262q0 -43 36 -56q8 -2 68 -8q36 -4 36 -25v-9q1 -7 1 -10z" />
    <glyph glyph-name="circumflex" unicode="&#x2c6;" 
d="M462 607q-3 -19 -22 -28q-31 13 -70 39q-33 22 -67 45q-33 -23 -67 -45q-40 -26 -70 -39q-19 9 -23 29q121 140 159 140q39 0 160 -141z" />
    <glyph glyph-name="tilde" unicode="&#x2dc;" 
d="M470 679q0 -35 -10 -53t-40 -40q-12 -9 -32 -9q-34 0 -47.5 17.5t-27.5 35.5q-25 23 -34 23q-31 0 -39.5 -9t-14.5 -16q-3 -11 -5.5 -22t-13 -17t-46.5 -6q-5 0 -6 11v22q2 17 2 16q0 3 -4 7t-4 6v2l13 1l-1 -1l5 24q5 20 38 34q28 11 52 11q21 0 60.5 -31t57.5 -31
q23 0 42 25.5t22 25.5q20 0 26.5 -4t6.5 -22z" />
    <glyph glyph-name="macron" unicode="&#xaf;" 
d="M490 297q0 -6 -3 -12v-57q-43 -20 -54 -20q-14 0 -80 2q-7 4 -20 10q-8 -14 -14 -14q-2 0 -6 5t-8 5q-11 0 -32.5 -6.5t-32.5 -6.5l-120 4q-17 0 -17 94q20 16 25 18q9 5 30 5q8 0 24.5 1.5t24.5 1.5q12 0 35.5 -4t34.5 -4q5 0 12.5 2.5t11.5 2.5q5 0 13.5 -2.5
t13.5 -2.5q15 0 43.5 6.5t41.5 6.5q23 0 46 -7q31 -10 31 -28z" />
    <glyph glyph-name="macron" unicode="&#x2c9;" 
d="M490 297q0 -6 -3 -12v-57q-43 -20 -54 -20q-14 0 -80 2q-7 4 -20 10q-8 -14 -14 -14q-2 0 -6 5t-8 5q-11 0 -32.5 -6.5t-32.5 -6.5l-120 4q-17 0 -17 94q20 16 25 18q9 5 30 5q8 0 24.5 1.5t24.5 1.5q12 0 35.5 -4t34.5 -4q5 0 12.5 2.5t11.5 2.5q5 0 13.5 -2.5
t13.5 -2.5q15 0 43.5 6.5t41.5 6.5q23 0 46 -7q31 -10 31 -28z" />
    <glyph glyph-name="breve" unicode="&#x2d8;" 
d="M461 674q-100 -116 -155 -116q-47 0 -93 40q-18 15 -71 76q4 20 23 29q13 -6 65 -43q34 -25 76 -25t73 25q45 36 60 43q19 -9 22 -29z" />
    <glyph glyph-name="dotaccent" unicode="&#x2d9;" 
d="M390 665q1 -71 -20 -83q-10 -7 -35 -7q-37 0 -53 5q-9 3 -21 34q-11 28 -11 42q0 27 18 60q21 38 46 38q34 0 56 -23q6 -12 20 -34v-32z" />
    <glyph glyph-name="cedilla" unicode="&#xb8;" 
d="M396 -36q0 -4 -26 -11t-26 -21q0 -10 24.5 -21t24.5 -26q0 -41 -22 -58q-8 -7 -58 -27q-19 3 -43 15q27 26 27 44q0 11 -12.5 24.5t-22.5 14.5q-18 37 -18 52q0 25 24.5 45.5t50.5 20.5t70 -12q7 -34 7 -40z" />
    <glyph glyph-name="caron" unicode="&#x2c7;" 
d="M462 719q-121 -140 -159 -140q-39 0 -160 140q4 20 23 29q30 -13 70 -40l66 -44q34 22 67 44q40 26 71 39q19 -8 22 -28z" />
    <glyph glyph-name="Scaron" unicode="&#x160;" 
d="M556 172q0 -64 -60.5 -123.5t-125.5 -59.5h-19q-13 0 -36 8q-27 10 -35.5 11.5t-37.5 1.5q-9 0 -24.5 7.5t-24.5 7.5q-5 0 -13.5 -17t-10.5 -19h-67l2 184q1 31 15 57q17 33 45 33q31 0 38 -22.5t13 -45.5q6 -5 6 -11q0 -2 -3 -5.5t-3 -5.5q0 -6 6.5 -18t3.5 -20l1 -2
q31 -36 121 -36q49 0 61 5q47 20 47 52v52q-11 9 -21 27q-14 27 -16 30q-5 7 -19 13t-18 13q-22 1 -82 21q-208 66 -208 248q0 62 29 93q24 28 86 47q26 8 35 8q11 0 20 -7t11 -7q8 0 17 12q90 -28 108 -28q10 0 17 13q9 19 16 25q15 13 46 13q26 0 26 -12q0 -7 -5.5 -21
t-5.5 -21v-66q-1 -44 -1 -66q0 -5 2 -13.5t2 -13.5q0 -34 -6 -43q-9 -12 -41 -11h-23q-20 20 -20 30q0 5 8 11.5t8 10.5q0 7 -9 16l-13 15q-38 57 -109 57q-73 0 -73 -83q0 -58 47 -83q88 -47 114 -52q9 -1 28 -2q30 -3 42 -12l28 -32q11 -7 31 -20q21 -16 36 -67
q14 -44 14 -77zM442 829q-121 -140 -159 -140q-39 0 -160 140q4 20 23 29q30 -13 70 -40l66 -44q34 22 67 44q40 26 71 39q19 -8 22 -28z" />
    <glyph glyph-name="scaron" unicode="&#x161;" 
d="M528 140q0 -61 -18 -89q-22 -35 -81 -41q-81 -9 -118 -9q-7 0 -22.5 1.5t-23.5 1.5q-28 0 -58 20t-33 20q-11 0 -17 -33q-8 -2 -15 -2h-14q-10 1 -15 1q-16 26 -16 92q0 42 4 56q8 34 38 34q29 0 39 -10t17 -38q6 -23 39 -39q50 -25 54 -28q13 -10 26 -10q15 0 52 10
q41 12 41 22q0 65 -7 72q-19 6 -47 15q-62 23 -185 73q-26 12 -45 34q-22 24 -22 49q0 61 29 107q34 53 92 53q30 0 88.5 -14t89.5 -14q20 0 25.5 21t36.5 21q11 0 40 -2q4 -6 5 -19q1 -9 0 -24q-2 -18 -2 -21q0 -13 2.5 -39t2.5 -40q0 -12 -11 -25.5t-24 -13.5
q-43 0 -63 41q-2 10 -10 29q-19 28 -124 28q-60 0 -60 -51q0 -23 31 -39q23 -11 47 -22q9 -4 25 -13h26q12 1 16 -4l-5 -9q4 -5 32.5 -8t33.5 -5q47 -17 75.5 -54.5t28.5 -84.5zM462 689q-121 -140 -159 -140q-39 0 -160 140q4 20 23 29q30 -13 70 -40l66 -44q34 22 67 44
q40 26 71 39q19 -8 22 -28z" />
    <glyph glyph-name="brokenbar" unicode="&#xa6;" 
d="M334 542q0 -100 -16 -137q-21 -13 -26 -13q-36 0 -37 69q5 4 5 9q0 -8 -5 30q-2 13 -2 41q0 14 1.5 42t1.5 42q0 4 -2.5 11.5t-2.5 10.5q0 32 50 32q7 0 18 -2q2 -5 13 -31q0 -17 1 -52t1 -52zM325 -56q-23 -9 -27 -9q-16 0 -28.5 16.5t-12.5 32.5q0 8 3 22t3 22
q5 5 5 13q0 -12 -6 44q-1 16 -1 114q0 5 -2.5 16t-2.5 17q0 21 16 34t37 13q8 0 19 -4q15 -41 15 -91q0 -177 -18 -240z" />
    <glyph glyph-name="Eth" unicode="&#xd0;" 
d="M608 259q0 -5 -16.5 -31t-16.5 -58q0 -14 -15 -32q-19 -24 -22 -30q-12 -26 -13 -27q-8 -15 -18 -24q-46 -39 -110 -53q-44 -9 -123 -9q-14 0 -43 2.5t-43 2.5q-11 0 -32.5 -5t-32.5 -5h-46l-15 5q-42 16 -42 68q0 10 32 17q24 6 40 6q7 0 21 -4t21 -4q4 0 5 15
q-4 13 -5 21l10 12q0 8 -6 13l-5 2q2 11 6 14l3 -3q1 2 2 5q0 8 -5.5 22.5t-5.5 23.5q0 11 1.5 33.5t1.5 33.5q0 32 -8 51q-7 155 -5 228q-4 7 -4 40q0 16 -19 22q-36 11 -37 12q-20 11 -20 39q0 5 1 16t1 16q126 8 169 8q111 0 205 -25q19 -5 48 -25t34.5 -34t22.5 -32
q12 -17 35 -52q17 -26 24 -78q1 -8 7 -83q12 -16 12 -71q0 -7 3 -21.5t3 -21.5zM512 300q0 24 -5 35q-10 14 -19 27v4q0 6 3 16.5t3 15.5q0 7 -2.5 20.5t-2.5 20.5q0 4 -13 22q-45 59 -73 81q-43 34 -100 35h-11q-40 0 -49 -21q0 -2 -7 -59.5t-7 -63.5q0 -28 5.5 -85
t5.5 -86q0 -21 -13 -50q8 -74 19 -96q21 -39 84 -39q81 0 134 73q48 66 48 150z" />
    <glyph glyph-name="eth" unicode="&#xf0;" 
d="M539 235q0 -89 -52 -157q-47 -26 -105 -84q-20 -8 -37 -8q-23 0 -67 8t-65 9q-9 5 -47 34.5t-45 37.5q-17 21 -34 108q-16 79 -16 118q0 11 3 19q24 58 101.5 111t139.5 53q9 0 23 -4q18 -5 22 -6q-12 37 -56 107q-33 -17 -60 -26q-30 13 -39 42q19 17 56 43
q-45 61 -45 85q0 26 37 26q43 0 94 -50q40 31 69 31q23 0 32 -5q13 -7 13 -37v-16l-61 -38q42 -60 89 -193q50 -139 50 -208zM446 237q0 1 -10.5 39t-11.5 42q-7 19 -22.5 31t-31.5 23q-23 6 -43 6q-15 0 -28 -5q-22 -10 -25 -11q-25 -8 -76 -8l-2 1q2 12 -9 12q-8 0 -8 -8
q0 -9 9 -22v-1q0 -9 -13 -34t-13 -42q0 -57 45 -109t101 -52q47 0 105 50q9 8 30 78q3 8 3 10z" />
    <glyph glyph-name="Yacute" unicode="&#xdd;" 
d="M587 674q0 -3 -1.5 -7.5t-1.5 -7.5q0 -31 -34 -53q-45 -30 -54 -42q-5 -14 -19 -40q-13 -9 -28 -23q-11 -31 -41 -93q-8 -52 -16 -83q-3 -15 -19 -45q-12 -22 -12 -56q0 -77 6 -106q3 -12 54 -37q57 -28 64 -34.5t7 -20.5q0 -12 -12 -19.5t-25 -7.5h-308q0 8 -1.5 24
t-1.5 24q0 25 35 33q28 6 55 12q39 20 47 55q3 13 3 76q0 32 -10 57t-22 50q-7 21 -26 61q-19 30 -51 90q0 1 -1 3q0 3 4 8.5t4 8.5q0 10 -12 8l-3 2q-7 17 -14 35q-11 24 -20 29q-15 8 -45.5 14.5t-40.5 16.5q-17 15 -17 50q0 5 -1.5 14t-1.5 13q0 19 36 19q13 0 37 -4
q30 -4 38 -5q1 -1 6 -7.5t8 -6.5q4 0 5 6.5t2 7.5q5 4 16 5q9 -5 15 -5q9 5 16 5q9 -12 15 -12q3 0 6 12q50 -9 53 -10q10 -8 10 -53v3h40q2 0 8.5 22.5t8.5 22.5q2 1 6 0q5 -1 6 -1q13 0 34.5 9.5t32.5 9.5q5 0 8 -2t7.5 -8.5t8.5 -6.5q9 0 15 14q71 -16 83 -16q6 0 16 3
t15 3q8 -7 8 -14zM404 562q0 31 -18.5 50.5t-49.5 19.5h-83q-13 -12 -14.5 -16t-1.5 -22q0 -35 6 -50q13 -32 40 -76q35 -57 51 -58q4 13 13 35l34 58q23 42 23 59zM484 869l-10 -48q-40 -24 -100 -45l-106 -34q-21 8 -26 26q140 128 183 128q14 0 34 -8t25 -19z" />
    <glyph glyph-name="yacute" unicode="&#xfd;" 
d="M589 498q-1 -54 -15 -72q-9 -12 -36 -14.5t-41 -12.5q-13 -43 -27 -86q-20 -66 -20 -78q0 -34 -22 -54l-1 1q-3 -19 -14.5 -55t-14.5 -55q-39 -34 -39 -61q0 -4 1.5 -12.5t1.5 -13.5l-1 -6l-20 -20h-1q-1 -1 -4 -25q-1 -20 -12 -19l-21 -49q-39 -30 -48 -35
q-29 -18 -56 -18q-39 0 -78 35.5t-39 73.5q0 43 49 43q20 0 39.5 -24t38.5 -24q8 0 31 19.5t24 27.5q17 34 17 56q0 24 -20 60q-24 42 -28 59q-3 11 -15 35q-12 21 -13 35q-8 9 -7 25q0 20 -2 25q-18 53 -93 118q-67 58 -67 87q0 27 10.5 33.5t47.5 11.5q45 6 53 8
q25 -12 51 -14h53q2 0 6 -2.5t6 -2.5q3 0 8 2t8 2q11 0 11 -24q0 -42 -8 -45q-4 -5 -26 -20q-11 -7 -13 -35l21 -62q1 -3 10 -21q7 -13 7 -22t-1 -26t-1 -25l16 -16q13 -12 18 -12q7 0 10 8q29 15 36 57q9 51 20 65v2q0 6 -2.5 17t-2.5 17t6.5 17t6.5 17q0 5 -8.5 12
t-8.5 13q-37 2 -39 3.5t-2 33.5q0 12 -3 20q5 35 14 28q23 8 27 8q3 0 7 -2.5t6 -2.5l18 11h104q11 -10 25 -10q3 0 9.5 1.5t8.5 1.5l7 -12q7 7 22 17zM484 719l-10 -48q-40 -24 -100 -45l-106 -34q-21 8 -26 26q140 128 183 128q14 0 34 -8t25 -19z" />
    <glyph glyph-name="Thorn" unicode="&#xde;" 
d="M596 387q0 -37 -20 -56q-12 -12 -13 -21q-1 -16 -4 -22q-15 -35 -36 -49q-26 -15 -53 -29q-29 -17 -70 -25q-14 6 -43 15q-11 2 -66 2h1q-14 7 -32 7q-14 0 -14 -8q0 -11 -1.5 -32t-1.5 -32q0 -23 23 -30q109 -33 109 -54q0 -63 -64 -63h-85q-41 0 -170 15q-11 7 -11 29
q0 40 26 47q19 3 39 6q6 5 20 26q20 30 20 91v67q0 13 -8 38.5t-8 39.5q0 10 5 30t5 30v109q0 42 -8 75q-14 9 -36 9q-2 0 -7 -1.5t-7 -1.5q-38 0 -38 37q0 32 16 54q22 0 72 5q46 4 72 4q15 0 23 -4q14 2 33 2q21 0 39 -2q10 -16 10 -41q0 -29 -12 -49q-33 -8 -52 -8
q-10 0 -18 3q-4 -9 -4 -22q0 -31 7 -41q12 0 30 9q22 11 28 13q65 20 121 20q124 0 172 -140q11 -32 11 -52zM503 405q0 30 -15 40l-38 20q-23 16 -33 16q-13 0 -25 9t-21 9q-3 0 -10 -1h-10q-5 0 -15 3t-15 3q-6 0 -11 -2l-5 -5q-13 3 -10 3q-4 0 -33 -14.5t-35 -18.5
l-5 -74l3 -6l2 -47h3q6 1 8 -5q-1 -8 12 -26q25 -20 29 -20t11.5 2t11.5 2q-1 0 17.5 -5t34.5 -5q75 0 108 22q41 28 41 100z" />
    <glyph glyph-name="thorn" unicode="&#xfe;" 
d="M565 270q0 -70 -12 -107q-16 -49 -61 -90q-29 -26 -47 -26h-145q-8 0 -23.5 3t-23.5 3q-18 0 -24 -14q-3 -40 -3 -47q0 -10 10.5 -19.5t10.5 -17.5v-7q-1 -5 -1 -7q0 -11 16.5 -13.5t17.5 -3.5l47 -16q7 -31 7 -36q0 -14 -7 -21q-87 -11 -177 -11h-44q-28 1 -43 1
q-22 0 -22 26q0 31 47 52q17 12 54 35q6 19 6 23t-1 12t-1 12q0 8 2 22t2 21v66q0 11 -4 23q9 12 9 44q0 93 -8 189q-1 10 -1 136q0 82 -9 97q-49 10 -61 17q-27 16 -27 54q0 14 36 25q30 9 49 9q16 0 47 -5t47 -5q6 0 8 -43q-1 4 -1 -94q0 -64 5 -82q29 0 66 40q9 9 47 9
q63 0 129 -26q2 -14 19 -26q22 -15 27 -20q37 -49 37 -182zM477 263q0 13 -6 37.5t-6 35.5q-1 1 -1 34q-16 24 -33 47.5t-51 23.5q-11 0 -23 -4q-5 -8 -13 -8q-3 0 -9 2t-10 3.5t-9 9.5h-6q-37 0 -56 -22q-14 -16 -16 -45v-49q11 -12 11 -51q0 -11 -6 -31.5t-6 -31.5
q0 -74 12 -85.5t38 -11.5q3 0 14 1q8 1 13 1q3 4 9 4q3 0 10 -3t11 -3q3 0 9.5 4.5t9.5 4.5q3 -2 32 -5l25 21q6 25 9 31q8 16 24 16q24 48 24 74z" />
    <glyph glyph-name="minus" unicode="&#xad;" 
d="M490 297q0 -6 -3 -12v-57q-43 -20 -54 -20q-14 0 -80 2q-7 4 -20 10q-8 -14 -14 -14q-2 0 -6 5t-8 5q-11 0 -32.5 -6.5t-32.5 -6.5l-120 4q-17 0 -17 94q20 16 25 18q9 5 30 5q8 0 24.5 1.5t24.5 1.5q12 0 35.5 -4t34.5 -4q5 0 12.5 2.5t11.5 2.5q5 0 13.5 -2.5
t13.5 -2.5q15 0 43.5 6.5t41.5 6.5q23 0 46 -7q31 -10 31 -28z" />
    <glyph glyph-name="minus" unicode="&#x2212;" 
d="M490 297q0 -6 -3 -12v-57q-43 -20 -54 -20q-14 0 -80 2q-7 4 -20 10q-8 -14 -14 -14q-2 0 -6 5t-8 5q-11 0 -32.5 -6.5t-32.5 -6.5l-120 4q-17 0 -17 94q20 16 25 18q9 5 30 5q8 0 24.5 1.5t24.5 1.5q12 0 35.5 -4t34.5 -4q5 0 12.5 2.5t11.5 2.5q5 0 13.5 -2.5
t13.5 -2.5q15 0 43.5 6.5t41.5 6.5q23 0 46 -7q31 -10 31 -28z" />
    <glyph glyph-name="multiply" unicode="&#xd7;" 
d="M540 430q0 -34 -28 -58q-13 -12 -57 -35q-3 -13 -9 -14q-10 -2 -13 -5q-51 -47 -51 -56q0 -6 4.5 -16.5t4.5 -16.5q0 -2 8 -3t9 -2q8 -6 58 -74.5t50 -74.5q0 -32 -42 -32q-6 0 -18.5 3t-18.5 3q-20 20 -23 24q-8 9 -17 28q-7 15 -29 39q-25 28 -36 28q1 0 -6 -10
q-4 -6 -14 -6t-34.5 -21t-28.5 -30l-14 -31q-16 -9 -32 -17q-22 -12 -31 -12q-13 0 -13 3q0 1 2 4t2 5q0 6 -14 10q-4 7 -4 11q0 22 65.5 97.5t65.5 95.5q0 24 -37 45t-72 41q-38 27 -38 64q0 2 5 33q20 6 45 6q10 0 11 -5t10 -5q38 0 85 -50t53 -50q11 0 28 13l114 91
q9 1 24 1q36 0 36 -21z" />
    <glyph glyph-name="onesuperior" unicode="&#xb9;" 
d="M476 394v-12q-10 -1 -20 -1q-28 0 -48 6q-7 -3 -21 -3q-7 0 -10.5 5.5t-5.5 5.5l-7 -6.5t-20 -6.5q-10 0 -30 4t-29 4q-21 0 -28 -10q-10 0 -29 -1t-28 -1q-17 0 -35 5t-18 4v35q21 9 63 22q27 4 58 14l21 42v4q0 5 -2 14t-2 14v6q7 10 7 13q0 5 -2.5 15t-2.5 15
q0 2 2.5 6t2.5 8q0 13 -2 20q-10 3 -10 5q0 5 11 13l-6 75q0 5 -3 16t-3 17q0 2 1 5.5t1 5.5l-1 1q-6 -1 -44 -20.5t-53 -19.5q-9 0 -22 18q0 5 -1.5 15t-1.5 15q0 10 4.5 14t19.5 7t21 6q81 53 126 53q11 0 18 -9.5t13 -19.5q-2 -1 -2 -57q0 -5 -1 -8q-7 -6 -7 -19
q0 -42 11 -57l1 -1q0 -4 -7 -13.5t-7 -10.5q0 -4 11 -8q-7 -8 -7 -21q0 -46 5 -49v-36q-2 -2 -2 -4q0 -4 4 -12t4 -13q-1 -1 -2 -4q2 0 2 -1q0 -2 -6 -7.5t-6 -8.5q0 -6 9.5 -13t10.5 -8q19 -23 53 -23q3 0 34 2q18 -7 18 -46z" />
    <glyph glyph-name="twosuperior" unicode="&#xb2;" 
d="M475 496q-4 -110 -9 -113t-29 -3q-4 0 -7 6.5t-7 6.5q-38 -20 -56 -20q-52 0 -80 7q-6 4 -20 10q-21 8 -46 8q-14 0 -24 -18h-46q-10 0 -10 29q0 31 34 74q2 3 57 62q1 4 19 30q32 4 70 39q1 1 2.5 5.5t2.5 4.5q24 0 61 41q7 22 7 48q0 3 -3 6.5t-3 6.5q0 2 5.5 5t4.5 7
l4 5q0 5 -7 15t-7 12q0 11 -26 15q-56 9 -48 9q-46 0 -61 -20q-5 -13 -13 -41q-4 -19 -13 -33.5t-18 -29.5l-2 -1q-37 9 -35 9q-13 0 -21 5q-10 36 -10 64q34 87 95 101.5t60 14.5h39q17 -14 37 -17l7 -11q2 2 6 2q15 0 34 -15t25 -30.5t13 -32.5q8 -20 8 -34q0 -7 -9 -37.5
t-13 -36.5t-28 -19v-2q0 -3 2 -8t2 -8q0 -16 -18 -30q-53 -18 -98 -53q-66 -51 -66 -68q0 -1 5 -3q23 -4 54 -18q-1 -13 40 -13q15 0 32 3l43 30v32q0 -6 4 9l7 5q-1 10 13 10t35 -10z" />
    <glyph glyph-name="threesuperior" unicode="&#xb3;" 
d="M489 552q0 -47 -21 -82l-11 -19q0 -2 1 -6.5t1 -6.5q0 -8 -20 -20q-38 -24 -102 -39q-31 -8 -30 -8q-49 0 -100 25q-55 25 -55 128q0 25 40 25q1 0 4.5 1t5.5 1q35 0 52 -24v-17q-13 -5 -13 -28q0 -15 1.5 -20.5t6.5 -6t9 -6.5q24 -14 46 -14q33 0 68 7q5 9 18 25
q11 2 23 13l-2 2q1 6 1 13t5 19t5 13q0 27 -11 38q-16 11 -33 22q-4 7 -10 15.5t-21 8.5q-4 0 -11.5 1.5t-11.5 1.5q-15 0 -28 -8q-15 5 -46 6v24q0 12 2 19q20 10 46 27q49 48 49 70q0 30 -40 30q-47 0 -62 -26q-3 -31 -28 -31q-29 0 -26 0q-16 21 -16 49q0 51 36 64
q15 5 80 5h24h25q31 0 44 -2q4 -1 18 -5q11 -4 18 -4q6 0 10.5 3.5t6.5 3.5q3 0 9 -1.5t10 -1.5q1 -9 1 -11q0 -3 -3.5 -7.5t-3.5 -7.5q0 -13 -23.5 -52t-23.5 -50q0 -5 -18.5 -19t-19.5 -19q3 -3 61 -14q22 -23 42.5 -45.5t20.5 -58.5z" />
    <glyph glyph-name="onehalf" unicode="&#xbd;" 
d="M258 416v-9h-14q-19 0 -32 4q-5 -2 -14 -2q-5 0 -7.5 4t-3.5 4l-4.5 -5t-13.5 -5q-7 0 -20 3t-20 3q-14 0 -19 -7q-6 0 -19 -1h-19q-11 0 -23 3.5t-12 2.5v26q14 6 42 15q18 3 39 11l14 30v4q0 3 -1.5 9.5t-1.5 10.5q0 2 2.5 6.5t2.5 7.5q0 4 -2 11t-2 11q0 1 2 4t2 6
q0 9 -2 14q-6 3 -6 4q0 3 7 10l-3 54l-3 12t-2 12q0 2 0.5 4.5t1.5 3.5l-1 1q-4 0 -29.5 -14.5t-35.5 -14.5q-6 0 -15 13q0 4 -1 11t-1 11q0 7 3 10q10 2 27 10q55 38 85 38q7 0 21 -21q-2 -1 -2 -42v-5q-5 -5 -5 -14q0 -31 8 -41v-1q0 -3 -4.5 -10.5l-4.5 -7.5q0 -3 7 -6
q-5 -5 -5 -15q0 -34 4 -36v-26q-1 -1 -1 -3q0 -3 2.5 -9t2.5 -9q-1 -1 0 -2.5t-3.5 -6.5t-4.5 -6q0 -5 6.5 -10t6.5 -6q13 -17 36 -17q2 0 23 2q12 -5 12 -34zM497 718q0 -25 -33 -67q-36 -47 -42 -67q-6 -30 -13 -61q-7 -36 -19 -58q-19 -31 -54 -95q-7 -14 -27 -82
q-18 -60 -28 -72q-12 -15 -21 -39t-15 -31t-15 -25q-1 -11 -4 -35q-2 -10 -17 -37.5t-21 -33.5q-9 -8 -23 -8q-25 0 -25 26q0 33 28 88l119 233v24l142 344q8 21 37 21q21 0 30 -8q1 -8 1 -17zM572 83q-3 -81 -7 -83t-21 -2q-3 0 -5 4.5t-5 4.5q-27 -14 -40 -14q-38 0 -58 5
q-4 3 -14 8q-15 5 -33 5q-11 0 -18 -13h-33q-7 0 -7 21q0 23 24 53q2 3 41 46q1 3 14 21q23 3 50 28q1 1 2 4.5t2 3.5q17 0 44 30q5 16 5 34q0 2 -2 5t-2 5q0 1 4 3.5t3 4.5l3 4q0 4 -5 11t-5 9q0 8 -19 11q-40 6 -34 6q-34 0 -44 -14q-4 -10 -10 -30q-1 -9 -22 -46h-2
q-26 6 -25 6q-9 0 -15 3q-7 27 -7 47q24 63 68 73.5t43 10.5h28q13 -10 27 -12l5 -8q2 1 5 1q10 0 24 -11t18 -21q15 -43 15 -49q0 -5 -6 -27t-9 -26.5t-20 -13.5v-2q0 -2 1 -5.5t1 -5.5q0 -12 -13 -22q-38 -13 -71 -39q-47 -37 -47 -48q1 -2 4 -3q16 -3 39 -13
q-1 -10 28 -10q11 0 24 3l31 21v24q0 -5 2 6l5 4q0 7 10 7t25 -7z" />
    <glyph glyph-name="onequarter" unicode="&#xbc;" 
d="M258 416v-9h-14q-19 0 -32 4q-5 -2 -14 -2q-5 0 -7.5 4t-3.5 4l-4.5 -5t-13.5 -5q-7 0 -20 3t-20 3q-14 0 -19 -7q-6 0 -19 -1h-19q-11 0 -23 3.5t-12 2.5v26q14 6 42 15q18 3 39 11l14 30v4q0 3 -1.5 9.5t-1.5 10.5q0 2 2.5 6.5t2.5 7.5q0 4 -2 11t-2 11q0 1 2 4t2 6
q0 9 -2 14q-6 3 -6 4q0 3 7 10l-3 54l-3 12t-2 12q0 2 0.5 4.5t1.5 3.5l-1 1q-4 0 -29.5 -14.5t-35.5 -14.5q-6 0 -15 13q0 4 -1 11t-1 11q0 7 3 10q10 2 27 10q55 38 85 38q7 0 21 -21q-2 -1 -2 -42v-5q-5 -5 -5 -14q0 -31 8 -41v-1q0 -3 -4.5 -10.5l-4.5 -7.5q0 -3 7 -6
q-5 -5 -5 -15q0 -34 4 -36v-26q-1 -1 -1 -3q0 -3 2.5 -9t2.5 -9q-1 -1 0 -2.5t-3.5 -6.5t-4.5 -6q0 -5 6.5 -10t6.5 -6q13 -17 36 -17q2 0 23 2q12 -5 12 -34zM497 718q0 -25 -33 -67q-36 -47 -42 -67q-6 -30 -13 -61q-7 -36 -19 -58q-19 -31 -54 -95q-7 -14 -27 -82
q-18 -60 -28 -72q-12 -15 -21 -39t-15 -31t-15 -25q-1 -11 -4 -35q-2 -10 -17 -37.5t-21 -33.5q-9 -8 -23 -8q-25 0 -25 26q0 33 28 88l119 233v24l142 344q8 21 37 21q21 0 30 -8q1 -8 1 -17zM578 122l-2 -33l-3 -3q-8 -2 -23 -8h-5q-4 0 -11 3t-11 3q-10 0 -21.5 -7.5
t-11.5 -16.5v-6q1 -5 2.5 -6.5t16.5 -6.5q4 -5 7 -5t7.5 1t7.5 1q8 0 11.5 -6.5t3.5 -15.5q0 -15 -13 -21q-75 -2 -86 -2t-32 4q-26 4 -26 9q0 2 -1 5.5t-1 5.5q0 13 26 19q18 3 37 6l2 2l-3 5v1q2 1 4 4q1 8 4 21v1q-12 3 -23 3q-34 0 -50 -1q-35 -3 -38 -3q-4 0 -11 2.5
t-10 2.5q-9 11 -9 30l16 13q1 3 1 6q0 1 -1 4t-1 5q0 7 45 66q19 24 27 40q36 76 62 98q10 1 19 1q13 0 15 -6v-22q0 -15 -1 -44q0 -3 -1.5 -10.5t-1.5 -11.5q0 -3 3 -7l-4 -44l-2 -5l7 -14q-5 -7 -5 -29q0 -15 13 -24q3 5 18 5q3 0 10 -1h10q4 0 11 2t10 2zM460 210
q0 28 -8 33q-1 -7 -13 -27.5t-17 -24.5q-3 -9 -8 -18q-3 -2 -5 -2t-13.5 -19.5l-11.5 -19.5q0 -13 6 -13q4 0 12 1t12 1q3 0 10 -1.5t11 -1.5q2 0 6 2.5t6 2.5q1 0 9 -2q1 8 2 44q2 28 2 45z" />
    <glyph glyph-name="threequarters" unicode="&#xbe;" 
d="M497 718q0 -25 -33 -67q-36 -47 -42 -67q-6 -30 -13 -61q-7 -36 -19 -58q-19 -31 -54 -95q-7 -14 -27 -82q-18 -60 -28 -72q-12 -15 -21 -39t-15 -31t-15 -25q-1 -11 -4 -35q-2 -10 -17 -37.5t-21 -33.5q-9 -8 -23 -8q-25 0 -25 26q0 33 28 88l119 233v24l142 344
q8 21 37 21q21 0 30 -8q1 -8 1 -17zM578 122l-2 -33l-3 -3q-8 -2 -23 -8h-5q-4 0 -11 3t-11 3q-10 0 -21.5 -7.5t-11.5 -16.5v-6q1 -5 2.5 -6.5t16.5 -6.5q4 -5 7 -5t7.5 1t7.5 1q8 0 11.5 -6.5t3.5 -15.5q0 -15 -13 -21q-75 -2 -86 -2t-32 4q-26 4 -26 9q0 2 -1 5.5t-1 5.5
q0 13 26 19q18 3 37 6l2 2l-3 5v1q2 1 4 4q1 8 4 21v1q-12 3 -23 3q-34 0 -50 -1q-35 -3 -38 -3q-4 0 -11 2.5t-10 2.5q-9 11 -9 30l16 13q1 3 1 6q0 1 -1 4t-1 5q0 7 45 66q19 24 27 40q36 76 62 98q10 1 19 1q13 0 15 -6v-22q0 -15 -1 -44q0 -3 -1.5 -10.5t-1.5 -11.5
q0 -3 3 -7l-4 -44l-2 -5l7 -14q-5 -7 -5 -29q0 -15 13 -24q3 5 18 5q3 0 10 -1h10q4 0 11 2t10 2zM460 210q0 28 -8 33q-1 -7 -13 -27.5t-17 -24.5q-3 -9 -8 -18q-3 -2 -5 -2t-13.5 -19.5l-11.5 -19.5q0 -13 6 -13q4 0 12 1t12 1q3 0 10 -1.5t11 -1.5q2 0 6 2.5t6 2.5
q1 0 9 -2q1 8 2 44q2 28 2 45zM270 519q0 -36 -15 -62l-8 -15q0 -2 1 -5t1 -5q0 -6 -14 -15q-27 -18 -72 -30l-22 -6q-34 0 -70 19q-39 20 -39 98q0 19 28 19h4q2 1 3 1q25 0 37 -18v-13q-9 -4 -9 -21q0 -11 1 -15.5t4.5 -5t6.5 -5.5q17 -10 32 -10q24 0 49 5q3 7 12 19
q8 2 17 11l-2 1q1 4 1 9.5t3.5 14.5t3.5 10q0 20 -8 29q-12 9 -23 17q-3 5 -7.5 11.5t-14.5 6.5q-3 0 -8.5 1.5t-7.5 1.5q-11 0 -20 -7q-11 4 -32 5l-1 18q0 9 1 15q15 7 33 20q35 36 35 53q0 24 -28 24q-34 0 -44 -20q-2 -24 -20 -24q-20 0 -19 0q-11 16 -11 37q0 40 26 49
q10 4 56 4h17.5h16.5q22 0 32 -2q32 -6 25 -6q4 0 7.5 2.5t4.5 2.5q2 0 6.5 -1.5t6.5 -0.5q2 -7 2 -9t-3 -5.5t-3 -5.5q0 -10 -16.5 -40t-16.5 -38q0 -4 -13 -14.5t-13 -14.5q2 -2 43 -11q15 -17 29.5 -34.5t14.5 -44.5z" />
    <glyph glyph-name="Gbreve" unicode="&#x11e;" 
d="M621 338q0 -3 -5 -14.5t-7 -13.5q-8 -7 -26 -7.5t-24 -5.5q-11 -9 -11 -36q0 -7 5 -17t5 -13q0 -6 -3 -16t-3 -15v-10q2 -3 2 -8t-5 -16.5t-5 -15.5q-10 -6 -10 -10q0 -3 10 -5v-16q0 -13 -9 -39q-10 -31 -12 -39q-1 -11 -3 -24t-13 -13q5 0 -22 -8q-12 6 -26.5 18
t-27.5 23q0 15 -10 15l-22 -28.5t-40 -28.5q-8 0 -23 2.5t-23 2.5q-153 0 -231 160q-31 63 -31 79t-9 45.5t-9 45.5q0 14 1.5 43.5t1.5 44.5q0 87 26 148.5t89 121.5q43 42 94 45l70 6q60 -38 107 -38q24 0 39 12q4 1 11.5 14.5t20.5 13.5q5 0 15 -2t15 -2q7 0 12 3
q5 -8 6 -19q1 -8 0 -21q-1 -16 -1 -21q0 -6 2 -19.5t2 -20.5q0 -8 -7.5 -16t-7.5 -13q0 -19 6 -56t6 -55q-82 -10 -86 -10q-12 0 -16 3q-4 9 -13 56q-6 26 -62 45q-46 15 -81 15q-63 0 -102 -42q-27 -30 -27 -47q0 -7 11 -26v-5l-15 -21q-5 -7 -13 -51t-8 -56
q0 -10 11.5 -10t11.5 -69q0 -24 -2 -35q4 -1 32 -58q27 -53 58 -53q5 0 16 8q3 -1 4.5 -10t13 -9t28.5 -6t23 -6q55 0 63 8q2 2 4.5 9t21.5 38q11 20 11 42q0 5 -3 13.5t-3 9.5q0 11 7.5 31.5t7.5 31.5q0 17 -63.5 18.5t-64.5 20.5l-1 63q0 4 10.5 11.5t14.5 7.5q5 0 13 -3
t13 -3q6 0 37 13q10 -1 26 -10q19 -1 26 -1q9 0 26 1.5t26 1.5q4 0 54.5 -9t53.5 -11q16 -6 16 -10v-47zM461 864q-100 -116 -155 -116q-47 0 -93 40q-18 15 -71 76q4 20 23 29q13 -6 65 -43q34 -25 76 -25t73 25q45 36 60 43q19 -9 22 -29z" />
    <glyph glyph-name="gbreve" unicode="&#x11f;" horiz-adv-x="639" 
d="M573 -46q0 -55 -68 -92v-15l-3 2l-13 -4q-1 0 -3 1l1 17l-14 -8q0 7 0 -16q0 -6 -35 -15q-31 -7 -44 -8q0 7 -5 11h-7q-32 -17 -83 -17q-90 0 -129 13q-63 21 -90 86q-18 44 -18 86l5 6q4 0 10 4t9.5 6.5t10.5 11.5q-13 3 -13 16q0 27 27 42q11 7 51 19q27 8 27 18
q0 5 -3 15t-3 15q0 17 -23 25q-5 2 -38 9q-6 22 -12 43q-7 28 -7 44q0 28 8 73q10 60 12 73q11 17 36 47q16 7 42 29q3 6 11 16q15 13 71 13q17 0 55 -8q15 -4 15 -6t-1.5 -6t-1.5 -6q0 -1 6 -3t7 -4h3q3 0 8.5 2.5t8.5 2.5q2 0 12.5 -10.5t17.5 -10.5q13 0 24 16
q17 25 25 31q20 17 55 17q20 0 39 -30l-1 2q5 -9 5 -18q0 -24 -46.5 -38.5t-46.5 -20.5l15 -13q6 -2 6 -25q0 -7 4 -23.5t4 -23.5q-20 -48 -18 -81q-5 -9 -15.5 -10t-13.5 -5q-6 -9 -6 -38q0 -6 -48 -28q-36 -16 -95 -16q-15 0 -26 2v-1q0 -4 -1.5 -11.5t-1.5 -10.5
t9.5 -8.5t6.5 -12.5l1 -1q17 0 49.5 11t48.5 11q15 0 31 -7t31 -14q21 -22 29 -27q13 -7 39 -9v-8q-1 -6 14 -22q19 -21 28 -38q15 -30 15 -67zM422 315q0 28 -43.5 69.5t-71.5 41.5q-57 0 -79.5 -21.5t-32.5 -77.5q-3 -18 -3 -19q0 -15 19 -41t34 -26q32 -14 55 -14
q22 0 54 14q20 17 39 35q29 26 29 39zM490 -49q0 14 -8 34q-11 28 -13 33q-6 6 -16 6q-4 17 -11 18l-13 -10q-24 10 -49 19q-30 12 -51 12q-5 0 -29 -1q-2 -16 -17 -16q-8 0 -19 11h-8q-8 0 -24 -11q-3 -2 -22 -12q-9 -5 -19 -19q-24 -36 -24 -67q0 -2 18 -35q27 -47 94 -47
h33q33 0 64 8l31 8q6 0 22 -15q1 1 40 36q21 19 21 48zM461 694q-100 -116 -155 -116q-47 0 -93 40q-18 15 -71 76q4 20 23 29q13 -6 65 -43q34 -25 76 -25t73 25q45 36 60 43q19 -9 22 -29z" />
    <glyph glyph-name="Idotaccent" unicode="&#x130;" 
d="M548 72q-3 -21 -7 -42q-7 -30 -22 -30q-3 0 -8.5 2.5t-8.5 2.5q-5 0 -15.5 -2.5t-15.5 -2.5h-326q-57 0 -57 39q0 40 43 49q2 1 80 5q43 3 43 25q0 8 -2.5 23t-2.5 23q0 12 10 37.5t10 39.5q0 4 -1.5 11.5t-1.5 11.5v265q0 16 -39 41q-40 4 -80 7q-48 11 -48 51v39
q17 13 48 13q46 0 137.5 -2t136.5 -2q9 0 26.5 2t26.5 2q24 0 59 -27q-14 -57 -32.5 -73t-76.5 -25h-3q-5 0 -13.5 2t-13.5 2h-1q-22 -15 -22 -64q0 -54 7 -70q0 -7 -1 -23.5t-1 -25.5q0 -18 3 -30q7 -4 7 -8q0 -5 -7 -8l-1 -5q0 -5 3 -15t3 -15q0 -19 -3 -57t-3 -57
q0 -21 21 -42q9 -16 24 -36q19 -14 125 -31zM396 791q1 -59 -20 -70q-11 -6 -37 -6q-39 0 -55 4q-10 3 -22 28t-12 37q0 23 19 51q21 32 48 32q36 0 59 -19q5 -10 20 -29v-28z" />
    <glyph glyph-name="Scedilla" unicode="&#x15e;" 
d="M556 172q0 -64 -60.5 -123.5t-125.5 -59.5h-19q-13 0 -36 8q-27 10 -35.5 11.5t-37.5 1.5q-9 0 -24.5 7.5t-24.5 7.5q-5 0 -13.5 -17t-10.5 -19h-67l2 184q1 31 15 57q17 33 45 33q31 0 38 -22.5t13 -45.5q6 -5 6 -11q0 -2 -3 -5.5t-3 -5.5q0 -6 6.5 -18t3.5 -20l1 -2
q31 -36 121 -36q49 0 61 5q47 20 47 52v52q-11 9 -21 27q-14 27 -16 30q-5 7 -19 13t-18 13q-22 1 -82 21q-208 66 -208 248q0 62 29 93q24 28 86 47q26 8 35 8q11 0 20 -7t11 -7q8 0 17 12q90 -28 108 -28q10 0 17 13q9 19 16 25q15 13 46 13q26 0 26 -12q0 -7 -5.5 -21
t-5.5 -21v-66q-1 -44 -1 -66q0 -5 2 -13.5t2 -13.5q0 -34 -6 -43q-9 -12 -41 -11h-23q-20 20 -20 30q0 5 8 11.5t8 10.5q0 7 -9 16l-13 15q-38 57 -109 57q-73 0 -73 -83q0 -58 47 -83q88 -47 114 -52q9 -1 28 -2q30 -3 42 -12l28 -32q11 -7 31 -20q21 -16 36 -67
q14 -44 14 -77zM396 -26q0 -4 -26 -11t-26 -21q0 -10 24.5 -21t24.5 -26q0 -41 -22 -58q-8 -7 -58 -27q-19 3 -43 15q27 26 27 44q0 11 -12.5 24.5t-22.5 14.5q-18 37 -18 52q0 25 24.5 45.5t50.5 20.5t70 -12q7 -34 7 -40z" />
    <glyph glyph-name="scedilla" unicode="&#x15f;" 
d="M528 140q0 -61 -18 -89q-22 -35 -81 -41q-81 -9 -118 -9q-7 0 -22.5 1.5t-23.5 1.5q-28 0 -58 20t-33 20q-11 0 -17 -33q-8 -2 -15 -2h-14q-10 1 -15 1q-16 26 -16 92q0 42 4 56q8 34 38 34q29 0 39 -10t17 -38q6 -23 39 -39q50 -25 54 -28q13 -10 26 -10q15 0 52 10
q41 12 41 22q0 65 -7 72q-19 6 -47 15q-62 23 -185 73q-26 12 -45 34q-22 24 -22 49q0 61 29 107q34 53 92 53q30 0 88.5 -14t89.5 -14q20 0 25.5 21t36.5 21q11 0 40 -2q4 -6 5 -19q1 -9 0 -24q-2 -18 -2 -21q0 -13 2.5 -39t2.5 -40q0 -12 -11 -25.5t-24 -13.5
q-43 0 -63 41q-2 10 -10 29q-19 28 -124 28q-60 0 -60 -51q0 -23 31 -39q23 -11 47 -22q9 -4 25 -13h26q12 1 16 -4l-5 -9q4 -5 32.5 -8t33.5 -5q47 -17 75.5 -54.5t28.5 -84.5zM395 -41q0 -4 -25.5 -10.5t-25.5 -20.5q0 -9 24.5 -19.5t24.5 -26.5q0 -39 -22 -56
q-8 -6 -58 -26q-19 3 -43 14q26 26 26 44q0 10 -12 23t-22 14q-18 36 -18 50q0 25 24.5 45t49.5 20q27 0 70 -12q7 -33 7 -39z" />
    <glyph glyph-name="Euro" unicode="&#x20ac;" 
d="M576 214q0 -2 -3 -13.5t-3 -25t-4 -27.5q-21 -67 -32.5 -83t-34.5 -31q-20 -11 -40 -23q-39 -25 -104 -25q-9 9 -48 15t-60 26q-71 67 -86 93q-22 36 -34 123l-84 5q-29 2 -29 54q35 16 91 16q3 0 13 -3q-2 16 -6 47q-10 -1 -18 -1q-81 0 -81 22q0 1 1.5 3.5t1.5 3.5v36
q47 13 104 12q6 44 41 180q31 35 61 71q34 34 77 54q19 1 36 1q23 0 34 -1q16 -1 49.5 -18.5t40.5 -17.5q7 7 13 7q7 0 11 -7l38 10l14 -9q2 0 6.5 2.5t7.5 2.5q7 0 7 -8q0 -4 -2 -11.5t-2 -12.5q0 -8 3.5 -24.5t3.5 -24.5q0 -16 -2.5 -46.5t-2.5 -45.5q0 -5 -3.5 -14.5
t-3.5 -15.5l-8 -10q-8 1 -13.5 -5t-14.5 -6q-22 0 -27.5 13t-10.5 27q4 17 4 21q0 63 -124 63q-64 0 -104 -58q-34 -49 -40 -119q4 -2 14 -5q8 9 14 9q2 0 6.5 -3t8.5 -3q7 0 22 3t23 2l119 -4q9 0 9 -22q0 -15 -3 -33q-35 -16 -85 -16q-17 0 -50 2.5t-50 2.5
q-4 0 -12.5 -1.5t-12.5 -1.5q1 -5 8.5 -18.5t7.5 -21.5q0 -5 -2 -10h23q14 -1 23 -1q11 0 34.5 3t35.5 3q80 0 80 -22q0 -1 -1 -3.5t-1 -3.5v-36q-50 -13 -53 -13q-4 0 -11.5 1.5t-11.5 1.5q-14 0 -29 -3q-11 4 -58 4q-2 0 -7 -2t-8 -2q-2 0 -6.5 2.5t-7.5 2.5h-3
q1 -11 7 -28q6 -1 8 -12v-14.5t5 -10t6 -5.5q0 -16 10 -47q35 -53 141 -53q24 0 34 12q16 18 32 37t23.5 45.5t7.5 34.5q0 3 -1.5 5t-1.5 4q0 44 37 44q17 0 30 -14.5t13 -31.5z" />
    <glyph glyph-name="foursuperior" unicode="&#x2074;" 
d="M469 543l-2 -43l-4 -4q-10 -3 -32 -10h-6q-5 0 -14.5 3.5t-14.5 3.5q-13 0 -29 -9.5t-16 -22.5q0 -3 1 -8v-8q4 -2 25 -9q6 -7 10 -7q3 0 9.5 2t9.5 2q11 0 14 -9q7 -9 7 -20q0 -21 -17 -28q-102 -3 -116 -3t-43 5q-35 6 -35 12q0 3 -1.5 7.5t-1.5 7.5q0 17 35 25
q25 4 49 8l4 3l-4 7h-1q3 1 6 5q1 11 5 28v2q-16 4 -30 4q-46 0 -68 -1q-47 -4 -50 -4q-6 0 -15 3t-13 3q-13 14 -13 40l22 17q1 4 1 7q0 2 -1 6t-1 6q0 10 60 87q25 33 35 53q49 101 84 130q13 2 26 2q17 0 20 -9v-28q0 -20 -2 -58q0 -5 -2 -15t-2 -15q0 -4 4 -9l-5 -58
l-3 -7l10 -18q-8 -10 -8 -39q0 -20 19 -31q4 6 23 6q5 0 14 -1h13q5 0 14.5 2.5t14.5 2.5zM311 660q0 37 -10 43q-1 -8 -17.5 -35.5t-23.5 -32.5q-4 -12 -11 -24q-4 -3 -6.5 -3t-17.5 -25.5l-15 -25.5q0 -18 8 -18q5 0 15.5 1.5t15.5 1.5t14 -2t14 -2q3 0 8.5 3.5t8.5 3.5
q1 0 12 -3q1 11 3 59q2 36 2 59z" />
  </font>
</defs>
</svg>
